<svg xmlns="http://www.w3.org/2000/svg" xmlns:xlink="http://www.w3.org/1999/xlink" viewBox="0 0 48.31 48.29"><defs><style>.cls-1{fill:url(#New_Gradient_Swatch_5);}.cls-2{fill:url(#New_Gradient_Swatch_5-2);}</style><linearGradient id="New_Gradient_Swatch_5" x1="-0.91" y1="1.48" x2="51.59" y2="47.98" gradientUnits="userSpaceOnUse"><stop offset="0" stop-color="#cc3"/><stop offset="0.58" stop-color="#319d49"/><stop offset="1" stop-color="#12351c"/></linearGradient><linearGradient id="New_Gradient_Swatch_5-2" x1="2.6" y1="-2.49" x2="55.1" y2="44.01" xlink:href="#New_Gradient_Swatch_5"/></defs><title>Asset 38</title><g id="Layer_2" data-name="Layer 2"><g id="Layer_1-2" data-name="Layer 1"><path class="cls-1" d="M27.57,33.5a15.29,15.29,0,0,1-22.64-15H8.18a3.22,3.22,0,0,0,3.1,2.42,3.18,3.18,0,0,0,1.63-.46l3.66,3.66a3.17,3.17,0,0,0-.46,1.63,3.22,3.22,0,1,0,6.44,0,3.18,3.18,0,0,0-.46-1.62l5.27-5.27a3.17,3.17,0,0,0,1.63.46,3.22,3.22,0,0,0,3.22-3.22,3.18,3.18,0,0,0-.46-1.62l1.75-1.75A15.28,15.28,0,0,1,27.57,33.5M12.9,17.71a1.61,1.61,0,1,1-1.61-1.61,1.61,1.61,0,0,1,1.61,1.61m8,8a1.61,1.61,0,1,1-1.61-1.61,1.61,1.61,0,0,1,1.61,1.61M30.6,16.1A1.61,1.61,0,1,1,29,14.49,1.61,1.61,0,0,1,30.6,16.1M20.14,4.83a15.27,15.27,0,0,1,12.49,6.49l-2,2A3.18,3.18,0,0,0,29,12.88a3.22,3.22,0,0,0-3.22,3.22,3.19,3.19,0,0,0,.46,1.62L21,23a3.12,3.12,0,0,0-3.25,0L14,19.34a3.21,3.21,0,1,0-5.87-2.43h-3A15.31,15.31,0,0,1,20.14,4.83m0-1.61A16.9,16.9,0,1,0,37,20.12a16.9,16.9,0,0,0-16.9-16.9"/><path class="cls-2" d="M35.2,30.87c-.25.35-.51.7-.79,1l-.25.29q-.37.43-.76.83l-.35.35q-.4.39-.83.76l-.29.25c-.33.28-.68.54-1,.79a18.54,18.54,0,1,1,4.31-4.31m3.12,3.74L34.63,38.3,32.4,36.08l.33-.27.36-.3.52-.45.26-.24q.5-.46,1-1l.24-.26.45-.52.3-.36.27-.33Zm7.62,7.62A2.61,2.61,0,1,1,42.29,46l0,0-6.48-6.48,3.69-3.69Zm-5.67-39a1.61,1.61,0,1,1-1.61,1.61,1.61,1.61,0,0,1,1.61-1.61m0,4.83a3.22,3.22,0,0,0,3.1-2.41h4.94V4H43.37A3.21,3.21,0,0,0,37,4.83a3.17,3.17,0,0,0,.46,1.63L36.08,7.87a20.12,20.12,0,1,0-5,29.14l2.43,2.43,1.14,1.14,6.48,6.48a4.22,4.22,0,0,0,6-6l-6.48-6.48-1.14-1.14L37,31A20.06,20.06,0,0,0,37,9.2l1.61-1.61a3.17,3.17,0,0,0,1.62.46"/></g></g></svg>