<svg xmlns="http://www.w3.org/2000/svg" xmlns:xlink="http://www.w3.org/1999/xlink" viewBox="0 0 44.92 44.92"><defs><style>.cls-1{fill:url(#New_Gradient_Swatch_5);}.cls-2{fill:url(#New_Gradient_Swatch_5-2);}.cls-3{fill:url(#New_Gradient_Swatch_5-3);}.cls-4{fill:url(#New_Gradient_Swatch_5-4);}.cls-5{fill:url(#New_Gradient_Swatch_5-5);}.cls-6{fill:url(#New_Gradient_Swatch_5-6);}</style><linearGradient id="New_Gradient_Swatch_5" x1="-0.51" y1="3.23" x2="43.49" y2="39.73" gradientUnits="userSpaceOnUse"><stop offset="0" stop-color="#cc3"/><stop offset="0.58" stop-color="#319d49"/><stop offset="1" stop-color="#12351c"/></linearGradient><linearGradient id="New_Gradient_Swatch_5-2" x1="0.33" y1="2.19" x2="44.33" y2="38.69" xlink:href="#New_Gradient_Swatch_5"/><linearGradient id="New_Gradient_Swatch_5-3" x1="8.66" y1="-7.84" x2="52.66" y2="28.66" xlink:href="#New_Gradient_Swatch_5"/><linearGradient id="New_Gradient_Swatch_5-4" x1="-9.7" y1="14.29" x2="34.3" y2="50.79" xlink:href="#New_Gradient_Swatch_5"/><linearGradient id="New_Gradient_Swatch_5-5" x1="0.22" y1="2.34" x2="44.22" y2="38.84" xlink:href="#New_Gradient_Swatch_5"/><linearGradient id="New_Gradient_Swatch_5-6" x1="-2.8" y1="5.97" x2="41.2" y2="42.47" xlink:href="#New_Gradient_Swatch_5"/></defs><title>Asset 36</title><g id="Layer_2" data-name="Layer 2"><g id="Layer_1-2" data-name="Layer 1"><path class="cls-1" d="M30.63,42.88A12.25,12.25,0,1,1,42.88,30.63,12.27,12.27,0,0,1,30.63,42.88m-26.55-2a2,2,0,0,1-2-2V22.46H18.92a14.24,14.24,0,0,0,1.73,18.38ZM2,4.08a2,2,0,0,1,2-2H20.42V20.42H2ZM22.46,2H38.8a2,2,0,0,1,2,2V20.65a14.24,14.24,0,0,0-18.38-1.73ZM42.88,23.31V4.08A4.09,4.09,0,0,0,38.8,0H4.08A4.09,4.09,0,0,0,0,4.08V38.8a4.09,4.09,0,0,0,4.08,4.08H23.31A14.26,14.26,0,0,0,42.88,23.31"/><path class="cls-2" d="M15.32,10.21H12.25V7.15a1,1,0,1,0-2,0v3.06H7.15a1,1,0,0,0,0,2h3.06v3.06a1,1,0,0,0,2,0V12.25h3.06a1,1,0,0,0,0-2"/><path class="cls-3" d="M36.76,11.23a1,1,0,0,0-1-1H27.57a1,1,0,0,0,0,2h8.17a1,1,0,0,0,1-1"/><path class="cls-4" d="M15,27.87a1,1,0,0,0-1.44,0l-2.34,2.34L8.89,27.87a1,1,0,0,0-1.44,1.44l2.34,2.34L7.45,34a1,1,0,0,0,1.44,1.44l2.34-2.34,2.34,2.34A1,1,0,0,0,15,34l-2.34-2.34L15,29.31a1,1,0,0,0,0-1.44"/><path class="cls-5" d="M35.74,26.55H25.53a1,1,0,0,0,0,2H35.74a1,1,0,0,0,0-2"/><path class="cls-6" d="M35.74,32.67H25.53a1,1,0,0,0,0,2H35.74a1,1,0,0,0,0-2"/></g></g></svg>