<svg xmlns="http://www.w3.org/2000/svg" xmlns:xlink="http://www.w3.org/1999/xlink" viewBox="0 0 44.97 44.92"><defs><style>.cls-1{fill:url(#New_Gradient_Swatch_5);}.cls-2{fill:url(#New_Gradient_Swatch_5-2);}.cls-3{fill:url(#New_Gradient_Swatch_5-3);}</style><linearGradient id="New_Gradient_Swatch_5" x1="-1.21" y1="0.35" x2="47.29" y2="44.35" gradientUnits="userSpaceOnUse"><stop offset="0" stop-color="#cc3"/><stop offset="0.58" stop-color="#319d49"/><stop offset="1" stop-color="#12351c"/></linearGradient><linearGradient id="New_Gradient_Swatch_5-2" x1="-4.78" y1="4.28" x2="43.72" y2="48.28" xlink:href="#New_Gradient_Swatch_5"/><linearGradient id="New_Gradient_Swatch_5-3" x1="-1.7" y1="0.89" x2="46.8" y2="44.89" xlink:href="#New_Gradient_Swatch_5"/></defs><title>Asset 32</title><g id="Layer_2" data-name="Layer 2"><g id="Layer_1-2" data-name="Layer 1"><path class="cls-1" d="M43.45,32.6a1.29,1.29,0,0,1-.6.87L28.8,42a4.49,4.49,0,0,1-2.34.66H8a3.35,3.35,0,0,0,.21-1.12V28.06a3.4,3.4,0,0,0,0-.37H9.59A6.12,6.12,0,0,1,13.4,29a7.62,7.62,0,0,0,4.74,1.66h3.92a3,3,0,0,1,2.57,1.46l.07.11a2,2,0,0,1-.11,2.18H20a7.47,7.47,0,0,0-4.16,1.26l-.55.37a.75.75,0,1,0,.83,1.25l.55-.37a6,6,0,0,1,3.33-1h6.66a3.76,3.76,0,0,0,1.19-.19l9.56-3.19h0a.73.73,0,0,0,.46-.17l3.82-1.27a1.3,1.3,0,0,1,1.46.46,1.28,1.28,0,0,1,.24,1m-30-8.66a3,3,0,0,1,1.28.3A.75.75,0,0,0,15.7,24a3.73,3.73,0,0,1,5-1,.75.75,0,0,0,1.1-.37,1.48,1.48,0,0,1,1.33-1h.11a1.49,1.49,0,0,1,1.45,1.45v.11a.75.75,0,0,0,.9.78,4.93,4.93,0,0,1,1-.1,4.85,4.85,0,0,1,4.33,2.66.75.75,0,0,0,.82.39,2.26,2.26,0,0,1,2.71,2.17s0,.05,0,.07a.75.75,0,0,0,.64.74,1.88,1.88,0,0,1,1.51,1.28L27.4,34.32a2.26,2.26,0,0,1-.71.11h-.43a3.45,3.45,0,0,0-.28-3l-.07-.11a4.52,4.52,0,0,0-3.86-2.18H18.14a6.11,6.11,0,0,1-3.81-1.33,7.61,7.61,0,0,0-3.76-1.59,3,3,0,0,1,2.91-2.32M6.75,41.55a1.88,1.88,0,0,1-1.87,1.87H3.37A1.88,1.88,0,0,1,1.5,41.55V28.06a1.88,1.88,0,0,1,1.87-1.87h1.5a1.88,1.88,0,0,1,1.87,1.87Zm19-33.13a8.24,8.24,0,0,0,.16,2,2.2,2.2,0,0,1-1.62-.73A16.41,16.41,0,0,1,22,5.22a14.72,14.72,0,0,1,4.41.41,7.52,7.52,0,0,0-.67,2.78m1.5.07a5.61,5.61,0,0,1,1.94-4.08c2.87-2.42,7.74-2.9,11.14-2.9,1.22,0,2.24.06,2.92.12C42.55,3.92,40.5,10.24,38,13.54a5.1,5.1,0,0,1-3.83,2,6.53,6.53,0,0,1-5-2c-.09-.1-.18-.21-.27-.31a25.56,25.56,0,0,1,5.18-3.64.75.75,0,0,0-.66-1.35A26.28,26.28,0,0,0,28,12a7,7,0,0,1-.77-3.5m14,21.2h0l-3.22,1.07a3.4,3.4,0,0,0-2.12-2.14A3.75,3.75,0,0,0,32,25.44a6.37,6.37,0,0,0-5.87-3,3,3,0,0,0-2-2.12,14.54,14.54,0,0,1,3.64-6c.09.1.17.21.27.31A8.09,8.09,0,0,0,33.8,17h.46a6.58,6.58,0,0,0,4.93-2.58c3.26-4.29,5.66-12.92,5.76-13.28a.75.75,0,0,0-.62-.94c-.44-.06-10.88-1.37-16.1,3a6.79,6.79,0,0,0-1,1A16.94,16.94,0,0,0,20.9,3.8a.75.75,0,0,0-.63,1,20.59,20.59,0,0,0,2.88,5.92A3.73,3.73,0,0,0,26,11.95l.33,0a8.54,8.54,0,0,0,.55,1.12,16,16,0,0,0-4.27,7.2,3,3,0,0,0-1.78,1.13,5.23,5.23,0,0,0-6,1.27,4.35,4.35,0,0,0-1.37-.22,4.5,4.5,0,0,0-4.43,3.75H7.67a3.37,3.37,0,0,0-2.8-1.5H3.37A3.38,3.38,0,0,0,0,28.06V41.55a3.38,3.38,0,0,0,3.37,3.37h1.5A3.34,3.34,0,0,0,7,44.18H26.46a6,6,0,0,0,3.12-.87l14-8.55a2.81,2.81,0,0,0-2.35-5.06"/><path class="cls-2" d="M17.13,26.92a.75.75,0,0,0,.88-.58,1.13,1.13,0,0,1,1.1-.9,1.11,1.11,0,0,1,.67.22.75.75,0,0,0,.9-1.2,2.6,2.6,0,0,0-1.57-.53A2.63,2.63,0,0,0,16.54,26a.75.75,0,0,0,.59.88"/><path class="cls-3" d="M25.15,27.17a.75.75,0,0,0,.75,0,1.13,1.13,0,0,1,1.41.14,1.11,1.11,0,0,1,.32.64.75.75,0,0,0,.74.64h.11a.75.75,0,0,0,.64-.85,2.62,2.62,0,0,0-4-1.82.75.75,0,0,0,.08,1.3"/></g></g></svg>