<svg xmlns="http://www.w3.org/2000/svg" xmlns:xlink="http://www.w3.org/1999/xlink" viewBox="0 0 44.92 44.92"><defs><style>.cls-1{fill:url(#New_Gradient_Swatch_5);}.cls-2{fill:url(#New_Gradient_Swatch_5-2);}.cls-3{fill:url(#New_Gradient_Swatch_5-3);}</style><linearGradient id="New_Gradient_Swatch_5" x1="-1.65" y1="-6.44" x2="55.85" y2="45.06" gradientUnits="userSpaceOnUse"><stop offset="0" stop-color="#cc3"/><stop offset="0.58" stop-color="#319d49"/><stop offset="1" stop-color="#12351c"/></linearGradient><linearGradient id="New_Gradient_Swatch_5-2" x1="-10.28" y1="3.19" x2="47.22" y2="54.69" xlink:href="#New_Gradient_Swatch_5"/><linearGradient id="New_Gradient_Swatch_5-3" x1="-2.12" y1="-5.91" x2="55.38" y2="45.59" xlink:href="#New_Gradient_Swatch_5"/></defs><title>Asset 33</title><g id="Layer_2" data-name="Layer 2"><g id="Layer_1-2" data-name="Layer 1"><path class="cls-1" d="M36.5,28.6a.88.88,0,1,0-.88-.88.88.88,0,0,0,.88.88"/><path class="cls-2" d="M30.36,43.17H26.85V26.85h3.51Zm-10.53,0H16.32V32.11h3.51Zm-10.53,0H5.79V35.62H9.3Zm34.75,0h-1.4V19a.88.88,0,0,0-.88-.88H36.5a.88.88,0,0,0-.88.88v5.26a.88.88,0,1,0,1.75,0V19.83h3.51V43.17H37.38V31.24a.88.88,0,1,0-1.75,0V43.17H32.11V26a.88.88,0,0,0-.88-.88H26a.88.88,0,0,0-.88.88v17.2H21.59V31.24a.88.88,0,0,0-.88-.88H15.44a.88.88,0,0,0-.88.88V43.17H11.06V34.75a.88.88,0,0,0-.88-.88H4.91a.88.88,0,0,0-.88.88v8.42H1.76V.88A.88.88,0,0,0,0,.88V44a.88.88,0,0,0,.88.88H44a.88.88,0,0,0,0-1.76"/><path class="cls-3" d="M37.33,7l-.4,2.68-2-1.39ZM8.24,27.71a.88.88,0,0,0,.36,1.72,43,43,0,0,0,27-18.51l1.45,1a.88.88,0,0,0,1.37-.59l.86-5.82A.88.88,0,0,0,38,4.62l-5.18,2.8a.88.88,0,0,0-.08,1.49l1.42,1A41.46,41.46,0,0,1,8.24,27.71"/></g></g></svg>