<svg xmlns="http://www.w3.org/2000/svg" xmlns:xlink="http://www.w3.org/1999/xlink" viewBox="0 0 42.91 44.93"><defs><style>.cls-1{fill:url(#New_Gradient_Swatch_5);}</style><linearGradient id="New_Gradient_Swatch_5" x1="-1.16" y1="7.05" x2="38.84" y2="52.55" gradientUnits="userSpaceOnUse"><stop offset="0" stop-color="#cc3"/><stop offset="0.58" stop-color="#319d49"/><stop offset="1" stop-color="#12351c"/></linearGradient></defs><title>Asset 37</title><g id="Layer_2" data-name="Layer 2"><g id="Layer_1-2" data-name="Layer 1"><path class="cls-1" d="M37.38,40H5.53a.4.4,0,0,1-.4-.39A3.43,3.43,0,0,1,8.56,36.2h25.8a3.43,3.43,0,0,1,3.42,3.42.4.4,0,0,1-.4.39M21.45,24.47A11,11,0,0,1,32.39,34.88H30.55a9,9,0,0,0-.92-3.48.66.66,0,0,0-1.18.58,7.7,7.7,0,0,1,.78,2.9H13.68A7.81,7.81,0,0,1,27.06,30a.66.66,0,1,0,.95-.91,9.12,9.12,0,0,0-15.64,5.79H10.51A11,11,0,0,1,21.45,24.47ZM19.63,11.6,18.44,4.92a3.07,3.07,0,1,1,6,0L23.29,11.6ZM40.45,40H39a1.72,1.72,0,0,0,0-.39,4.74,4.74,0,0,0-4.74-4.74h-.64a12.3,12.3,0,0,0-9.23-11.35V12.37l1.28-7.22a4.38,4.38,0,1,0-8.63,0l1.29,7.2v3.8a.66.66,0,1,0,1.32,0V12.91h3.42V23.27a12.26,12.26,0,0,0-3.42,0V18.79a.66.66,0,1,0-1.32,0v4.74A12.3,12.3,0,0,0,9.2,34.88H8.56a4.74,4.74,0,0,0-4.74,4.74,1.72,1.72,0,0,0,0,.4H2.46a2.46,2.46,0,0,0,0,4.91H9.74a.66.66,0,1,0,0-1.32H2.46a1.14,1.14,0,0,1,0-2.28h38a1.14,1.14,0,0,1,0,2.28H12.37a.66.66,0,0,0,0,1.32H40.45a2.46,2.46,0,0,0,0-4.91"/></g></g></svg>