<svg xmlns="http://www.w3.org/2000/svg" xmlns:xlink="http://www.w3.org/1999/xlink" viewBox="0 0 42.36 51.66"><defs><style>.cls-1{fill:url(#New_Gradient_Swatch_5);}.cls-2{fill:url(#New_Gradient_Swatch_5-2);}.cls-3{fill:url(#New_Gradient_Swatch_5-3);}.cls-4{fill:url(#New_Gradient_Swatch_5-4);}.cls-5{fill:url(#New_Gradient_Swatch_5-5);}.cls-6{fill:url(#New_Gradient_Swatch_5-6);}.cls-7{fill:url(#New_Gradient_Swatch_5-7);}.cls-8{fill:url(#New_Gradient_Swatch_5-8);}.cls-9{fill:url(#New_Gradient_Swatch_5-9);}.cls-10{fill:url(#New_Gradient_Swatch_5-10);}.cls-11{fill:url(#New_Gradient_Swatch_5-11);}.cls-12{fill:url(#New_Gradient_Swatch_5-12);}.cls-13{fill:url(#New_Gradient_Swatch_5-13);}</style><linearGradient id="New_Gradient_Swatch_5" x1="-0.72" y1="8.67" x2="40.78" y2="51.67" gradientUnits="userSpaceOnUse"><stop offset="0" stop-color="#cc3"/><stop offset="0.58" stop-color="#319d49"/><stop offset="1" stop-color="#12351c"/></linearGradient><linearGradient id="New_Gradient_Swatch_5-2" x1="4.37" y1="3.76" x2="45.87" y2="46.76" xlink:href="#New_Gradient_Swatch_5"/><linearGradient id="New_Gradient_Swatch_5-3" x1="13.76" y1="-5.31" x2="55.26" y2="37.69" xlink:href="#New_Gradient_Swatch_5"/><linearGradient id="New_Gradient_Swatch_5-4" x1="13.96" y1="-5.49" x2="55.46" y2="37.51" xlink:href="#New_Gradient_Swatch_5"/><linearGradient id="New_Gradient_Swatch_5-5" x1="-5.56" y1="13.34" x2="35.94" y2="56.34" xlink:href="#New_Gradient_Swatch_5"/><linearGradient id="New_Gradient_Swatch_5-6" x1="14.3" y1="-5.83" x2="55.8" y2="37.17" xlink:href="#New_Gradient_Swatch_5"/><linearGradient id="New_Gradient_Swatch_5-7" x1="-9.44" y1="17.09" x2="32.06" y2="60.09" xlink:href="#New_Gradient_Swatch_5"/><linearGradient id="New_Gradient_Swatch_5-8" x1="4.61" y1="3.52" x2="46.11" y2="46.52" xlink:href="#New_Gradient_Swatch_5"/><linearGradient id="New_Gradient_Swatch_5-9" x1="18.15" y1="-9.55" x2="59.65" y2="33.45" xlink:href="#New_Gradient_Swatch_5"/><linearGradient id="New_Gradient_Swatch_5-10" x1="4.12" y1="4" x2="45.62" y2="47" xlink:href="#New_Gradient_Swatch_5"/><linearGradient id="New_Gradient_Swatch_5-11" x1="4.37" y1="3.76" x2="45.87" y2="46.76" xlink:href="#New_Gradient_Swatch_5"/><linearGradient id="New_Gradient_Swatch_5-12" x1="4.37" y1="3.76" x2="45.87" y2="46.76" xlink:href="#New_Gradient_Swatch_5"/><linearGradient id="New_Gradient_Swatch_5-13" x1="4.37" y1="3.76" x2="45.87" y2="46.76" xlink:href="#New_Gradient_Swatch_5"/></defs><title>Asset 35</title><g id="Layer_2" data-name="Layer 2"><g id="Layer_1-2" data-name="Layer 1"><path class="cls-1" d="M23.87,48.09H18.48a2.8,2.8,0,0,0,5.39,0M21.17,44H15.33c-1.54,0-1.54,0-1.53,1.55,0,.81.2,1,1,1H27.05c1.5,0,1.5,0,1.5-1.53,0-.84-.19-1-1-1H21.17m0-4.11H15.25c-1.39,0-1.47.07-1.45,1.44,0,1,.18,1.16,1.19,1.16H27c1.56,0,1.59,0,1.58-1.57,0-.82-.22-1-1.06-1H21.2m-.53,11.8a4.87,4.87,0,0,1-2.57-1.29A4.07,4.07,0,0,1,17,48.48a.49.49,0,0,0-.59-.44c-.65,0-1.31,0-2,0a2.18,2.18,0,0,1-2.16-2.15c-.07-1.56,0-1.83.49-2.65a4.11,4.11,0,0,1-.24-3.63,2,2,0,0,1,.71-.82.73.73,0,0,0,.37-.69c0-1,0-2,0-3a.7.7,0,0,0-.37-.69A15.18,15.18,0,0,1,5.89,23.28,14.82,14.82,0,0,1,8.14,12.91a15.12,15.12,0,0,1,9.58-6.78c.47-.11,1-.19,1.44-.27a.79.79,0,0,1,1,.6c.08.44-.21.81-.75.88a13.38,13.38,0,0,0-5.6,2c-4.68,3.12-6.93,7.51-6.45,13.13A13.4,13.4,0,0,0,14,33.13a2.1,2.1,0,0,1,1.09,2c0,1.05,0,2.11,0,3.19H27.23V36.63c0-.52,0-1,0-1.56a2.11,2.11,0,0,1,1-1.9,25.55,25.55,0,0,0,3.08-2.5,13.09,13.09,0,0,0,3.59-7.19c0-.2.06-.4.11-.59a.77.77,0,0,1,.86-.67.76.76,0,0,1,.63.93,21.8,21.8,0,0,1-.56,2.55,15.21,15.21,0,0,1-6.7,8.65.88.88,0,0,0-.5.88c0,1,0,2,0,2.93a.8.8,0,0,0,.28.56,2.22,2.22,0,0,1,1,1.91c0,.88.16,1.8-.55,2.57.77.91.58,2,.51,3a2.1,2.1,0,0,1-2,1.84c-.74,0-1.48,0-2.22,0-.14,0-.38.12-.41.23a4.49,4.49,0,0,1-3.75,3.37Z"/><path class="cls-2" d="M27.11,14.17c-.33.36-.65.73-1,1.08A.88.88,0,0,1,25,15.4c-.79-.36-1.59-.69-2.41-1a.9.9,0,0,1-.7-1c0-.46,0-.93,0-1.41h-1.4c0,.5,0,1,0,1.43a.89.89,0,0,1-.73.94,25.37,25.37,0,0,0-2.36,1,.91.91,0,0,1-1.22-.18l-.88-1-1.06,1,1,1a.89.89,0,0,1,.16,1.14c-.37.8-.7,1.63-1,2.45a.86.86,0,0,1-.88.67H12v1.4c.49,0,1,0,1.43,0a.89.89,0,0,1,.95.72c.29.8.61,1.59,1,2.36a.91.91,0,0,1-.18,1.22c-.35.31-.71.61-1,.88l1.07,1.11,1-1A.9.9,0,0,1,17.4,27c.77.36,1.56.69,2.36,1a.9.9,0,0,1,.73.94c0,.48,0,1,0,1.42h1.4c0-.51,0-1,0-1.45a.88.88,0,0,1,.7-.91c.8-.29,1.59-.61,2.36-1,.53-.25.81-.26,1.22.16s.63.7.93,1l1.09-1.09-1-.95A.9.9,0,0,1,27,25c.36-.77.69-1.56,1-2.36.17-.47.41-.75.94-.73s1,0,1.43,0v-1.4c-.51,0-1,0-1.44,0a.88.88,0,0,1-.92-.7c-.3-.81-.62-1.62-1-2.41a.9.9,0,0,1,.17-1.18l1.06-1-1.08-1.07m2.78,13a6.14,6.14,0,0,1-.55.95,16.3,16.3,0,0,1-1.2,1.22,1.2,1.2,0,0,1-1.9,0,1.33,1.33,0,0,0-1.85-.39c-.82.34-1.07.7-1,1.54a1.19,1.19,0,0,1-1.21,1.38,12.89,12.89,0,0,1-2,0A1.17,1.17,0,0,1,19,30.51a1.27,1.27,0,0,0-1.09-1.58c-1-.28-1-.38-1.7.34a1.28,1.28,0,0,1-2,0q-.56-.54-1.11-1.11a1.22,1.22,0,0,1,0-2,1.31,1.31,0,0,0,.36-1.81,1.31,1.31,0,0,0-1.54-1A1.23,1.23,0,0,1,10.5,22c0-.55,0-1.11,0-1.66,0-.88.52-1.42,1.4-1.35s1.2-.2,1.54-1a1.3,1.3,0,0,0-.36-1.81,1.22,1.22,0,0,1,0-2c.39-.4.77-.8,1.18-1.18a1.18,1.18,0,0,1,1.86,0,1.29,1.29,0,0,0,1.93.35C18.9,12.88,19,13,19,12a1.33,1.33,0,0,1,1.51-1.52h1.46c.94,0,1.49.5,1.42,1.43s.22,1.17,1,1.49a1.33,1.33,0,0,0,1.85-.37,1.19,1.19,0,0,1,1.9,0c.41.39.82.8,1.21,1.21a1.19,1.19,0,0,1,0,1.9c-.69.57-.7,1-.36,1.85s.66,1.07,1.5,1,1.4.47,1.43,1.37c0,.54,0,1.08,0,1.61,0,.91-.51,1.46-1.41,1.39a1.23,1.23,0,0,0-1.51,1c-.3,1-.37,1,.33,1.74a6.42,6.42,0,0,1,.62,1"/><path class="cls-3" d="M23.05,5.71A37.16,37.16,0,0,1,27,6.89a15.21,15.21,0,0,1,9.29,11c.1.41.16.83.22,1.24a.8.8,0,0,1-.62,1c-.42.08-.8-.22-.88-.76a14,14,0,0,0-2.28-6,13.68,13.68,0,0,0-9.18-5.92c-.25,0-.5-.07-.74-.14a.72.72,0,0,1-.6-.81A.75.75,0,0,1,23,5.84l0-.13"/><path class="cls-4" d="M20.43,2c0-.4,0-.81,0-1.21A.74.74,0,0,1,21.19,0a.72.72,0,0,1,.73.75c0,.84,0,1.68,0,2.52a.71.71,0,0,1-.75.72.72.72,0,0,1-.72-.7,1.27,1.27,0,0,1,0-.15c0-.39,0-.77,0-1.16h0"/><path class="cls-5" d="M2,21.92c-.42,0-.84,0-1.26,0A.73.73,0,0,1,0,21.17a.69.69,0,0,1,.69-.73c.87,0,1.74,0,2.61,0a.69.69,0,0,1,.68.73.72.72,0,0,1-.74.73c-.42,0-.84,0-1.26,0"/><path class="cls-6" d="M40.37,21.92c-.42,0-.84,0-1.26,0a.72.72,0,0,1-.74-.73.69.69,0,0,1,.68-.74c.87,0,1.74,0,2.61,0a.71.71,0,0,1,.69.77.73.73,0,0,1-.78.7H40.37"/><path class="cls-7" d="M9.34,33.8a3.75,3.75,0,0,1-.39.66c-.52.55-1.05,1.08-1.6,1.6A.76.76,0,1,1,6.28,35c.54-.55,1.06-1.12,1.65-1.62a1.09,1.09,0,0,1,.85-.18c.21.05.36.37.56.59"/><path class="cls-8" d="M35.69,36.45a3.38,3.38,0,0,1-.67-.37c-.55-.52-1.08-1.05-1.61-1.6a.76.76,0,0,1-.08-1.16c.33-.33.74-.3,1.15.1s1.12,1.06,1.62,1.65a1.12,1.12,0,0,1,.15.86c0,.2-.36.33-.57.51"/><path class="cls-9" d="M36.46,6.66a3.54,3.54,0,0,1-.38.67c-.52.55-1.06,1.08-1.6,1.61A.76.76,0,0,1,33.33,9c-.33-.33-.3-.75.1-1.16s1.07-1.12,1.65-1.62a1,1,0,0,1,.81-.17c.22.06.37.37.57.58"/><path class="cls-10" d="M6.71,5.89a4.36,4.36,0,0,1,.65.41c.54.51,1.06,1,1.57,1.56S9.35,8.69,9,9a.76.76,0,0,1-1.16-.09c-.55-.54-1.12-1.06-1.62-1.65a1.07,1.07,0,0,1-.15-.86c.06-.21.39-.34.62-.53"/><path class="cls-11" d="M21.17,17.44a3.74,3.74,0,1,0,3.75,3.69,3.74,3.74,0,0,0-3.75-3.69m-5.25,3.73a5.26,5.26,0,1,1,5.2,5.27,5.28,5.28,0,0,1-5.2-5.27"/><path class="cls-12" d="M22.46,21.21c-.07-.29,0-.65-.21-.8a1.88,1.88,0,0,0-1.08-.58,2,2,0,0,0-1.08.59c-.13.11-.12.43-.12.65s0,.68.12.85a1.79,1.79,0,0,0,1.07.59,1.94,1.94,0,0,0,1.08-.57c.16-.14.14-.48.21-.73m-4-.07c-.27-1.19.36-1.78,1.32-2.36a2.16,2.16,0,0,1,2.8,0,3.6,3.6,0,0,0,.61.36,1.29,1.29,0,0,1,.75,1.31c0,.52,0,1,0,1.56a1.13,1.13,0,0,1-.57,1.05c-.52.32-1,.61-1.57.91a1.17,1.17,0,0,1-1.2,0c-.43-.24-.83-.51-1.27-.73a1.39,1.39,0,0,1-.85-1.5c0-.2,0-.4,0-.61"/><path class="cls-13" d="M21.91,21.19a.74.74,0,1,1-.71-.74.7.7,0,0,1,.71.74"/></g></g></svg>