<?xml version="1.0" encoding="UTF-8"?>
<svg version="1.1" xmlns="http://www.w3.org/2000/svg" width="2000" height="489">
<path d="M0 0 C0.66 0 1.32 0 2 0 C23.99297423 43.4387217 39.71993449 94.91133139 24.375 143.0625 C18.04314821 161.46320912 6.87699643 177.03975908 -4 193 C-13.98792257 207.67812624 -23.48330705 222.41626396 -32 238 C-32.44037598 238.79180664 -32.88075195 239.58361328 -33.33447266 240.39941406 C-51.37012038 272.86761328 -63.42992413 308.53861128 -53.69335938 345.64990234 C-47.50965237 366.60918531 -34.59142708 383.96096544 -15.64453125 394.9453125 C0.97188069 403.76067866 18.38890039 405.71200288 36.3984375 400.3515625 C42.15696212 398.19055435 49.60805144 395.39194856 54 391 C52.93523437 390.98582031 51.87046875 390.97164063 50.7734375 390.95703125 C35.63563512 390.54832813 23.76624022 386.93978136 12 377 C11.35546875 376.46761719 10.7109375 375.93523437 10.046875 375.38671875 C-4.00907307 362.62872985 -11.09146627 341.27946719 -12.19287109 322.75634766 C-12.96236281 290.83410053 -7.31026089 262.26894577 8 234 C8.34256836 233.35111816 8.68513672 232.70223633 9.03808594 232.03369141 C13.59744845 223.40574584 18.70288297 215.41148716 24.40820312 207.49853516 C45.0806427 178.6766364 60.5835969 147.25952545 56 111 C59.01307471 113.82013941 61.19071819 116.63966864 63.328125 120.1640625 C63.95468994 121.19015625 64.58125488 122.21625 65.22680664 123.2734375 C65.89446045 124.37945312 66.56211426 125.48546875 67.25 126.625 C67.95964584 127.79200692 68.66986129 128.95866763 69.38061523 130.125 C70.48416427 131.93628953 71.58716982 133.74789217 72.68797302 135.56085205 C75.13080049 139.58297876 77.59799226 143.58906274 80.08203125 147.5859375 C94.75383079 171.20189866 108.50701416 195.15953731 121 220 C121.40299316 220.79132324 121.80598633 221.58264648 122.22119141 222.39794922 C132.71655381 243.09911406 140.34111192 265.28043523 145 288 C145.26466064 289.27689697 145.26466064 289.27689697 145.53466797 290.57958984 C153.9481624 333.1807227 146.57685366 381.27744915 123 418 C101.94979746 449.17990645 70.61443321 469.06969437 33.875 476.375 C22.89736859 478.31539337 11.86360432 478.39858267 0.75 478.4375 C-0.50469086 478.44689606 -0.50469086 478.44689606 -1.784729 478.45648193 C-17.35162041 478.53015013 -32.94487349 477.10042313 -47.875 472.4375 C-48.68469238 472.18774414 -49.49438477 471.93798828 -50.32861328 471.68066406 C-70.56601378 465.12242689 -87.6773599 454.67005747 -103 440 C-103.74636719 439.31679688 -104.49273437 438.63359375 -105.26171875 437.9296875 C-131.71914247 412.90364273 -145.20874526 373.08796537 -146.28959656 337.36514282 C-146.36891504 333.43055963 -146.3851976 329.49778808 -146.375 325.5625 C-146.37412384 324.73095398 -146.37324768 323.89940796 -146.37234497 323.04266357 C-146.17123236 264.9176388 -117.75721616 210.82125773 -88.73925781 161.93457031 C-87.04362459 159.07360579 -85.35981478 156.20603016 -83.6796875 153.3359375 C-77.37363236 142.5804419 -70.9069317 131.9372005 -64.3203125 121.3515625 C-58.47289495 111.94635792 -52.7375198 102.47249346 -47 93 C-46.47519043 92.13487793 -45.95038086 91.26975586 -45.40966797 90.37841797 C-35.01658869 73.23033191 -24.61786043 56.04829054 -15.93994141 37.95361328 C-14.96632382 35.93000603 -13.97390062 33.91628813 -12.98046875 31.90234375 C-7.91668254 21.51772023 -3.82733214 10.8959362 0 0 Z " fill="#559447" transform="translate(153,4)"/>
<path d="M0 0 C3.01307471 2.82013941 5.19071819 5.63966864 7.328125 9.1640625 C7.95468994 10.19015625 8.58125488 11.21625 9.22680664 12.2734375 C9.89446045 13.37945312 10.56211426 14.48546875 11.25 15.625 C11.95964584 16.79200692 12.66986129 17.95866763 13.38061523 19.125 C14.48416427 20.93628953 15.58716982 22.74789217 16.68797302 24.56085205 C19.13080049 28.58297876 21.59799226 32.58906274 24.08203125 36.5859375 C32.82079629 50.65449457 41.28644278 64.84941911 49.4375 79.26660156 C50.74943853 81.56167403 52.09431273 83.82809925 53.46875 86.0859375 C62.90302366 101.95207625 65.89498496 121.11573801 69.85839844 138.91943359 C71.51408663 146.24871818 73.54122001 153.28428499 76.1171875 160.33984375 C77 163 77 163 77 166 C76.01 166.33 75.02 166.66 74 167 C74.01571045 168.68403931 74.01571045 168.68403931 74.03173828 170.40209961 C74.06852791 174.65336795 74.09110994 178.90462294 74.10986328 183.15600586 C74.11978893 184.97992332 74.13333383 186.80382546 74.15087891 188.62768555 C74.45034438 220.60883685 68.69851732 250.48487639 54 279 C53.34 279 52.68 279 52 279 C51.90203125 279.55816406 51.8040625 280.11632812 51.703125 280.69140625 C47.09267101 295.82906351 28.29235441 309.80550104 15 317 C2.52367632 323.18439711 -10.83320248 327.37102987 -24.5625 329.625 C-25.86316406 329.84414063 -27.16382813 330.06328125 -28.50390625 330.2890625 C-32 330 -32 330 -33.49462891 328.76171875 C-34.75539449 327.24676282 -35.88323308 325.6240237 -37 324 C-38.11375 322.88625 -38.11375 322.88625 -39.25 321.75 C-47.31375817 313.68624183 -55.48123165 305.12213714 -59 294 C-58.625 291.6875 -58.625 291.6875 -58 290 C-57.47535156 290.144375 -56.95070312 290.28875 -56.41015625 290.4375 C-38.28354192 294.78064886 -21.4561327 291.60220678 -5.4140625 282.48828125 C-3.13358389 281.21052736 -3.13358389 281.21052736 -2 280 C-3.06476563 279.98582031 -4.12953125 279.97164063 -5.2265625 279.95703125 C-20.36436488 279.54832813 -32.23375978 275.93978136 -44 266 C-44.64453125 265.46761719 -45.2890625 264.93523437 -45.953125 264.38671875 C-60.00907307 251.62872985 -67.09146627 230.27946719 -68.19287109 211.75634766 C-68.96236281 179.83410053 -63.31026089 151.26894577 -48 123 C-47.65743164 122.35111816 -47.31486328 121.70223633 -46.96191406 121.03369141 C-42.40255155 112.40574584 -37.29711703 104.41148716 -31.59179688 96.49853516 C-10.9193573 67.6766364 4.5835969 36.25952545 0 0 Z " fill="#82AD53" transform="translate(209,115)"/>
<path d="M0 0 C0.66 0 1.32 0 2 0 C22.4512401 40.39361471 40.23336927 92.18818432 25.8984375 137.48046875 C25.45371094 138.72763672 25.45371094 138.72763672 25 140 C24.34 140 23.68 140 23 140 C22.73832031 140.58910156 22.47664062 141.17820313 22.20703125 141.78515625 C20.9357725 144.11785434 19.59769469 145.60354368 17.6875 147.4375 C16.74777344 148.35208984 16.74777344 148.35208984 15.7890625 149.28515625 C15.19867188 149.85105469 14.60828125 150.41695312 14 151 C10.90759789 154.01310974 8.01627642 157.11695401 5.1875 160.375 C2.05354667 163.92408521 -1.20096141 167.07461678 -4.8125 170.12890625 C-7.37083677 172.31719788 -9.83729489 174.59317029 -12.3125 176.875 C-15.99013168 180.23726077 -19.73688312 183.44656857 -23.625 186.5625 C-27.99736667 190.08900342 -31.95479135 193.84579649 -35.87109375 197.8671875 C-38.53950477 200.54049469 -41.3666277 202.98883335 -44.2265625 205.453125 C-52.33911181 212.44831852 -52.33911181 212.44831852 -57.92578125 221.38671875 C-59.20090772 224.48875368 -60.91813048 226.68413974 -63 229.3125 C-86.73031433 260.11110979 -102.84858773 297.16501833 -111 335 C-111.17934082 335.8048584 -111.35868164 336.6097168 -111.54345703 337.43896484 C-116.7036975 361.48763268 -116.0943165 389.48741177 -109.8984375 413.23828125 C-109 417 -109 417 -109 421 C-108.34 421.33 -107.68 421.66 -107 422 C-106.25390625 423.96875 -106.25390625 423.96875 -105.5625 426.5 C-104.18234387 431.38687936 -102.63689986 436.19378339 -101 441 C-128.3479515 418.77978941 -140.60320085 382.83331505 -145.58203125 349.05078125 C-152.55746957 280.93680835 -122.64611712 219.05761159 -88.73925781 161.93457031 C-87.04362459 159.07360579 -85.35981478 156.20603016 -83.6796875 153.3359375 C-77.37363236 142.5804419 -70.9069317 131.9372005 -64.3203125 121.3515625 C-58.47289495 111.94635792 -52.7375198 102.47249346 -47 93 C-46.47519043 92.13487793 -45.95038086 91.26975586 -45.40966797 90.37841797 C-35.01658869 73.23033191 -24.61786043 56.04829054 -15.93994141 37.95361328 C-14.96632382 35.93000603 -13.97390062 33.91628813 -12.98046875 31.90234375 C-7.91668254 21.51772023 -3.82733214 10.8959362 0 0 Z M-60 219 C-62.31 221.31 -64.62 223.62 -67 226 C-66.67 226.66 -66.34 227.32 -66 228 C-63.36 225.36 -60.72 222.72 -58 220 C-58.66 219.67 -59.32 219.34 -60 219 Z " fill="#75AC5E" transform="translate(153,4)"/>
<path d="M0 0 C13.95780439 11.15137501 13.95780439 11.15137501 15.68359375 19.59375 C15.73662393 23.76798287 15.30871253 28.25268974 12.68359375 31.59375 C7.97065666 34.89280596 3.56695261 36.86562425 -2.31640625 36.59375 C-8.49815293 35.42367064 -12.07483217 33.28180556 -16.31640625 28.59375 C-17.56939973 27.67312953 -18.84116139 26.77759832 -20.12890625 25.90625 C-21.18078125 25.143125 -22.23265625 24.38 -23.31640625 23.59375 C-23.31640625 22.93375 -23.31640625 22.27375 -23.31640625 21.59375 C-27.0419555 20.05929372 -30.80268256 18.73014242 -34.62890625 17.46875 C-36.23185547 16.93894531 -36.23185547 16.93894531 -37.8671875 16.3984375 C-38.67542969 16.13289063 -39.48367188 15.86734375 -40.31640625 15.59375 C-40.31640625 14.93375 -40.31640625 14.27375 -40.31640625 13.59375 C-56.63013923 12.30673908 -70.1863849 12.5586283 -85.31640625 19.59375 C-86.97894084 20.27065542 -88.64437313 20.9406593 -90.31640625 21.59375 C-90.31640625 22.25375 -90.31640625 22.91375 -90.31640625 23.59375 C-91.24453125 24.191875 -92.17265625 24.79 -93.12890625 25.40625 C-96.41346248 27.66035722 -97.44116483 29.18422015 -99.31640625 32.59375 C-99.94804688 33.16609375 -100.5796875 33.7384375 -101.23046875 34.328125 C-103.81261098 37.13269895 -104.77925795 39.76833806 -106.06640625 43.34375 C-106.494375 44.51421875 -106.92234375 45.6846875 -107.36328125 46.890625 C-107.83507813 48.22867188 -107.83507813 48.22867188 -108.31640625 49.59375 C-108.97640625 49.59375 -109.63640625 49.59375 -110.31640625 49.59375 C-112.6000606 63.41801471 -113.90653324 77.63694444 -110.75390625 91.4296875 C-110.31640625 93.59375 -110.31640625 93.59375 -110.31640625 97.59375 C-109.65640625 97.59375 -108.99640625 97.59375 -108.31640625 97.59375 C-108.06246094 98.24601562 -107.80851562 98.89828125 -107.546875 99.5703125 C-106.49027306 102.25336911 -105.40744421 104.92453166 -104.31640625 107.59375 C-103.90390625 108.604375 -103.49140625 109.615 -103.06640625 110.65625 C-99.2948922 116.98700572 -94.66259526 121.89010593 -88.31640625 125.59375 C-87.82914063 126.10808594 -87.341875 126.62242187 -86.83984375 127.15234375 C-84.75755175 129.12251234 -82.64477543 129.74154837 -79.94140625 130.65625 C-74.40291241 132.55581607 -74.40291241 132.55581607 -71.90234375 133.65234375 C-65.89178059 135.84047928 -59.68541779 135.72650249 -53.37890625 135.65625 C-52.59966797 135.65173828 -51.82042969 135.64722656 -51.01757812 135.64257812 C-49.11715357 135.63091908 -47.21676919 135.61298877 -45.31640625 135.59375 C-45.31640625 134.93375 -45.31640625 134.27375 -45.31640625 133.59375 C-44.44757813 133.32820312 -43.57875 133.06265625 -42.68359375 132.7890625 C-40.95496094 132.25925781 -40.95496094 132.25925781 -39.19140625 131.71875 C-38.05445313 131.37070312 -36.9175 131.02265625 -35.74609375 130.6640625 C-32.58888961 129.67878467 -29.45013019 128.65102464 -26.31640625 127.59375 C-26.31640625 126.93375 -26.31640625 126.27375 -26.31640625 125.59375 C-24.41796875 124.19140625 -24.41796875 124.19140625 -21.94140625 122.65625 C-18.83430379 120.72787371 -17.3849191 119.69651927 -15.31640625 116.59375 C-14.94796117 113.7851457 -14.94796117 113.7851457 -14.90234375 110.61328125 C-14.84433594 108.86821289 -14.84433594 108.86821289 -14.78515625 107.08789062 C-14.75421875 105.87294922 -14.72328125 104.65800781 -14.69140625 103.40625 C-14.63339844 101.56643555 -14.63339844 101.56643555 -14.57421875 99.68945312 C-14.47984522 96.65770344 -14.39426076 93.62596159 -14.31640625 90.59375 C-14.86906662 90.58566315 -15.42172699 90.57757629 -15.99113464 90.56924438 C-21.75026211 90.48309687 -27.50904941 90.3835889 -33.26782227 90.27636719 C-35.41620159 90.23811615 -37.56464412 90.20325653 -39.71313477 90.171875 C-42.80377771 90.12614063 -45.89398706 90.06815944 -48.984375 90.0078125 C-49.94288864 89.99626129 -50.90140228 89.98471008 -51.88896179 89.97280884 C-60.43119112 89.78433481 -60.43119112 89.78433481 -64.31640625 87.59375 C-67.67089671 83.95173178 -69.97271952 80.75406656 -70.75390625 75.84375 C-70.15460409 71.3917911 -68.21408705 68.0138296 -65.31640625 64.59375 C-64.32640625 64.26375 -63.33640625 63.93375 -62.31640625 63.59375 C-62.31640625 62.93375 -62.31640625 62.27375 -62.31640625 61.59375 C-58.92835013 60.46439796 -56.35339843 60.46673907 -52.78125 60.46435547 C-52.122388 60.46260315 -51.463526 60.46085083 -50.78469849 60.45904541 C-48.60774091 60.45464573 -46.43086464 60.45755826 -44.25390625 60.4609375 C-42.74080388 60.46026392 -41.22770161 60.45929344 -39.71459961 60.45803833 C-36.54377207 60.45656391 -33.3729727 60.45870771 -30.20214844 60.46337891 C-26.13662982 60.46907604 -22.07117721 60.46579568 -18.00566101 60.45980644 C-14.8813019 60.45619394 -11.75695846 60.4573426 -8.63259888 60.45993423 C-7.13347363 60.46060159 -5.63434697 60.45978174 -4.13522339 60.45745468 C-2.0406314 60.45491688 0.05385349 60.45878468 2.1484375 60.46435547 C3.34073975 60.46515106 4.53304199 60.46594666 5.76147461 60.46676636 C8.68359375 60.59375 8.68359375 60.59375 11.68359375 61.59375 C11.68359375 62.25375 11.68359375 62.91375 11.68359375 63.59375 C12.30234375 63.8825 12.92109375 64.17125 13.55859375 64.46875 C17.29447551 66.44656976 18.3869936 68.68697839 19.68359375 72.59375 C19.95774841 75.07061768 19.95774841 75.07061768 19.98999023 77.70019531 C20.00597763 78.69182678 20.02196503 79.68345825 20.03843689 80.70513916 C20.04379959 81.76666199 20.04916229 82.82818481 20.0546875 83.921875 C20.06371597 85.02545349 20.07274445 86.12903198 20.08204651 87.26605225 C20.0965389 89.59937838 20.10543322 91.93274507 20.10913086 94.26611328 C20.12100577 97.81743761 20.17018639 101.36701196 20.22070312 104.91796875 C20.23017049 107.19009573 20.23740402 109.46223333 20.2421875 111.734375 C20.26171982 112.7878009 20.28125214 113.84122681 20.30137634 114.92657471 C20.25132784 123.19622873 17.91739122 128.58436696 12.76171875 134.9765625 C1.42724334 145.77822069 1.42724334 145.77822069 -4.39453125 148.6015625 C-6.36595685 149.48919281 -6.36595685 149.48919281 -7.72265625 151.05078125 C-9.85317179 153.11341272 -12.11686416 154.07298721 -14.81640625 155.28125 C-15.77546875 155.71824219 -16.73453125 156.15523437 -17.72265625 156.60546875 C-20.31640625 157.59375 -20.31640625 157.59375 -23.31640625 157.59375 C-23.31640625 158.25375 -23.31640625 158.91375 -23.31640625 159.59375 C-26.35686605 160.41081167 -29.39897308 161.2215702 -32.44140625 162.03125 C-33.7253125 162.37639648 -33.7253125 162.37639648 -35.03515625 162.72851562 C-55.10055221 168.05356301 -76.76586731 166.65101771 -96.31640625 159.59375 C-96.31640625 158.93375 -96.31640625 158.27375 -96.31640625 157.59375 C-96.89648438 157.41199219 -97.4765625 157.23023438 -98.07421875 157.04296875 C-105.51379601 154.64904537 -110.78575113 152.26621679 -116.31640625 146.59375 C-117.095 146.15804687 -117.87359375 145.72234375 -118.67578125 145.2734375 C-121.78997322 143.29251657 -123.689868 141.08674308 -126.00390625 138.21875 C-127.15439453 136.81496094 -127.15439453 136.81496094 -128.328125 135.3828125 C-130.16015637 132.81292959 -131.30570741 130.56639366 -132.31640625 127.59375 C-132.97640625 127.59375 -133.63640625 127.59375 -134.31640625 127.59375 C-135.53321694 124.92574296 -136.74629025 122.2563384 -137.94921875 119.58203125 C-138.74784575 117.83646081 -139.56665047 116.09938643 -140.43359375 114.38671875 C-150.62263942 93.73218043 -149.51755181 63.28895995 -143.34375 41.51171875 C-139.34390606 30.15094528 -133.96494919 20.89830774 -126.31640625 11.59375 C-125.76855469 10.89378906 -125.22070312 10.19382813 -124.65625 9.47265625 C-121.33135468 5.34978605 -117.79407028 2.43534448 -113.31640625 -0.40625 C-112.65640625 -0.40625 -111.99640625 -0.40625 -111.31640625 -0.40625 C-111.31640625 -1.06625 -111.31640625 -1.72625 -111.31640625 -2.40625 C-101.90564581 -7.83654874 -93.00982933 -12.00350088 -82.31640625 -14.40625 C-81.60983887 -14.58067627 -80.90327148 -14.75510254 -80.17529297 -14.93481445 C-53.27659513 -21.08568305 -22.29136545 -16.61535464 0 0 Z " fill="#289746" transform="translate(1374.31640625,170.40625)"/>
<path d="M0 0 C1.17950729 -0.00637985 2.35901459 -0.0127597 3.57426453 -0.01933289 C4.8398671 -0.02044571 6.10546967 -0.02155853 7.40942383 -0.02270508 C8.7453871 -0.02592711 10.08135004 -0.02929185 11.41731262 -0.03279114 C14.2205995 -0.03876906 17.02385564 -0.04063289 19.82714844 -0.04003906 C22.66347723 -0.03995844 25.49964234 -0.04679803 28.3359375 -0.06054688 C66.42743695 -0.24232341 66.42743695 -0.24232341 82.92895508 4.14526367 C82.92895508 4.80526367 82.92895508 5.46526367 82.92895508 6.14526367 C83.71270508 6.20713867 84.49645508 6.26901367 85.30395508 6.33276367 C90.28184301 7.44849717 94.45349202 9.74832595 98.92895508 12.14526367 C98.92895508 12.80526367 98.92895508 13.46526367 98.92895508 14.14526367 C99.60958008 14.31026367 100.29020508 14.47526367 100.99145508 14.64526367 C104.64724804 16.51205157 106.59983758 18.93714404 109.18286133 22.07495117 C110.90455552 24.19001738 110.90455552 24.19001738 112.95239258 26.08666992 C123.50096878 37.07303288 125.26602601 53.64563602 125.08129883 68.15698242 C124.3210236 83.07007334 120.45658032 96.42906603 110.55395508 107.89526367 C100.92895508 116.14526367 100.92895508 116.14526367 97.92895508 116.14526367 C97.92895508 116.80526367 97.92895508 117.46526367 97.92895508 118.14526367 C96.05750812 118.96591436 94.18161172 119.77642207 92.30395508 120.58276367 C91.25981445 121.03522461 90.21567383 121.48768555 89.13989258 121.95385742 C86.04210257 123.10328072 83.19685454 123.7183759 79.92895508 124.14526367 C79.92895508 124.80526367 79.92895508 125.46526367 79.92895508 126.14526367 C64.75144288 128.97271816 50.09054957 129.51778659 34.67895508 129.33276367 C32.45761014 129.31766684 30.2362551 129.30398741 28.01489258 129.29174805 C22.65268734 129.25919118 17.29087094 129.20940073 11.92895508 129.14526367 C11.94990234 130.25973877 11.97084961 131.37421387 11.99243164 132.52246094 C12.06514915 136.68020646 12.11086953 140.8378964 12.14868164 144.99609375 C12.16872509 146.79143749 12.19596759 148.58671654 12.23071289 150.38183594 C12.27955357 152.97111017 12.30199628 155.55951708 12.31958008 158.14916992 C12.34022522 158.94424454 12.36087036 159.73931915 12.38214111 160.55848694 C12.38439457 166.22905905 11.17784375 169.4750794 7.92895508 174.14526367 C2.5240741 178.44145112 -4.50457149 177.75590388 -11.07104492 177.14526367 C-15.90865154 175.53272813 -18.25059091 173.34845683 -21.07104492 169.14526367 C-21.5772028 166.0480051 -21.5772028 166.0480051 -21.58570862 162.51014709 C-21.59265415 161.85673999 -21.59959967 161.20333288 -21.60675567 160.53012556 C-21.62500197 158.3481835 -21.6147691 156.16733169 -21.60449219 153.98535156 C-21.61155195 152.41800627 -21.62029721 150.85066779 -21.63059998 149.28334045 C-21.65309806 145.0311914 -21.65015329 140.77941449 -21.64127851 136.52722859 C-21.63616748 132.9759835 -21.64346214 129.42480828 -21.65075058 125.87357038 C-21.66775105 117.49507853 -21.66418245 109.1167688 -21.64746094 100.73828125 C-21.63053921 92.09769519 -21.64637435 83.4576143 -21.67868382 74.81708342 C-21.7053837 67.3952562 -21.71265467 59.97358621 -21.70416874 52.55171579 C-21.69924067 48.12041827 -21.70144845 43.6894247 -21.72195625 39.25816536 C-21.74031976 35.09074642 -21.73434709 30.92405378 -21.70975685 26.75667381 C-21.704751 25.22887662 -21.70823301 23.70102402 -21.7209053 22.17327118 C-21.82006029 9.19038807 -21.82006029 9.19038807 -18.6526947 5.27171326 C-12.91520064 0.54586239 -7.33726567 0.02713271 0 0 Z M11.92895508 30.14526367 C11.92895508 52.91526367 11.92895508 75.68526367 11.92895508 99.14526367 C23.68520508 99.23807617 23.68520508 99.23807617 35.67895508 99.33276367 C38.12785156 99.36007568 40.57674805 99.3873877 43.09985352 99.41552734 C45.07934072 99.42430363 47.05883341 99.43194485 49.03833008 99.43823242 C50.53323975 99.46125427 50.53323975 99.46125427 52.05834961 99.48474121 C60.67323277 99.48788533 69.26455657 98.30920829 76.92895508 94.14526367 C76.92895508 93.48526367 76.92895508 92.82526367 76.92895508 92.14526367 C77.67790039 91.90291992 78.4268457 91.66057617 79.19848633 91.41088867 C84.56164689 88.92496017 87.85232583 83.44533525 90.30395508 78.20776367 C92.54562165 67.22359749 92.66932389 56.13430452 86.92895508 46.14526367 C79.71301463 36.55247499 72.66538121 31.99075073 60.92895508 30.14526367 C57.0593167 29.89661186 53.20759292 29.91075772 49.33129883 29.94995117 C47.90001648 29.95297241 47.90001648 29.95297241 46.43981934 29.95605469 C42.91531486 29.96642624 39.39087954 29.99434794 35.86645508 30.02026367 C24.01739258 30.08213867 24.01739258 30.08213867 11.92895508 30.14526367 Z " fill="#C1D32D" transform="translate(360.071044921875,155.854736328125)"/>
<path d="M0 0 C0 0.66 0 1.32 0 2 C0.72832031 2.12375 1.45664063 2.2475 2.20703125 2.375 C13.92373048 4.99691871 23.40707986 13.93464066 30.33984375 23.375 C38.98640001 37.04673131 42.18742597 50.99782619 42.375 67.0625 C42.38909912 67.95533691 42.40319824 68.84817383 42.41772461 69.76806641 C42.37964817 74.86066901 42.0780016 78.73365601 39 83 C33.77276461 86.42015893 29.25622254 86.41245293 23.23095703 86.34057617 C22.26447739 86.34101425 21.29799774 86.34145233 20.30223083 86.34190369 C17.12054968 86.33982041 13.93940115 86.31651074 10.7578125 86.29296875 C8.54678638 86.28737117 6.33575652 86.28310183 4.12472534 86.28010559 C-1.68516371 86.26866967 -7.49482657 86.23921303 -13.30462646 86.20599365 C-19.23690735 86.1752659 -25.16922491 86.16159446 -31.1015625 86.14648438 C-42.73447419 86.11434233 -54.36721826 86.06316093 -66 86 C-65.11860227 88.06871014 -64.21918929 90.12974925 -63.3125 92.1875 C-62.81363281 93.33605469 -62.31476563 94.48460937 -61.80078125 95.66796875 C-59.93431481 99.12153897 -57.81329195 101.30173191 -55 104 C-55 104.66 -55 105.32 -55 106 C-54.28457031 106.28617187 -53.56914063 106.57234375 -52.83203125 106.8671875 C-48.5546875 108.578125 -44.27734375 110.2890625 -40 112 C-40 112.66 -40 113.32 -40 114 C-23.21257565 114.90529528 -9.2513593 114.40319203 4 103 C9.56135821 99.7513923 14.81132105 99.47645118 21 101 C23.9375 102.1875 23.9375 102.1875 26 104 C27.3125 107.1875 27.3125 107.1875 28 110 C28.66 110 29.32 110 30 110 C30.50518346 116.31479327 30.17541226 119.9217959 26 125 C25.278125 126.010625 24.55625 127.02125 23.8125 128.0625 C20.65100604 131.80689441 16.43458001 134.03101162 12 136 C11.34 136 10.68 136 10 136 C10 136.66 10 137.32 10 138 C8.06530224 138.63362121 6.12703261 139.25633651 4.1875 139.875 C2.56908203 140.39707031 2.56908203 140.39707031 0.91796875 140.9296875 C-7.82326353 143.46038056 -16.48480121 144.38841312 -25.5625 144.375 C-26.59810059 144.37483887 -27.63370117 144.37467773 -28.70068359 144.37451172 C-40.33520585 144.20428538 -51.02594398 141.79476703 -62 138 C-62 137.34 -62 136.68 -62 136 C-63.2684375 135.62875 -63.2684375 135.62875 -64.5625 135.25 C-68.38427474 133.86026373 -71.51868063 132.08879162 -75 130 C-75 129.34 -75 128.68 -75 128 C-75.8353125 127.62875 -75.8353125 127.62875 -76.6875 127.25 C-86.3965819 122.00184762 -92.06000839 111.98871112 -96 102 C-97.30186336 97.51413363 -98.28751661 92.96543446 -99.23828125 88.39453125 C-99.64160967 85.18001445 -99.64160967 85.18001445 -101 84 C-101.0991657 82.37742456 -101.13079777 80.75060169 -101.1328125 79.125 C-101.13410156 78.14015625 -101.13539062 77.1553125 -101.13671875 76.140625 C-101.13285156 75.10421875 -101.12898438 74.0678125 -101.125 73 C-101.13080078 71.44539063 -101.13080078 71.44539063 -101.13671875 69.859375 C-101.13542969 68.87453125 -101.13414063 67.8896875 -101.1328125 66.875 C-101.13168457 65.96492188 -101.13055664 65.05484375 -101.12939453 64.1171875 C-101 62 -101 62 -100 61 C-99.53089527 58.543923 -99.10019845 56.09057285 -98.6875 53.625 C-97.48503026 46.77130667 -95.68791133 40.44007182 -93 34 C-92.34 34 -91.68 34 -91 34 C-90.81824219 33.12601563 -90.81824219 33.12601563 -90.6328125 32.234375 C-88.02560566 23.02868172 -79.90554776 14.85113158 -72 10 C-71.56171875 9.525625 -71.1234375 9.05125 -70.671875 8.5625 C-68.49115692 6.52444572 -66.21917737 5.52955116 -63.5 4.3125 C-62.5409375 3.87550781 -61.581875 3.43851563 -60.59375 2.98828125 C-58 2 -58 2 -55 2 C-55 1.34 -55 0.68 -55 0 C-38.00541511 -5.27743117 -16.99458489 -5.27743117 0 0 Z M-50 32 C-50 32.66 -50 33.32 -50 34 C-50.73992187 34.22558594 -51.47984375 34.45117188 -52.2421875 34.68359375 C-57.98012316 37.42252338 -61.60135114 43.9340876 -64.1796875 49.5859375 C-65.48150577 53.31781655 -66 55.98978616 -66 60 C-40.59 60 -15.18 60 11 60 C8.97589944 46.3496536 8.97589944 46.3496536 1.375 35.5625 C0.199375 34.7890625 0.199375 34.7890625 -1 34 C-1.43570312 33.51660156 -1.87140625 33.03320312 -2.3203125 32.53515625 C-9.10570727 26.33362103 -20.65588358 25.72841874 -29.38671875 25.84765625 C-37.09486133 26.29700985 -43.27507198 28.26392888 -50 32 Z " fill="#1B582F" transform="translate(1758,192)"/>
<path d="M0 0 C0 0.66 0 1.32 0 2 C0.78375 2.061875 1.5675 2.12375 2.375 2.1875 C9.79417375 3.85041825 15.97822971 7.26083396 21 13 C21.804375 13.763125 22.60875 14.52625 23.4375 15.3125 C28.2189875 20.32723079 32.28835792 25.15343169 34 32 C34.66 32 35.32 32 36 32 C36.63162757 33.95620578 37.25489646 35.91511071 37.875 37.875 C38.39707031 39.51082031 38.39707031 39.51082031 38.9296875 41.1796875 C41.33655355 49.77061816 42.36333464 57.82600009 42.375 66.75 C42.39949219 67.75160156 42.42398437 68.75320313 42.44921875 69.78515625 C42.47247985 75.6391991 42.2157494 79.53965081 38 84 C33.3150195 86.61210962 28.55517296 86.26832632 23.34448242 86.22705078 C22.3781488 86.22734283 21.41181519 86.22763489 20.41619873 86.22793579 C17.2291967 86.22654492 14.04242983 86.21099498 10.85546875 86.1953125 C8.64301176 86.19158151 6.43055311 86.18873494 4.21809387 86.18673706 C-1.59997127 86.17910739 -7.41793628 86.15946452 -13.23596191 86.1373291 C-19.17487229 86.11685639 -25.11379887 86.10773229 -31.05273438 86.09765625 C-42.70186687 86.07621808 -54.3509251 86.04209008 -66 86 C-65.09111244 87.89957501 -64.17251969 89.79450786 -63.25 91.6875 C-62.73953125 92.74324219 -62.2290625 93.79898438 -61.703125 94.88671875 C-56.53403517 104.33572011 -49.85568519 108.51350267 -40 112 C-40 112.66 -40 113.32 -40 114 C-31.09 114 -22.18 114 -13 114 C-13 113.34 -13 112.68 -13 112 C-12.29875 111.78085937 -11.5975 111.56171875 -10.875 111.3359375 C-5.01364795 109.37684429 -0.57186481 107.18132409 4.2421875 103.33203125 C8.19842621 100.33408148 11.74860333 99.8220887 16.5625 100.1875 C20.27736972 100.71460989 23.02395233 101.59996155 26 104 C26 104.66 26 105.32 26 106 C26.66 106 27.32 106 28 106 C29.7081875 108.97076087 30.25188983 111.08148549 30.1875 114.5 C30.17783203 115.62921875 30.17783203 115.62921875 30.16796875 116.78125 C29.75431875 122.24527794 28.1334172 124.30630804 24 128 C19.57478458 131.68767952 15.69067174 134.57733206 10 136 C10 136.66 10 137.32 10 138 C8.06530224 138.63362121 6.12703261 139.25633651 4.1875 139.875 C2.56908203 140.39707031 2.56908203 140.39707031 0.91796875 140.9296875 C-7.7083631 143.42796134 -16.22877284 144.363846 -25.1875 144.3125 C-26.18346191 144.30903564 -27.17942383 144.30557129 -28.20556641 144.30200195 C-39.95721228 144.13076963 -50.96337127 142.13873577 -62 138 C-62 137.34 -62 136.68 -62 136 C-63.2684375 135.62875 -63.2684375 135.62875 -64.5625 135.25 C-70.98430831 132.91479698 -75.41633662 130.02020275 -80 125 C-80.66902344 124.34644531 -81.33804687 123.69289063 -82.02734375 123.01953125 C-96.34323836 108.40997726 -100.50207226 90.50213105 -100.35644531 70.58764648 C-100.04094989 58.70970092 -98.73960116 46.56749673 -93 36 C-92.65324219 35.21882813 -92.30648438 34.43765625 -91.94921875 33.6328125 C-85.79509499 20.05567349 -74.86484884 9.33298785 -61.2578125 3.21875 C-58 2 -58 2 -55 2 C-55 1.34 -55 0.68 -55 0 C-37.56719517 -4.83285678 -17.36385977 -5.30386989 0 0 Z M-50 32 C-50 32.66 -50 33.32 -50 34 C-50.556875 34.20625 -51.11375 34.4125 -51.6875 34.625 C-54.29405772 36.17484513 -55.91359276 38.0642012 -57.7734375 40.4375 C-58.82794709 41.78082432 -59.96947323 43.05501498 -61.125 44.3125 C-64.47938702 49.12045473 -66 54.16152878 -66 60 C-40.26 60 -14.52 60 12 60 C8.74746469 44.94644374 8.74746469 44.94644374 -1 34 C-1.5775 33.319375 -2.155 32.63875 -2.75 31.9375 C-7.9436808 27.46516376 -15.32769793 26.41310688 -22 26 C-22.75925781 25.94714844 -23.51851562 25.89429688 -24.30078125 25.83984375 C-33.26850355 25.51088424 -42.21911404 27.46114986 -50 32 Z " fill="#1D703A" transform="translate(1599,192)"/>
<path d="M0 0 C1.1446875 -1.2065625 1.1446875 -1.2065625 2.3125 -2.4375 C5 -5 5 -5 8 -6 C8 -6.66 8 -7.32 8 -8 C10.9331358 -8.97771193 12.88178994 -9.13419011 15.9375 -9.125 C17.21947266 -9.12886719 17.21947266 -9.12886719 18.52734375 -9.1328125 C20.82680852 -9.00930254 22.79640348 -8.64420687 25 -8 C25 -7.34 25 -6.68 25 -6 C25.598125 -5.71125 26.19625 -5.4225 26.8125 -5.125 C31.81609195 -2.55172414 31.81609195 -2.55172414 33 1 C33.09807712 2.66114528 33.13923877 4.32592527 33.14717102 5.98994446 C33.15790398 7.53553543 33.15790398 7.53553543 33.16885376 9.11235046 C33.17154266 10.24227921 33.17423157 11.37220795 33.17700195 12.53637695 C33.18357315 13.72686646 33.19014435 14.91735596 33.19691467 16.1439209 C33.21666056 20.09203449 33.22831428 24.04013479 33.23828125 27.98828125 C33.24232964 29.34865018 33.24644659 30.70901891 33.25063133 32.06938744 C33.26967706 38.46059938 33.28390974 44.85179981 33.2922433 51.24303466 C33.30201577 58.61561606 33.32833777 65.98789723 33.36874419 73.36037284 C33.39892086 79.06239331 33.4137136 84.76432779 33.41702431 90.46642655 C33.41937294 93.87049227 33.42830832 97.27423702 33.45348549 100.67821693 C33.47777273 104.47753576 33.47693049 108.27606714 33.4699707 112.07543945 C33.48918579 113.76122353 33.48918579 113.76122353 33.50878906 115.48106384 C33.46766674 121.63330978 33.16677613 125.3446427 29 130 C23.49628348 134.23362809 16.61853555 133.62311912 10 133 C5.75579765 131.53648195 3.22006121 129.94677548 1 126 C1 125.01 1 124.02 1 123 C0.06027344 123.54140625 0.06027344 123.54140625 -0.8984375 124.09375 C-1.71570313 124.5578125 -2.53296875 125.021875 -3.375 125.5 C-4.18710937 125.9640625 -4.99921875 126.428125 -5.8359375 126.90625 C-8 128 -8 128 -10 128 C-10 128.66 -10 129.32 -10 130 C-12.70706344 130.81694231 -15.41551396 131.62866494 -18.125 132.4375 C-19.26582031 132.78264648 -19.26582031 132.78264648 -20.4296875 133.13476562 C-37.99652327 138.35938488 -56.11363852 137.12694344 -73 130 C-73 129.34 -73 128.68 -73 128 C-74.299375 127.62875 -74.299375 127.62875 -75.625 127.25 C-82.10875649 124.84860871 -85.8341016 121.29181688 -90 116 C-90.515625 115.505 -91.03125 115.01 -91.5625 114.5 C-94.58126761 111.34998162 -97 108.42823104 -97 104 C-97.66 103.67 -98.32 103.34 -99 103 C-102.55590505 96.39206309 -103.97994898 89.10965025 -105.38671875 81.80859375 C-105.71148777 79.10851877 -105.71148777 79.10851877 -107 78 C-107.21973262 73.69176352 -107.18578803 69.37773368 -107.18530273 65.06445312 C-107.18747015 62.90474173 -107.20556555 60.7455571 -107.22460938 58.5859375 C-107.22754717 57.20052257 -107.22952938 55.81510522 -107.23046875 54.4296875 C-107.23457764 53.17397949 -107.23868652 51.91827148 -107.24291992 50.62451172 C-106.98779461 46.8178882 -106.16797771 43.62279331 -105 40 C-104.65582031 38.81921875 -104.31164062 37.6384375 -103.95703125 36.421875 C-99.68516661 22.71691678 -92.74755019 9.49376752 -80 2 C-79.505 1.49855469 -79.01 0.99710938 -78.5 0.48046875 C-76.54364532 -1.45041256 -74.45783286 -2.46955604 -72 -3.6875 C-71.13375 -4.12449219 -70.2675 -4.56148437 -69.375 -5.01171875 C-67 -6 -67 -6 -64 -6 C-64 -6.66 -64 -7.32 -64 -8 C-41.34113078 -15.30650677 -20.35040066 -10.87248563 0 0 Z M-57 24 C-57 24.66 -57 25.32 -57 26 C-57.5878125 26.25910156 -58.175625 26.51820313 -58.78125 26.78515625 C-65.65975011 30.55137726 -68.88958343 37.22479195 -71.2734375 44.38671875 C-75.36785324 59.11340763 -74.65629363 77.69752853 -67.13671875 91.19921875 C-61.96384489 99.39404641 -54.93403431 104.24824396 -45.40234375 106.65625 C-36.21079747 107.97146313 -27.48243177 106.65490776 -19 103 C-18.16855469 102.649375 -17.33710937 102.29875 -16.48046875 101.9375 C-10.54115146 99.2305248 -6.79548659 96.28530376 -3 91 C-2.23022575 90.10771446 -2.23022575 90.10771446 -1.44490051 89.19740295 C0.27035971 86.58883728 0.37460002 85.1912269 0.37231445 82.09545898 C0.37854324 81.12442734 0.38477203 80.15339569 0.39118958 79.15293884 C0.38197983 78.11117996 0.37277008 77.06942108 0.36328125 75.99609375 C0.36377975 74.92126236 0.36427826 73.84643097 0.36479187 72.73902893 C0.36245285 70.46865997 0.35273448 68.19828834 0.33618164 65.92797852 C0.31256577 62.44719343 0.31562514 58.96717309 0.32226562 55.48632812 C0.31668963 53.28124542 0.30958024 51.07616595 0.30078125 48.87109375 C0.30169266 47.82731064 0.30260406 46.78352753 0.30354309 45.70811462 C0.29401108 44.74023514 0.28447906 43.77235565 0.2746582 42.77514648 C0.27005081 41.9233934 0.26544342 41.07164032 0.26069641 40.19407654 C0.13336711 37.70967617 0.13336711 37.70967617 -2 35 C-2.66 35 -3.32 35 -4 35 C-4.309375 33.88625 -4.309375 33.88625 -4.625 32.75 C-6.41185945 29.17628111 -8.56039993 27.93477504 -12 26 C-12.66 26 -13.32 26 -14 26 C-14.495 24.515 -14.495 24.515 -15 23 C-27.42378866 16.80881198 -45.30245054 16.20163369 -57 24 Z " fill="#9FC239" transform="translate(657,200)"/>
<path d="M0 0 C0 0.66 0 1.32 0 2 C0.78375 2.061875 1.5675 2.12375 2.375 2.1875 C9.77597757 3.8463398 16.0054069 7.24865037 21 13 C21.598125 13.556875 22.19625 14.11375 22.8125 14.6875 C24 16 24 16 24 18 C24.66 18 25.32 18 26 18 C30.01216138 25.41533398 31.0599666 31.58239294 29.4375 39.875 C26.93777462 43.57024621 23.13822438 45.17230024 19.0625 46.75 C12.82145608 47.50649017 8.3636719 47.57578127 3 44 C1.625 41.8125 1.625 41.8125 1 40 C0.34 40 -0.32 40 -1 40 C-1.99 37.03 -1.99 37.03 -3 34 C-3.66 34 -4.32 34 -5 34 C-5.45117188 33.53851563 -5.90234375 33.07703125 -6.3671875 32.6015625 C-11.16992826 27.89074022 -19.57689996 27.33170939 -26 27 C-26.97839844 26.94714844 -27.95679688 26.89429688 -28.96484375 26.83984375 C-38.10491827 26.58502955 -48.98363563 27.10010987 -57 32 C-59.84143288 35.31500502 -61.25589346 37.79055673 -61.3125 42.125 C-61.08222926 44.9803572 -60.74258894 47.2832112 -60 50 C-50.89737386 52.22108613 -41.68499625 52.83232313 -32.375 53.5625 C-30.02782325 53.75107784 -27.68079752 53.94135184 -25.33389282 54.13328552 C-23.8848367 54.25132711 -22.43560663 54.36726164 -20.98617554 54.48060608 C-16.30137828 54.8561175 -11.65866879 55.39040893 -7 56 C-7 56.66 -7 57.32 -7 58 C-6.45214844 58.01417969 -5.90429688 58.02835938 -5.33984375 58.04296875 C2.94117003 58.54117608 10.26533125 61.20520636 18 64 C18 64.66 18 65.32 18 66 C19.0828125 66.37125 19.0828125 66.37125 20.1875 66.75 C25.80061722 69.24471877 28.61836257 72.4456882 31.25 77.9375 C31.75015625 78.95714844 32.2503125 79.97679687 32.765625 81.02734375 C34.97980874 86.35960268 35.15666742 91.27875199 35.125 97 C35.12886719 97.69867188 35.13273438 98.39734375 35.13671875 99.1171875 C35.12963657 102.87074298 34.89787023 106.35151145 34 110 C33.34 110 32.68 110 32 110 C31.9175 110.845625 31.835 111.69125 31.75 112.5625 C30.15824025 119.8580655 26.69151802 123.61278819 21 128 C20.38125 128.680625 19.7625 129.36125 19.125 130.0625 C15.94470512 132.96218062 11.42849111 136 7 136 C7 136.66 7 137.32 7 138 C3.98094209 138.81919421 0.95946921 139.62911767 -2.0625 140.4375 C-3.33383789 140.78264648 -3.33383789 140.78264648 -4.63085938 141.13476562 C-25.65110904 146.73475492 -50.60478208 145.93147363 -71 138 C-71 137.34 -71 136.68 -71 136 C-71.66 135.938125 -72.32 135.87625 -73 135.8125 C-82.7954238 133.15957272 -88.2917585 125.71051234 -93.61328125 117.515625 C-97.12336583 111.30623595 -97.60313732 106.05000511 -97 99 C-96.34 99 -95.68 99 -95 99 C-94.95875 98.4225 -94.9175 97.845 -94.875 97.25 C-93.53662757 93.8084709 -91.13712081 92.78385301 -88 91 C-82.88753555 88.95501422 -76.93626659 89.31514192 -71.875 91.3125 C-65.8074368 94.61555215 -63.09564127 101.7130762 -61 108 C-59.20898285 108.92273481 -59.20898285 108.92273481 -57 109.5 C-52 111 -52 111 -50.09277344 111.74414062 C-43.77390332 114.12615284 -37.96990298 114.53938171 -31.25 114.5 C-30.19466064 114.49790527 -29.13932129 114.49581055 -28.05200195 114.49365234 C-18.48153385 114.30072608 -11.05017276 112.36678184 -3 107 C-0.43190344 102.99679066 1.42017397 99.78356477 2 95 C1.34 94.67 0.68 94.34 0 94 C-2.125 92.0625 -2.125 92.0625 -4 90 C-4 89.34 -4 88.68 -4 88 C-7.5619294 87.55778042 -11.12458323 87.12169057 -14.6875 86.6875 C-15.79351563 86.55214844 -16.89953125 86.41679687 -18.0390625 86.27734375 C-24.2872753 85.52505057 -30.5357779 84.83595273 -36.80078125 84.23828125 C-38.0844458 84.11428955 -39.36811035 83.99029785 -40.69067383 83.86254883 C-43.18056134 83.62557626 -45.67128414 83.39718182 -48.1628418 83.1784668 C-54.85766061 82.53701061 -60.73113232 81.41864551 -67 79 C-67.9796875 78.69578125 -68.959375 78.3915625 -69.96875 78.078125 C-79.33863943 75.01266735 -87.31462784 69.74153444 -92.12109375 60.94921875 C-96.75990218 50.62827128 -96.90027483 36.57497704 -93.5 25.8125 C-88.61314114 14.8342748 -78.73349659 7.34591179 -67.98046875 2.6640625 C-66 2 -66 2 -63 2 C-63 1.34 -63 0.68 -63 0 C-43.51876099 -5.30445406 -19.48123901 -5.30445406 0 0 Z " fill="#8AB83E" transform="translate(807,192)"/>
<path d="M0 0 C1.04865234 0.00128906 2.09730469 0.00257813 3.17773438 0.00390625 C10.87545246 0.09923403 17.83513095 0.90000391 25.1875 3.3125 C25.1875 3.9725 25.1875 4.6325 25.1875 5.3125 C25.91324219 5.42464844 26.63898438 5.53679687 27.38671875 5.65234375 C37.03556391 7.92661827 45.15219665 15.75227491 50.6875 23.6875 C52.1875 26.3125 52.1875 26.3125 52.1875 28.3125 C52.8475 28.3125 53.5075 28.3125 54.1875 28.3125 C54.98624865 30.45570727 55.77611858 32.60222416 56.5625 34.75 C57.00335937 35.94496094 57.44421875 37.13992187 57.8984375 38.37109375 C60.35487452 45.55325961 61.48714897 52.46334806 61.47802734 60.04174805 C61.48474457 60.86247803 61.49146179 61.68320801 61.49838257 62.52880859 C61.51720412 65.2106754 61.5212775 67.89229025 61.5234375 70.57421875 C61.52987237 72.45270385 61.53660123 74.33118797 61.54360962 76.20967102 C61.55553969 80.13239874 61.55929444 84.05503864 61.55810547 87.9777832 C61.55790158 92.99813709 61.5852948 98.01792936 61.61964989 103.03814983 C61.64189846 106.91153038 61.64594377 110.78477476 61.64488602 114.65821266 C61.64724154 116.50934614 61.65606231 118.36048339 61.67155075 120.21155357 C61.69118615 122.79858252 61.68538467 125.38438613 61.67333984 127.97143555 C61.68457886 128.73053726 61.69581787 129.48963898 61.70739746 130.27174377 C61.64661877 135.41896173 60.45270352 138.35759174 57.1875 142.3125 C51.72562174 145.46603038 45.2879952 144.78176886 39.1875 144.3125 C34.23639956 142.89789988 31.84566831 140.36574132 29.25497437 136.07687378 C26.85247175 129.85525812 27.5077075 122.80397321 27.55078125 116.22265625 C27.54272935 114.55169855 27.53220447 112.88075113 27.51933289 111.20982361 C27.49087619 106.82543736 27.49019117 102.44152465 27.49719238 98.05706787 C27.50453284 91.04486009 27.47295643 84.03280413 27.43474388 77.02071953 C27.42596155 74.58515697 27.43116701 72.14993198 27.43830872 69.71437073 C27.43383222 58.77535271 27.33648591 47.22815337 19.65234375 38.5859375 C13.16772575 32.5887737 6.06371962 30.75893825 -2.625 30.875 C-3.40963623 30.88112305 -4.19427246 30.88724609 -5.00268555 30.89355469 C-13.72821105 31.12702558 -21.32819174 33.20962164 -27.8125 39.3125 C-28.616875 39.89 -29.42125 40.4675 -30.25 41.0625 C-35.73962215 45.88265603 -39.26420259 51.51704024 -41.8125 58.3125 C-42.4725 58.3125 -43.1325 58.3125 -43.8125 58.3125 C-44.54598601 62.92253334 -44.94338657 67.35670147 -44.97021484 72.02294922 C-44.98560806 73.96063675 -44.98560806 73.96063675 -45.00131226 75.93746948 C-45.00646914 76.95864679 -45.00646914 76.95864679 -45.01173019 78.00045395 C-45.02364272 80.15429191 -45.04312431 82.30794025 -45.06484985 84.46170044 C-45.12606071 90.58100998 -45.18043155 96.70029443 -45.21386719 102.81982422 C-45.23493059 106.57579101 -45.27031774 110.3314007 -45.31462479 114.08716202 C-45.32868364 115.50871683 -45.3374841 116.93033468 -45.34067917 118.35195541 C-45.38675769 136.88675769 -45.38675769 136.88675769 -50.8125 142.3125 C-56.53196568 145.17223284 -62.56236405 144.73584665 -68.8125 144.3125 C-73.63133808 142.70622064 -76.20398778 140.65919512 -78.8125 136.3125 C-79.42334213 132.32950139 -79.36891625 128.37263687 -79.34594727 124.34960938 C-79.35456284 123.13771439 -79.36317841 121.9258194 -79.37205505 120.67720032 C-79.39084896 117.36080936 -79.39161686 114.04541878 -79.38273358 110.72905159 C-79.37761714 107.95809817 -79.38492142 105.18723403 -79.39220566 102.41628981 C-79.40919523 95.8788466 -79.40564798 89.34163687 -79.38891602 82.80419922 C-79.3719885 76.06419328 -79.38783923 69.32483469 -79.4201389 62.58489943 C-79.44684269 56.79278766 -79.45410897 51.00087733 -79.44562382 45.20871019 C-79.44069761 41.7515987 -79.44289308 38.29487683 -79.46341133 34.83781433 C-79.48519384 30.98341551 -79.4663608 27.12979622 -79.44360352 23.27539062 C-79.45529572 22.13237991 -79.46698792 20.9893692 -79.47903442 19.8117218 C-79.38609395 12.08930438 -79.38609395 12.08930438 -76.46055603 8.12731934 C-73.8125 6.3125 -73.8125 6.3125 -70.8125 5.3125 C-70.8125 4.6525 -70.8125 3.9925 -70.8125 3.3125 C-68.01501159 2.38000386 -66.26929119 2.17773848 -63.375 2.1875 C-62.61316406 2.18492187 -61.85132813 2.18234375 -61.06640625 2.1796875 C-58.85934141 2.30973985 -56.93280724 2.70393801 -54.8125 3.3125 C-54.8125 3.9725 -54.8125 4.6325 -54.8125 5.3125 C-53.6678125 5.68375 -53.6678125 5.68375 -52.5 6.0625 C-49.48545684 7.4646131 -48.44722774 8.45172645 -46.8125 11.3125 C-46.125 14.0625 -46.125 14.0625 -45.8125 16.3125 C-45.40362549 15.92868164 -44.99475098 15.54486328 -44.57348633 15.14941406 C-40.19541768 11.19914772 -35.85021373 8.50106597 -30.5 6.0625 C-29.80455078 5.72476563 -29.10910156 5.38703125 -28.39257812 5.0390625 C-19.17691515 0.74799303 -10.06962151 -0.0514741 0 0 Z " fill="#124324" transform="translate(1901.8125,188.6875)"/>
<path d="M0 0 C0 0.66 0 1.32 0 2 C0.721875 2.11859375 1.44375 2.2371875 2.1875 2.359375 C9.23915724 3.96558582 15.25390257 7.57588865 20 13 C21.2684375 14.2065625 21.2684375 14.2065625 22.5625 15.4375 C26.41597159 19.48858552 29 22.29096729 29 28 C29.66 28 30.32 28 31 28 C30.18313125 33.55470748 27.92836687 38.92613806 24 43 C19.04188502 45.47905749 14.28951128 45.24933219 9 44 C7.515 43.01 7.515 43.01 6 42 C6 41.34 6 40.68 6 40 C5.443125 39.7525 4.88625 39.505 4.3125 39.25 C1.57589087 37.77075182 -0.67650869 36.06532561 -3 34 C-3 33.34 -3 32.68 -3 32 C-19.05221011 26.20336857 -32.53147568 25.57354678 -48.78125 30.9140625 C-49.5134375 31.27242187 -50.245625 31.63078125 -51 32 C-51.33 32.99 -51.66 33.98 -52 35 C-52.7425 35.721875 -53.485 36.44375 -54.25 37.1875 C-64.26129508 47.42632451 -65.45702707 59.96931808 -65.35571289 73.74804688 C-65.09025315 83.93081018 -62.98179063 94.74144322 -55.75 102.375 C-55.1725 102.91125 -54.595 103.4475 -54 104 C-54 104.66 -54 105.32 -54 106 C-53.27941406 106.27714844 -52.55882812 106.55429687 -51.81640625 106.83984375 C-48.23182551 108.31643249 -44.84080096 110.09345158 -41.40234375 111.87890625 C-37.46210726 113.71768328 -34.13202012 114.12286058 -29.796875 114.09765625 C-28.8171875 114.09443359 -27.8375 114.09121094 -26.828125 114.08789062 C-25.81234375 114.07951172 -24.7965625 114.07113281 -23.75 114.0625 C-22.71875 114.05798828 -21.6875 114.05347656 -20.625 114.04882812 C-18.08327427 114.03706088 -15.54166681 114.02062011 -13 114 C-13 113.34 -13 112.68 -13 112 C-12.29875 111.79246094 -11.5975 111.58492188 -10.875 111.37109375 C-4.68866263 109.36221517 -0.42002056 107.10105743 4.28515625 102.6171875 C7.36500572 99.7127281 9.74539994 98 14 98 C14 97.34 14 96.68 14 96 C19.26059582 95.34242552 23.01190689 95.50678393 27.4375 98.625 C30.75655443 101.46140309 32.3903881 103.55854188 33 108 C33.34292446 112.41619786 32.91642235 115.65205839 30.390625 119.3671875 C28.35851052 121.70648208 26.24634097 123.86637865 24 126 C23.40445312 126.58007812 22.80890625 127.16015625 22.1953125 127.7578125 C18.20485419 131.41726505 12.65312535 136 7 136 C7 136.66 7 137.32 7 138 C-16.15851439 146.32574863 -38.76466113 146.05975817 -62 138 C-62 137.34 -62 136.68 -62 136 C-63.2684375 135.62875 -63.2684375 135.62875 -64.5625 135.25 C-70.97763061 132.91722523 -75.42392357 130.02252291 -80 125 C-80.66515625 124.30390625 -81.3303125 123.6078125 -82.015625 122.890625 C-88.86096004 115.55281982 -88.86096004 115.55281982 -90 110 C-90.66 110 -91.32 110 -92 110 C-95.08963187 102.62364642 -97.59200675 96.02386726 -98 88 C-98.66 88 -99.32 88 -100 88 C-101.40333072 73.41538425 -102.27027238 58.90034339 -97 45 C-96.649375 43.90558594 -96.29875 42.81117188 -95.9375 41.68359375 C-92.5876676 31.46880877 -88.05504937 23.24954443 -80 16 C-79.40832031 15.46246094 -78.81664062 14.92492187 -78.20703125 14.37109375 C-73.28828306 10 -73.28828306 10 -71 10 C-71 9.34 -71 8.68 -71 8 C-68.89915791 6.99303432 -66.79420511 5.9946411 -64.6875 5 C-63.51574219 4.443125 -62.34398437 3.88625 -61.13671875 3.3125 C-58 2 -58 2 -55 2 C-55 1.34 -55 0.68 -55 0 C-38.00541511 -5.27743117 -16.99458489 -5.27743117 0 0 Z " fill="#5BA744" transform="translate(1107,192)"/>
<path d="M0 0 C16.41038206 20.86306375 24.75242297 52.40963079 30 78 C30.17644043 78.85126465 30.35288086 79.7025293 30.53466797 80.57958984 C38.9481624 123.1807227 31.57685366 171.27744915 8 208 C-0.24149589 220.20743936 -10.2697563 231.76669897 -22.12817383 240.59887695 C-23.60487491 241.70423596 -25.03907893 242.86636395 -26.45581055 244.04760742 C-35.09979702 250.68180994 -42.52615059 251.17008466 -52.9375 250.8125 C-54.49746907 250.78493568 -56.05744649 250.75784005 -57.61743164 250.73120117 C-69.50029106 250.43586661 -80.72730446 248.91104705 -92 245 C-93.14597656 244.60425781 -94.29195313 244.20851563 -95.47265625 243.80078125 C-98.40158151 242.66322447 -101.18640816 241.39679026 -104 240 C-105.04027344 239.49855469 -106.08054687 238.99710938 -107.15234375 238.48046875 C-137.73025604 222.95517916 -159.33237767 194.15696455 -170 162 C-177.48973156 138.50094024 -182.02184277 110.48597067 -172 87 C-170.90942528 90.27172416 -171.24657627 92.39439889 -171.72021484 95.75195312 C-174.76065564 120.18160307 -168.67687869 145.1954252 -154 165 C-146.71557445 174.2647922 -138.502194 181.07051149 -127.72509766 185.84204102 C-118.7119882 189.8866459 -118.7119882 189.8866459 -116.40625 193.4921875 C-115.5625 196.1875 -115.5625 196.1875 -114.8984375 199 C-111.58921123 210.04993814 -101.15293859 220.79614941 -92.28515625 227.7734375 C-91.86105469 228.17820312 -91.43695313 228.58296875 -91 229 C-91 229.66 -91 230.32 -91 231 C-59.13807946 225.17085162 -30.52839429 215.07101939 -10.875 187.5 C-9.12580855 184.92224418 -7.98988248 182.96964744 -7 180 C-6.34 180 -5.68 180 -5 180 C-4.72800781 179.13246094 -4.45601562 178.26492188 -4.17578125 177.37109375 C-3.04326702 174.1240513 -1.69396021 171.15094218 -0.1875 168.0625 C11.95264874 141.97598528 14.2123218 113.56601011 14.0625 85.1875 C14.05747056 83.51237114 14.05291023 81.83724081 14.04882812 80.16210938 C14.03794708 76.10803561 14.02076371 72.05403469 14 68 C15.32 67.67 16.64 67.34 18 67 C17.57589844 65.84371094 17.15179688 64.68742187 16.71484375 63.49609375 C12.34323497 51.18639822 9.16871736 38.77988887 6.48608398 26.01538086 C4.98044612 18.95353555 3.21510142 12.18734329 0.75854492 5.39282227 C0 3 0 3 0 0 Z " fill="#36964B" transform="translate(268,214)"/>
<path d="M0 0 C3.7249322 2.1915357 5.9053361 3.93755207 7.51953125 8.01171875 C7.74658203 11.03613281 7.74658203 11.03613281 7.71484375 14.52734375 C7.70839844 15.77773437 7.70195313 17.028125 7.6953125 18.31640625 C7.67855469 19.61835938 7.66179688 20.9203125 7.64453125 22.26171875 C7.63550781 23.57914063 7.62648438 24.8965625 7.6171875 26.25390625 C7.59361658 29.50669337 7.56071147 32.75911464 7.51953125 36.01171875 C8.29143799 36.00648193 9.06334473 36.00124512 9.85864258 35.99584961 C13.34976388 35.97508633 16.8408722 35.96206064 20.33203125 35.94921875 C22.15444336 35.93665039 22.15444336 35.93665039 24.01367188 35.92382812 C25.75874023 35.91899414 25.75874023 35.91899414 27.5390625 35.9140625 C28.61260986 35.90882568 29.68615723 35.90358887 30.79223633 35.89819336 C33.51953125 36.01171875 33.51953125 36.01171875 36.51953125 37.01171875 C36.51953125 37.67171875 36.51953125 38.33171875 36.51953125 39.01171875 C37.11765625 39.30046875 37.71578125 39.58921875 38.33203125 39.88671875 C43.3356232 42.45999461 43.3356232 42.45999461 44.51953125 46.01171875 C44.63640463 47.4875849 44.69454867 48.96878487 44.70703125 50.44921875 C44.72121094 51.21105469 44.73539063 51.97289062 44.75 52.7578125 C44.3935812 56.24346757 42.98291171 58.42820262 40.83203125 61.13671875 C34.62254634 66.17143624 26.6477925 65.25346047 19.08203125 65.13671875 C17.96892578 65.12769531 16.85582031 65.11867188 15.70898438 65.109375 C12.97894102 65.08594115 10.24935115 65.05313275 7.51953125 65.01171875 C7.62687624 73.86062761 7.73947725 82.70944914 7.85887051 91.5582037 C7.91413708 95.66662292 7.9675629 99.77504921 8.0168457 103.88354492 C8.06443438 107.84525001 8.11677492 111.80686593 8.172472 115.76846504 C8.19292056 117.28317622 8.21162942 118.79791187 8.22860527 120.31266594 C8.25259424 122.42720301 8.28265575 124.5415701 8.31420898 126.65600586 C8.33752541 128.46469398 8.33752541 128.46469398 8.36131287 130.30992126 C8.21435508 132.92806251 8.21435508 132.92806251 9.51953125 134.01171875 C10.06061027 136.97628618 10.48492188 139.95203126 10.921875 142.93359375 C11.49651324 146.40756867 11.49651324 146.40756867 13.51953125 151.01171875 C18.79953125 151.01171875 24.07953125 151.01171875 29.51953125 151.01171875 C29.51953125 150.35171875 29.51953125 149.69171875 29.51953125 149.01171875 C32.60459213 147.98336512 34.78895845 147.87803441 38.01953125 147.88671875 C38.97859375 147.88414062 39.93765625 147.8815625 40.92578125 147.87890625 C44.84179009 148.07942477 47.00768011 149.08487722 49.70703125 151.82421875 C53.16274994 156.01427766 53.33985824 159.84040413 53.015625 165.140625 C52.25224686 169.55860084 51.10242525 172.24143988 47.51953125 175.01171875 C33.48498864 182.34491087 17.07940659 183.3979777 1.88671875 178.87890625 C-1.06905572 177.79609778 -3.76153943 176.59776085 -6.48046875 175.01171875 C-6.48046875 174.35171875 -6.48046875 173.69171875 -6.48046875 173.01171875 C-7.59421875 172.67140625 -7.59421875 172.67140625 -8.73046875 172.32421875 C-12.02304345 170.75276265 -13.45543984 169.01176159 -15.48046875 166.01171875 C-15.48046875 165.35171875 -15.48046875 164.69171875 -15.48046875 164.01171875 C-16.14046875 164.01171875 -16.80046875 164.01171875 -17.48046875 164.01171875 C-18.3242585 161.95347446 -19.15510497 159.88992089 -19.98046875 157.82421875 C-20.44453125 156.67566406 -20.90859375 155.52710938 -21.38671875 154.34375 C-22.38852527 151.29181798 -22.71917679 149.18056803 -22.48046875 146.01171875 C-23.14046875 146.01171875 -23.80046875 146.01171875 -24.48046875 146.01171875 C-25.69876908 137.47518527 -25.60775792 128.98305923 -25.578125 120.3828125 C-25.57625678 118.7814183 -25.57483478 117.18002352 -25.57383728 115.57862854 C-25.57004394 111.39149357 -25.56024132 107.20439405 -25.5491333 103.01727295 C-25.53885027 98.73352538 -25.53432498 94.44977201 -25.52929688 90.16601562 C-25.51861578 81.78123385 -25.50157821 73.39648073 -25.48046875 65.01171875 C-26.3010376 65.01969482 -27.12160645 65.0276709 -27.96704102 65.03588867 C-29.04526123 65.04209229 -30.12348145 65.0482959 -31.234375 65.0546875 C-32.30244385 65.06266357 -33.3705127 65.07063965 -34.47094727 65.07885742 C-39.83848901 64.95911426 -43.25067681 64.05436843 -47.35546875 60.57421875 C-50.15917385 57.19328025 -50.61966281 54.76993652 -50.60546875 50.51171875 C-50.60804688 49.73828125 -50.610625 48.96484375 -50.61328125 48.16796875 C-50.39344782 44.59890835 -49.72226232 43.22871298 -47.04296875 40.82421875 C-44.48046875 39.01171875 -44.48046875 39.01171875 -42.48046875 39.01171875 C-42.48046875 38.35171875 -42.48046875 37.69171875 -42.48046875 37.01171875 C-38.92001698 35.82490149 -36.04238538 35.91482043 -32.29296875 35.94921875 C-31.02066406 35.95824219 -29.74835937 35.96726563 -28.4375 35.9765625 C-26.97376953 35.99396484 -26.97376953 35.99396484 -25.48046875 36.01171875 C-25.48832397 34.85385864 -25.48832397 34.85385864 -25.49633789 33.67260742 C-25.51710117 30.18148612 -25.53012686 26.6903778 -25.54296875 23.19921875 C-25.55134766 21.98427734 -25.55972656 20.76933594 -25.56835938 19.51757812 C-25.57319336 17.77250977 -25.57319336 17.77250977 -25.578125 15.9921875 C-25.58598022 14.38186646 -25.58598022 14.38186646 -25.59399414 12.73901367 C-25.48046875 10.01171875 -25.48046875 10.01171875 -24.48046875 7.01171875 C-23.82046875 7.01171875 -23.16046875 7.01171875 -22.48046875 7.01171875 C-22.45984375 6.43421875 -22.43921875 5.85671875 -22.41796875 5.26171875 C-21.21503582 2.37467972 -19.51310473 1.19819844 -16.76953125 -0.21875 C-11.32411869 -2.04937504 -5.35460035 -2.1334077 0 0 Z " fill="#78B141" transform="translate(895.48046875,154.98828125)"/>
<path d="M0 0 C2.0625 1.875 2.0625 1.875 4 4 C4.53625 4.495 5.0725 4.99 5.625 5.5 C7.18282079 7.19944086 8.06077341 8.90480222 9 11 C9.99 10.67 10.98 10.34 12 10 C12.33 9.01 12.66 8.02 13 7 C15.1796875 5.61328125 15.1796875 5.61328125 17.875 4.3125 C18.75929688 3.87550781 19.64359375 3.43851563 20.5546875 2.98828125 C23 2 23 2 26 2 C26 1.34 26 0.68 26 0 C32.93065498 -1.54014555 41.13334317 -2.06985349 48 0 C48 0.66 48 1.32 48 2 C48.598125 2.268125 49.19625 2.53625 49.8125 2.8125 C52.17485053 4.09491886 53.45507928 4.7929704 55 7 C56.31298165 12.95891672 56.10456673 17.26027255 54 23 C48.88715605 28.25102893 43.05738718 29.31379195 36 30.0625 C31.62810629 30.55050659 27.30129089 31.05069166 23 32 C23 32.66 23 33.32 23 34 C22.2575 34.37125 21.515 34.7425 20.75 35.125 C16.9763558 37.69793923 15.75150195 40.88054568 14 45 C13.34 45 12.68 45 12 45 C9.31455087 56.44019872 8.68341036 67.78572435 8.55859375 79.4921875 C8.55068439 80.23079262 8.54277504 80.96939774 8.53462601 81.73038483 C8.49024289 86.32855044 8.46529843 90.92668895 8.44702148 95.52502441 C8.42183531 101.74116619 8.38245646 107.95708056 8.32512093 114.17300797 C8.30888133 116.32900764 8.30502677 118.48478558 8.30210876 120.64083862 C8.29192215 121.94384918 8.28173553 123.24685974 8.27124023 124.58935547 C8.26696518 125.73419403 8.26269012 126.87903259 8.25828552 128.05856323 C7.94081464 131.67402152 7.11224309 133.87868971 4.5625 136.44921875 C-1.99752578 141.64803918 -6.72601745 141.53413042 -15 141 C-19.76710139 139.57823292 -21.78053685 137.56276301 -24.16270828 133.21078873 C-25.8631872 128.72083673 -25.53476273 124.00969695 -25.48583984 119.26904297 C-25.48963654 118.10562378 -25.49343323 116.94220459 -25.49734497 115.74353027 C-25.50473632 111.90947251 -25.48338887 108.07617757 -25.4609375 104.2421875 C-25.45855244 101.57372926 -25.45754633 98.90530275 -25.4581604 96.23684692 C-25.45629112 90.65015227 -25.43897551 85.06367575 -25.41162109 79.47705078 C-25.38014341 73.02461357 -25.36962619 66.57241476 -25.3710922 60.11990631 C-25.37231412 53.90112316 -25.36209285 47.68241729 -25.34550858 41.46365738 C-25.33914192 38.8218444 -25.33520199 36.18002443 -25.33372116 33.53820419 C-25.32938875 29.84940398 -25.31188932 26.16090379 -25.29052734 22.47216797 C-25.29143372 21.37905304 -25.29234009 20.28593811 -25.29327393 19.15969849 C-25.28474396 18.1532428 -25.27621399 17.14678711 -25.26742554 16.10983276 C-25.26407385 15.23861219 -25.26072216 14.36739162 -25.25726891 13.46977043 C-24.80865532 9.1630993 -23.67960339 6.62863313 -20.5 3.6875 C-18 2 -18 2 -16 2 C-16 1.34 -16 0.68 -16 0 C-11.28666642 -1.57111119 -4.62953059 -1.98408454 0 0 Z " fill="#208340" transform="translate(1445,192)"/>
<path d="M0 0 C4.01859069 2.5775809 6.4348547 5.78112661 7.921875 10.2421875 C8.02197585 12.32945037 8.06124422 14.41979795 8.06904602 16.50944519 C8.07620132 17.82303009 8.08335663 19.13661499 8.09072876 20.49000549 C8.09356903 21.94931007 8.09628076 23.40861489 8.09887695 24.86791992 C8.10514233 26.40216221 8.11178919 27.93640298 8.11878967 29.47064209 C8.13982606 34.5129694 8.15019257 39.555297 8.16015625 44.59765625 C8.16420415 46.3343997 8.16832108 48.071143 8.17250633 49.80788612 C8.19155813 57.96856684 8.20578843 66.12923852 8.2141183 74.2899372 C8.22388707 83.70454765 8.25019717 93.11892276 8.29061919 102.53345031 C8.32080153 109.81340774 8.33558924 117.09329781 8.33889931 124.37331659 C8.34124766 128.71974492 8.35017964 133.06592183 8.37536049 137.41228294 C8.398683 141.50403745 8.40285781 145.59537575 8.39259911 149.68717957 C8.39210462 151.18512674 8.39839922 152.68309468 8.41215515 154.18097878 C8.48063054 162.08237155 8.44469067 168.48778972 3.921875 175.2421875 C-1.38642134 179.5977127 -8.55981213 178.8400455 -15.078125 178.2421875 C-20.41831127 176.55581289 -22.34772434 174.04442118 -25.078125 169.2421875 C-25.58707619 166.00905704 -25.58707619 166.00905704 -25.59951782 162.45558167 C-25.60716892 161.79794215 -25.61482001 161.14030263 -25.62270296 160.46273464 C-25.64324111 158.27243287 -25.63540368 156.0831917 -25.62744141 153.89282227 C-25.63614125 152.31709834 -25.64650943 150.74138288 -25.65841675 149.16567993 C-25.68515888 144.89494461 -25.68635857 140.62456367 -25.68129015 136.35376096 C-25.67914825 132.78515945 -25.68892367 129.21662929 -25.69850099 125.6480431 C-25.72067792 117.22779133 -25.72157354 108.80771801 -25.70947266 100.38745117 C-25.69739036 91.70760344 -25.72202409 83.02840388 -25.76461279 74.34866673 C-25.79986388 66.88943275 -25.81184466 59.43040493 -25.80533731 51.97109073 C-25.80171444 47.5190311 -25.80695462 43.06743394 -25.83476639 38.61544991 C-25.85994641 34.42822954 -25.85601579 30.24201852 -25.82994461 26.05481339 C-25.82521882 24.52097798 -25.83066247 22.98707127 -25.84719086 21.45331764 C-25.97730836 8.43742842 -25.97730836 8.43742842 -22.28158569 3.89976501 C-16.45781676 -1.72819931 -7.55151506 -2.75374797 0 0 Z " fill="#AFCA35" transform="translate(526.078125,154.7578125)"/>
<path d="M0 0 C1.14662109 -0.00386719 1.14662109 -0.00386719 2.31640625 -0.0078125 C4.4375 0.125 4.4375 0.125 7.4375 1.125 C7.4375 1.785 7.4375 2.445 7.4375 3.125 C8.200625 3.3725 8.96375 3.62 9.75 3.875 C12.79555955 5.29153932 13.72032341 6.27989108 15.4375 9.125 C15.81502342 11.55539608 15.81502342 11.55539608 15.81845093 14.31785583 C15.83114014 15.89291901 15.83114014 15.89291901 15.84408569 17.49980164 C15.838013 18.64640762 15.83194031 19.79301361 15.82568359 20.97436523 C15.83094055 22.1861142 15.83619751 23.39786316 15.84161377 24.64633179 C15.85255555 27.96677008 15.84999023 31.28664759 15.84047651 34.60705447 C15.83287625 38.08407767 15.8399267 41.56107705 15.84463501 45.0381012 C15.85009223 50.87806495 15.84290265 56.71791486 15.82861328 62.55786133 C15.81229437 69.30508444 15.81756972 76.05203548 15.8340925 82.79925197 C15.8477175 88.59556479 15.84962187 94.39179581 15.84177649 100.18811947 C15.83710453 103.64849846 15.83646173 107.10874968 15.84638596 110.56912041 C15.85668071 114.42826744 15.84240156 118.28711116 15.82568359 122.14624023 C15.83479263 123.86311287 15.83479263 123.86311287 15.84408569 125.6146698 C15.83562622 126.66753174 15.82716675 127.72039368 15.81845093 128.80516052 C15.81731985 129.71714927 15.81618877 130.62913801 15.81502342 131.56876278 C15.19426212 135.77198051 13.4048065 138.38679241 10.0625 140.9375 C3.48476417 143.09227553 -3.581226 143.17106105 -10.125 140.875 C-13.74189201 138.27825702 -16.13459797 136.4087061 -17.5625 132.125 C-17.65427392 130.49719843 -17.6887827 128.86587533 -17.68948364 127.23548889 C-17.69230347 126.22744705 -17.69512329 125.21940521 -17.69802856 124.18081665 C-17.69600433 123.07579803 -17.6939801 121.97077942 -17.69189453 120.83227539 C-17.69364685 119.66783401 -17.69539917 118.50339264 -17.69720459 117.30366516 C-17.70161624 113.44331383 -17.69868731 109.58300808 -17.6953125 105.72265625 C-17.69598578 103.04609622 -17.69695441 100.36953759 -17.69821167 97.69297791 C-17.70003151 92.07827254 -17.69763217 86.46358032 -17.69287109 80.84887695 C-17.68743147 74.35905784 -17.68918969 67.86927016 -17.6946975 61.37945181 C-17.69923705 55.80739767 -17.69987496 50.23535299 -17.69725883 44.66329759 C-17.69570036 41.33543733 -17.69588348 38.00759505 -17.69879532 34.67973518 C-17.70132928 30.96884144 -17.6974705 27.25800836 -17.69189453 23.54711914 C-17.69391876 22.44412476 -17.69594299 21.34113037 -17.69802856 20.20471191 C-17.69520874 19.19385025 -17.69238892 18.18298859 -17.68948364 17.14149475 C-17.68910662 16.26415711 -17.68872959 15.38681948 -17.68834114 14.48289585 C-17.56809734 12.22987785 -17.19285921 10.28545546 -16.5625 8.125 C-15.9025 8.125 -15.2425 8.125 -14.5625 8.125 C-14.2325 7.135 -13.9025 6.145 -13.5625 5.125 C-11 3.9375 -11 3.9375 -8.5625 3.125 C-8.5625 2.465 -8.5625 1.805 -8.5625 1.125 C-5.64174603 0.28669704 -3.03585217 -0.01027361 0 0 Z " fill="#6CAD43" transform="translate(975.5625,190.875)"/>
<path d="M0 0 C0 4.04966614 -2.03397294 6.08391781 -4.375 9.1875 C-27.81371238 41.1813424 -44.64450205 77.21774958 -53 116 C-53.17934082 116.8048584 -53.35868164 117.6097168 -53.54345703 118.43896484 C-58.7036975 142.48763268 -58.0943165 170.48741177 -51.8984375 194.23828125 C-51 198 -51 198 -51 202 C-50.34 202.33 -49.68 202.66 -49 203 C-48.25390625 204.96875 -48.25390625 204.96875 -47.5625 207.5 C-46.18234387 212.38687936 -44.63689986 217.19378339 -43 222 C-61.14195291 207.25966326 -72.54655451 185.88554914 -79.9375 164 C-80.23229248 163.12770752 -80.52708496 162.25541504 -80.83081055 161.35668945 C-84.16525134 151.03032764 -84.02176168 141.77945233 -83.5625 131 C-83.50916963 129.63934615 -83.45643036 128.27866899 -83.40429688 126.91796875 C-83.27532909 123.61170382 -83.14039446 120.30579614 -83 117 C-82.67 117 -82.34 117 -82 117 C-82 122.61 -82 128.22 -82 134 C-81.34 134 -80.68 134 -80 134 C-79.99742188 133.44957031 -79.99484375 132.89914062 -79.9921875 132.33203125 C-79.20632606 115.43601028 -72.41365141 98.98434659 -65 84 C-64.53754883 83.06269043 -64.07509766 82.12538086 -63.59863281 81.15966797 C-58.12515563 70.16451272 -52.66400451 59.63774814 -45 50 C-44.505 49.01 -44.505 49.01 -44 48 C-43.34 48 -42.68 48 -42 48 C-42 47.01 -42 46.02 -42 45 C-41.34 44.34 -40.68 43.68 -40 43 C-39.34 42.01 -38.68 41.02 -38 40 C-37.34 40 -36.68 40 -36 40 C-35.76796875 39.46117187 -35.5359375 38.92234375 -35.296875 38.3671875 C-33.62362751 35.31300684 -31.50544997 32.75739031 -29.25 30.125 C-28.75209961 29.54218262 -28.25419922 28.95936523 -27.74121094 28.35888672 C-19.04762891 18.4085536 -9.41898106 9.25554439 0 0 Z " fill="#86AA46" transform="translate(95,223)"/>
<path d="M0 0 C1.09057472 3.27172416 0.75342373 5.39439889 0.27978516 8.75195312 C-2.76065564 33.18160307 3.32312131 58.1954252 18 78 C25.28442555 87.2647922 33.497806 94.07051149 44.27490234 98.84204102 C53.2880118 102.8866459 53.2880118 102.8866459 55.59375 106.4921875 C56.4375 109.1875 56.4375 109.1875 57.1015625 112 C60.41078877 123.04993814 70.84706141 133.79614941 79.71484375 140.7734375 C80.13894531 141.17820312 80.56304687 141.58296875 81 142 C81 142.66 81 143.32 81 144 C77.25098512 144.36515798 73.5007091 144.71521212 69.75 145.0625 C68.68652344 145.16626953 67.62304688 145.27003906 66.52734375 145.37695312 C65.50253906 145.47041016 64.47773438 145.56386719 63.421875 145.66015625 C62.47924805 145.74918213 61.53662109 145.83820801 60.56542969 145.92993164 C51.80101301 146.16930998 45.10456987 139.02901384 39.07421875 133.40234375 C13.64214737 108.98247908 -4.24391605 74.25259281 -5.203125 38.49609375 C-5.37146737 25.18283618 -5.31010804 12.44412276 0 0 Z " fill="#0C1C0B" transform="translate(96,301)"/>
<path d="M0 0 C0.33 0 0.66 0 1 0 C1.01458252 0.6077124 1.02916504 1.2154248 1.04418945 1.84155273 C1.38908869 14.78075839 1.97453383 27.3838348 5 40 C5.18127441 40.75780762 5.36254883 41.51561523 5.54931641 42.29638672 C11.70579158 66.98794302 23.43151363 88.64999733 41 107 C42.02480469 108.11955078 42.02480469 108.11955078 43.0703125 109.26171875 C61.67876788 128.93449538 87.38071508 139.00602332 113.9375 141.640625 C117 142 117 142 119 143 C119 143.66 119 144.32 119 145 C90.53801993 146.10651326 65.00844115 136.83180164 43 119 C42.08605469 118.27039063 41.17210937 117.54078125 40.23046875 116.7890625 C16.83777048 96.96973703 1.12724998 64.03203588 -1.79052734 33.82495117 C-2.1614926 28.82210858 -2.18436002 23.82704965 -2.1875 18.8125 C-2.19974609 17.77158203 -2.21199219 16.73066406 -2.22460938 15.65820312 C-2.23532159 10.03429 -1.89915581 5.30712709 0 0 Z " fill="#9EC44C" transform="translate(90,322)"/>
<path d="M0 0 C3.76762696 1.75602744 5.49577358 4.48105624 7.22265625 8.08203125 C9.12134603 13.59882516 8.71481557 18.04194782 6.66015625 23.45703125 C4.78216421 26.52441825 3.7898296 28.04909365 0.41015625 29.26953125 C-0.16734375 29.33140625 -0.74484375 29.39328125 -1.33984375 29.45703125 C-1.33984375 30.11703125 -1.33984375 30.77703125 -1.33984375 31.45703125 C-6.34292807 33.12472602 -12.33675943 33.12472602 -17.33984375 31.45703125 C-17.33984375 30.79703125 -17.33984375 30.13703125 -17.33984375 29.45703125 C-18.10296875 29.18890625 -18.86609375 28.92078125 -19.65234375 28.64453125 C-22.25736476 27.49347545 -23.5834738 26.65249369 -25.33984375 24.45703125 C-26.39320886 21.29693592 -26.54017263 18.90171765 -26.58984375 15.58203125 C-26.62851562 14.03902344 -26.62851562 14.03902344 -26.66796875 12.46484375 C-26.15670786 7.7782856 -24.26555222 5.26984844 -20.77734375 2.20703125 C-14.89232226 -2.01811238 -6.92087165 -1.60601195 0 0 Z " fill="#6FAE43" transform="translate(984.33984375,154.54296875)"/>
<path d="M0 0 C0.42925781 0.31710937 0.85851562 0.63421875 1.30078125 0.9609375 C19.69520634 13.89061106 39.66067552 21.56681137 62.04296875 23.67578125 C65 24 65 24 67 25 C67 25.66 67 26.32 67 27 C42.75803827 27.94245208 15.38186374 21.7583943 -3 5 C-2.01 3.35 -1.02 1.7 0 0 Z " fill="#9DC73E" transform="translate(142,440)"/>
<path d="M0 0 C0.99 0 1.98 0 3 0 C2.00462425 22.04757296 -9.30902928 43.7501409 -25 59 C-25.99 59.66 -26.98 60.32 -28 61 C-26.44069908 57.47926265 -24.29103557 54.79676694 -21.875 51.8125 C-12.00262836 39.0678005 -6.7076523 23.58882925 -3.50390625 7.9453125 C-2.75915298 5.07021849 -1.45266886 2.57518571 0 0 Z " fill="#236E38" transform="translate(240,332)"/>
<path d="M0 0 C1.32 0.33 2.64 0.66 4 1 C-0.42308361 9.51405856 -6.99898714 21.49949357 -16 26 C-14.38937849 22.36533541 -12.13544336 19.49355642 -9.6875 16.375 C-5.72564357 11.17346591 -2.6309631 5.97585589 0 0 Z " fill="#1A4123" transform="translate(228,367)"/>
<path d="M0 0 C0.33 0 0.66 0 1 0 C0.49279908 10.82873964 -1.87575751 21.39945425 -4 32 C-4.66 31.34 -5.32 30.68 -6 30 C-6.66 30.66 -7.32 31.32 -8 32 C-6.48030274 24.92529287 -4.72008263 17.93380613 -2.875 10.9375 C-2.59785156 9.88111328 -2.32070312 8.82472656 -2.03515625 7.73632812 C-1.35826901 5.15715434 -0.67985409 2.57839302 0 0 Z " fill="#D5E381" transform="translate(155,60)"/>
<path d="M0 0 C0.33 0 0.66 0 1 0 C1.02726927 2.35424675 1.04696719 4.70816962 1.0625 7.0625 C1.07410156 8.37347656 1.08570313 9.68445313 1.09765625 11.03515625 C1.00452335 14.8163519 0.61448726 18.27920707 0 22 C-0.33 22 -0.66 22 -1 22 C-1 20.02 -1 18.04 -1 16 C-1.99 16 -2.98 16 -4 16 C-3.71767279 13.89455987 -3.4238102 11.79066411 -3.125 9.6875 C-2.96257812 8.51574219 -2.80015625 7.34398438 -2.6328125 6.13671875 C-2 3 -2 3 0 0 Z " fill="#91CD85" transform="translate(155,73)"/>
<path d="M0 0 C2.01003635 3.01505452 2.99171541 5.57496212 4.125 9 C4.47820312 10.051875 4.83140625 11.10375 5.1953125 12.1875 C6 15 6 15 6 18 C4.68 18.33 3.36 18.66 2 19 C0.48766299 12.53205867 -0.21432579 6.64409958 0 0 Z " fill="#78C16A" transform="translate(280,263)"/>
<path d="M0 0 C2.96175123 0.61277612 4.38058783 1.25372522 7 3 C6.6875 4.875 6.6875 4.875 6 7 C5.01 7.66 4.02 8.32 3 9 C1.02 7.35 -0.96 5.7 -3 4 C-2.01 2.68 -1.02 1.36 0 0 Z " fill="#A7CD4D" transform="translate(135,436)"/>
<path d="M0 0 C-0.33 2.97 -0.66 5.94 -1 9 C-2.32 9 -3.64 9 -5 9 C-5.66 10.32 -6.32 11.64 -7 13 C-6.67 9.04 -6.34 5.08 -6 1 C-2 0 -2 0 0 0 Z " fill="#519F45" transform="translate(245,324)"/>
<path d="M0 0 C0.66 0.33 1.32 0.66 2 1 C-0.31 3.97 -2.62 6.94 -5 10 C-5.66 9.01 -6.32 8.02 -7 7 C-4.69 4.69 -2.38 2.38 0 0 Z M-9 8 C-8.34 8.33 -7.68 8.66 -7 9 C-9.64 11.64 -12.28 14.28 -15 17 C-15 14 -15 14 -13.6875 12.39453125 C-13.130625 11.87246094 -12.57375 11.35039062 -12 10.8125 C-11.443125 10.28269531 -10.88625 9.75289062 -10.3125 9.20703125 C-9.6628125 8.60955078 -9.6628125 8.60955078 -9 8 Z " fill="#506E45" transform="translate(102,215)"/>
<path d="M0 0 C0.66 0.33 1.32 0.66 2 1 C0.89973587 4.3007924 0.17290663 4.92480282 -2.4375 7.0625 C-7.58636904 11.41707889 -12.27849064 16.19141362 -17 21 C-17 16.37914241 -14.12531102 14.20426624 -11 11 C-8.97947725 9.17734389 -6.92949864 7.40919118 -4.83203125 5.67578125 C-2.92830029 3.9344154 -1.48187938 2.1058286 0 0 Z " fill="#2B602D" transform="translate(176,144)"/>
<path d="M0 0 C0.40729228 2.32156597 0.74438677 4.6568787 1 7 C0.34 6.34 -0.32 5.68 -1 5 C-1.99 5.66 -2.98 6.32 -4 7 C-4.66 4.69 -5.32 2.38 -6 0 C-2.25 -1.125 -2.25 -1.125 0 0 Z " fill="#3C9C45" transform="translate(234,188)"/>
<path d="M0 0 C0.33 0 0.66 0 1 0 C0.22095672 11.52164009 0.22095672 11.52164009 -2 17 C-2.66 17 -3.32 17 -4 17 C-2.68 11.39 -1.36 5.78 0 0 Z " fill="#CEDF58" transform="translate(155,60)"/>
<path d="M0 0 C0.99 0.33 1.98 0.66 3 1 C0.03 3.97 -2.94 6.94 -6 10 C-6 6.41087588 -5.33563446 5.89142971 -3 3.3125 C-2.443125 2.68988281 -1.88625 2.06726563 -1.3125 1.42578125 C-0.879375 0.95527344 -0.44625 0.48476563 0 0 Z " fill="#23512C" transform="translate(219,383)"/>
<path d="M0 0 C1.32 0 2.64 0 4 0 C3.67 1.32 3.34 2.64 3 4 C2.01 4 1.02 4 0 4 C-0.66 5.32 -1.32 6.64 -2 8 C-1.125 1.125 -1.125 1.125 0 0 Z " fill="#399745" transform="translate(240,329)"/>
<path d="M0 0 C2.86453858 3.41016497 4.34703566 6.90694544 6 11 C5.01 11 4.02 11 3 11 C2.49384702 9.73160474 1.99530901 8.46016898 1.5 7.1875 C1.2215625 6.47980469 0.943125 5.77210938 0.65625 5.04296875 C0 3 0 3 0 0 Z " fill="#16763B" transform="translate(268,214)"/>
<path d="M0 0 C0.99 0 1.98 0 3 0 C2.34 1.32 1.68 2.64 1 4 C-0.32 4 -1.64 4 -3 4 C-1.6875 2 -1.6875 2 0 0 Z " fill="#AFD260" transform="translate(135,436)"/>
</svg>
