<?xml version="1.0" encoding="UTF-8"?>
<svg version="1.1" xmlns="http://www.w3.org/2000/svg" width="2000" height="489">
<path d="M0 0 C0.66 0 1.32 0 2 0 C23.99297423 43.4387217 39.71993449 94.91133139 24.375 143.0625 C18.04314821 161.46320912 6.87699643 177.03975908 -4 193 C-13.98792257 207.67812624 -23.48330705 222.41626396 -32 238 C-32.44037598 238.79180664 -32.88075195 239.58361328 -33.33447266 240.39941406 C-51.37012038 272.86761328 -63.42992413 308.53861128 -53.69335938 345.64990234 C-47.50965237 366.60918531 -34.59142708 383.96096544 -15.64453125 394.9453125 C0.97188069 403.76067866 18.38890039 405.71200288 36.3984375 400.3515625 C42.15696212 398.19055435 49.60805144 395.39194856 54 391 C52.93523437 390.98582031 51.87046875 390.97164063 50.7734375 390.95703125 C35.63563512 390.54832813 23.76624022 386.93978136 12 377 C11.35546875 376.46761719 10.7109375 375.93523437 10.046875 375.38671875 C-4.00907307 362.62872985 -11.09146627 341.27946719 -12.19287109 322.75634766 C-12.96236281 290.83410053 -7.31026089 262.26894577 8 234 C8.34256836 233.35111816 8.68513672 232.70223633 9.03808594 232.03369141 C13.59744845 223.40574584 18.70288297 215.41148716 24.40820312 207.49853516 C45.0806427 178.6766364 60.5835969 147.25952545 56 111 C59.01307471 113.82013941 61.19071819 116.63966864 63.328125 120.1640625 C63.95468994 121.19015625 64.58125488 122.21625 65.22680664 123.2734375 C65.89446045 124.37945312 66.56211426 125.48546875 67.25 126.625 C67.95964584 127.79200692 68.66986129 128.95866763 69.38061523 130.125 C70.48416427 131.93628953 71.58716982 133.74789217 72.68797302 135.56085205 C75.13080049 139.58297876 77.59799226 143.58906274 80.08203125 147.5859375 C94.75383079 171.20189866 108.50701416 195.15953731 121 220 C121.40299316 220.79132324 121.80598633 221.58264648 122.22119141 222.39794922 C132.71655381 243.09911406 140.34111192 265.28043523 145 288 C145.26466064 289.27689697 145.26466064 289.27689697 145.53466797 290.57958984 C153.9481624 333.1807227 146.57685366 381.27744915 123 418 C101.94979746 449.17990645 70.61443321 469.06969437 33.875 476.375 C22.89736859 478.31539337 11.86360432 478.39858267 0.75 478.4375 C-0.50469086 478.44689606 -0.50469086 478.44689606 -1.784729 478.45648193 C-17.35162041 478.53015013 -32.94487349 477.10042313 -47.875 472.4375 C-48.68469238 472.18774414 -49.49438477 471.93798828 -50.32861328 471.68066406 C-70.56601378 465.12242689 -87.6773599 454.67005747 -103 440 C-103.74636719 439.31679688 -104.49273437 438.63359375 -105.26171875 437.9296875 C-131.71914247 412.90364273 -145.20874526 373.08796537 -146.28959656 337.36514282 C-146.36891504 333.43055963 -146.3851976 329.49778808 -146.375 325.5625 C-146.37412384 324.73095398 -146.37324768 323.89940796 -146.37234497 323.04266357 C-146.17123236 264.9176388 -117.75721616 210.82125773 -88.73925781 161.93457031 C-87.04362459 159.07360579 -85.35981478 156.20603016 -83.6796875 153.3359375 C-77.37363236 142.5804419 -70.9069317 131.9372005 -64.3203125 121.3515625 C-58.47289495 111.94635792 -52.7375198 102.47249346 -47 93 C-46.47519043 92.13487793 -45.95038086 91.26975586 -45.40966797 90.37841797 C-35.01658869 73.23033191 -24.61786043 56.04829054 -15.93994141 37.95361328 C-14.96632382 35.93000603 -13.97390062 33.91628813 -12.98046875 31.90234375 C-7.91668254 21.51772023 -3.82733214 10.8959362 0 0 Z " fill="#559447" transform="translate(153,4)"/>
<path d="M0 0 C3.01307471 2.82013941 5.19071819 5.63966864 7.328125 9.1640625 C7.95468994 10.19015625 8.58125488 11.21625 9.22680664 12.2734375 C9.89446045 13.37945312 10.56211426 14.48546875 11.25 15.625 C11.95964584 16.79200692 12.66986129 17.95866763 13.38061523 19.125 C14.48416427 20.93628953 15.58716982 22.74789217 16.68797302 24.56085205 C19.13080049 28.58297876 21.59799226 32.58906274 24.08203125 36.5859375 C32.82079629 50.65449457 41.28644278 64.84941911 49.4375 79.26660156 C50.74943853 81.56167403 52.09431273 83.82809925 53.46875 86.0859375 C62.90302366 101.95207625 65.89498496 121.11573801 69.85839844 138.91943359 C71.51408663 146.24871818 73.54122001 153.28428499 76.1171875 160.33984375 C77 163 77 163 77 166 C76.01 166.33 75.02 166.66 74 167 C74.01571045 168.68403931 74.01571045 168.68403931 74.03173828 170.40209961 C74.06852791 174.65336795 74.09110994 178.90462294 74.10986328 183.15600586 C74.11978893 184.97992332 74.13333383 186.80382546 74.15087891 188.62768555 C74.45034438 220.60883685 68.69851732 250.48487639 54 279 C53.34 279 52.68 279 52 279 C51.90203125 279.55816406 51.8040625 280.11632812 51.703125 280.69140625 C47.09267101 295.82906351 28.29235441 309.80550104 15 317 C2.52367632 323.18439711 -10.83320248 327.37102987 -24.5625 329.625 C-25.86316406 329.84414063 -27.16382813 330.06328125 -28.50390625 330.2890625 C-32 330 -32 330 -33.49462891 328.76171875 C-34.75539449 327.24676282 -35.88323308 325.6240237 -37 324 C-38.11375 322.88625 -38.11375 322.88625 -39.25 321.75 C-47.31375817 313.68624183 -55.48123165 305.12213714 -59 294 C-58.625 291.6875 -58.625 291.6875 -58 290 C-57.47535156 290.144375 -56.95070312 290.28875 -56.41015625 290.4375 C-38.28354192 294.78064886 -21.4561327 291.60220678 -5.4140625 282.48828125 C-3.13358389 281.21052736 -3.13358389 281.21052736 -2 280 C-3.06476563 279.98582031 -4.12953125 279.97164063 -5.2265625 279.95703125 C-20.36436488 279.54832813 -32.23375978 275.93978136 -44 266 C-44.64453125 265.46761719 -45.2890625 264.93523437 -45.953125 264.38671875 C-60.00907307 251.62872985 -67.09146627 230.27946719 -68.19287109 211.75634766 C-68.96236281 179.83410053 -63.31026089 151.26894577 -48 123 C-47.65743164 122.35111816 -47.31486328 121.70223633 -46.96191406 121.03369141 C-42.40255155 112.40574584 -37.29711703 104.41148716 -31.59179688 96.49853516 C-10.9193573 67.6766364 4.5835969 36.25952545 0 0 Z " fill="#82AD53" transform="translate(209,115)"/>
<path d="M0 0 C0.66 0 1.32 0 2 0 C22.4512401 40.39361471 40.23336927 92.18818432 25.8984375 137.48046875 C25.45371094 138.72763672 25.45371094 138.72763672 25 140 C24.34 140 23.68 140 23 140 C22.73832031 140.58910156 22.47664062 141.17820313 22.20703125 141.78515625 C20.9357725 144.11785434 19.59769469 145.60354368 17.6875 147.4375 C16.74777344 148.35208984 16.74777344 148.35208984 15.7890625 149.28515625 C15.19867188 149.85105469 14.60828125 150.41695312 14 151 C10.90759789 154.01310974 8.01627642 157.11695401 5.1875 160.375 C2.05354667 163.92408521 -1.20096141 167.07461678 -4.8125 170.12890625 C-7.37083677 172.31719788 -9.83729489 174.59317029 -12.3125 176.875 C-15.99013168 180.23726077 -19.73688312 183.44656857 -23.625 186.5625 C-27.99736667 190.08900342 -31.95479135 193.84579649 -35.87109375 197.8671875 C-38.53950477 200.54049469 -41.3666277 202.98883335 -44.2265625 205.453125 C-52.33911181 212.44831852 -52.33911181 212.44831852 -57.92578125 221.38671875 C-59.20090772 224.48875368 -60.91813048 226.68413974 -63 229.3125 C-86.73031433 260.11110979 -102.84858773 297.16501833 -111 335 C-111.17934082 335.8048584 -111.35868164 336.6097168 -111.54345703 337.43896484 C-116.7036975 361.48763268 -116.0943165 389.48741177 -109.8984375 413.23828125 C-109 417 -109 417 -109 421 C-108.34 421.33 -107.68 421.66 -107 422 C-106.25390625 423.96875 -106.25390625 423.96875 -105.5625 426.5 C-104.18234387 431.38687936 -102.63689986 436.19378339 -101 441 C-128.3479515 418.77978941 -140.60320085 382.83331505 -145.58203125 349.05078125 C-152.55746957 280.93680835 -122.64611712 219.05761159 -88.73925781 161.93457031 C-87.04362459 159.07360579 -85.35981478 156.20603016 -83.6796875 153.3359375 C-77.37363236 142.5804419 -70.9069317 131.9372005 -64.3203125 121.3515625 C-58.47289495 111.94635792 -52.7375198 102.47249346 -47 93 C-46.47519043 92.13487793 -45.95038086 91.26975586 -45.40966797 90.37841797 C-35.01658869 73.23033191 -24.61786043 56.04829054 -15.93994141 37.95361328 C-14.96632382 35.93000603 -13.97390062 33.91628813 -12.98046875 31.90234375 C-7.91668254 21.51772023 -3.82733214 10.8959362 0 0 Z M-60 219 C-62.31 221.31 -64.62 223.62 -67 226 C-66.67 226.66 -66.34 227.32 -66 228 C-63.36 225.36 -60.72 222.72 -58 220 C-58.66 219.67 -59.32 219.34 -60 219 Z " fill="#75AC5E" transform="translate(153,4)"/>
<path d="M0 0 C6.81214707 5.12871075 14.66424589 11.16302381 16.0625 20.0625 C15.97590361 25.08509036 15.97590361 25.08509036 15 27.6875 C14.34 27.6875 13.68 27.6875 13 27.6875 C12.6596875 28.8321875 12.6596875 28.8321875 12.3125 30 C10.66784972 33.36761723 9.40460849 34.17434067 6 35.6875 C-0.13988937 37.37295983 -5.3317343 36.37488163 -11 33.6875 C-12.96663619 32.09412334 -14.60358451 30.39866187 -16.30078125 28.5234375 C-22.72140919 21.58620731 -30.88291316 17.79948571 -40 15.6875 C-40 15.0275 -40 14.3675 -40 13.6875 C-51.13561789 12.91584204 -61.87184104 12.50751577 -73 13.6875 C-73 14.3475 -73 15.0075 -73 15.6875 C-73.72445313 15.94144531 -74.44890625 16.19539063 -75.1953125 16.45703125 C-89.80763026 21.65901637 -98.60735834 29.50463477 -105.9375 43.296875 C-113.37492266 60.03107599 -112.29045597 79.33731464 -108 96.6875 C-107.78730469 97.58082031 -107.57460937 98.47414063 -107.35546875 99.39453125 C-106.92469532 101.1641113 -106.46703365 102.9271424 -106 104.6875 C-105.34 104.6875 -104.68 104.6875 -104 104.6875 C-103.68546875 105.35136719 -103.3709375 106.01523437 -103.046875 106.69921875 C-99.36180375 114.3024531 -96.22728791 119.0743375 -89 123.6875 C-88.56558594 124.16703125 -88.13117188 124.6465625 -87.68359375 125.140625 C-85.39644527 127.24204216 -82.99507384 128.14586151 -80.125 129.3125 C-78.58199219 129.95058594 -78.58199219 129.95058594 -77.0078125 130.6015625 C-74.32560232 131.56994488 -71.80698302 132.22139581 -69 132.6875 C-69 133.3475 -69 134.0075 -69 134.6875 C-61.08 134.6875 -53.16 134.6875 -45 134.6875 C-45 134.0275 -45 133.3675 -45 132.6875 C-43.90300781 132.34976563 -42.80601563 132.01203125 -41.67578125 131.6640625 C-40.22132093 131.21364898 -38.76689569 130.76312216 -37.3125 130.3125 C-36.59126953 130.09078125 -35.87003906 129.8690625 -35.12695312 129.640625 C-31.3471027 128.46697281 -27.65079726 127.22846768 -24 125.6875 C-24 125.0275 -24 124.3675 -24 123.6875 C-22.28515625 122.25 -22.28515625 122.25 -20.0625 120.6875 C-17.01367363 118.63933196 -17.01367363 118.63933196 -15 115.6875 C-14.84588894 113.6567523 -14.75017547 111.62143579 -14.68359375 109.5859375 C-14.64169922 108.37421875 -14.59980469 107.1625 -14.55664062 105.9140625 C-14.51732422 104.64304687 -14.47800781 103.37203125 -14.4375 102.0625 C-14.37272461 100.144375 -14.37272461 100.144375 -14.30664062 98.1875 C-14.20030114 95.02094652 -14.09827167 91.85431247 -14 88.6875 C-14.55043976 88.69416183 -15.10087952 88.70082367 -15.66799927 88.70768738 C-21.41076806 88.77419522 -27.15342695 88.81936455 -32.89648438 88.85229492 C-35.03813117 88.86735641 -37.17974724 88.88780972 -39.32128906 88.91381836 C-42.40437411 88.95031728 -45.48705038 88.96725302 -48.5703125 88.98046875 C-49.52366486 88.99595261 -50.47701721 89.01143646 -51.45925903 89.02738953 C-56.74167949 89.02871877 -60.43763377 88.66557301 -65 85.6875 C-67.89528097 82.4927072 -68.88946342 79.81497311 -69.3125 75.5 C-68.94081201 70.96540646 -67.90059835 67.25508086 -65 63.6875 C-60.57939799 61.05549458 -57.30518756 60.30700729 -52.18774414 60.28344727 C-51.53486923 60.27658401 -50.88199432 60.26972076 -50.20933533 60.26264954 C-48.0677162 60.24446369 -45.92683544 60.2482069 -43.78515625 60.25390625 C-42.28592188 60.24934039 -40.7866896 60.24403361 -39.28746033 60.23802185 C-36.15127031 60.22910686 -33.01533516 60.23149521 -29.87915039 60.24145508 C-25.87321561 60.25294156 -21.86816277 60.23273099 -17.86234379 60.20353794 C-14.76780165 60.18513325 -11.6734692 60.18547683 -8.57888603 60.19117546 C-7.10259197 60.19132816 -5.62628322 60.18532627 -4.15004158 60.17288399 C10.75932131 60.06491657 10.75932131 60.06491657 16 64.6875 C19.70764475 70.55659657 19.43754901 76.45557621 19.3984375 83.24609375 C19.40274277 84.90077415 19.40274277 84.90077415 19.40713501 86.58888245 C19.40917033 88.91448482 19.40367783 91.24010451 19.39111328 93.56567383 C19.37506822 97.10993058 19.39097304 100.65304435 19.41015625 104.19726562 C19.40817343 106.46354417 19.40432894 108.729822 19.3984375 110.99609375 C19.40451019 112.04840683 19.41058289 113.10071991 19.4168396 114.18492126 C19.34699403 121.55511605 18.66904882 127.58563246 13.6875 133.375 C10.81746684 135.84456341 7.91374084 138.26971505 5 140.6875 C4.071875 141.6775 4.071875 141.6775 3.125 142.6875 C-0.00244833 145.63098078 -4.54149607 149.6875 -9 149.6875 C-9 150.3475 -9 151.0075 -9 151.6875 C-11.26807204 152.6942004 -13.53907754 153.69301766 -15.8125 154.6875 C-16.45509766 154.97367188 -17.09769531 155.25984375 -17.75976562 155.5546875 C-20.67756469 156.82461041 -22.78265714 157.6875 -26 157.6875 C-26 158.3475 -26 159.0075 -26 159.6875 C-28.54093855 160.33631448 -31.08268273 160.98162899 -33.625 161.625 C-34.33785156 161.80740234 -35.05070312 161.98980469 -35.78515625 162.17773438 C-60.61718058 168.44269464 -85.9322673 164.47870398 -108 151.6875 C-111.25035923 149.56696733 -114.17521764 147.34414055 -117 144.6875 C-117.86625 143.883125 -118.7325 143.07875 -119.625 142.25 C-120.40875 141.404375 -121.1925 140.55875 -122 139.6875 C-122.54269531 139.10355469 -123.08539062 138.51960937 -123.64453125 137.91796875 C-139.09729339 120.84923148 -145.35003418 101.43630359 -146 78.6875 C-146.03996094 77.80449219 -146.07992188 76.92148438 -146.12109375 76.01171875 C-146.48546029 61.88715718 -144.09111781 48.15244114 -140 34.6875 C-139.34 34.6875 -138.68 34.6875 -138 34.6875 C-137.85304688 34.14222656 -137.70609375 33.59695312 -137.5546875 33.03515625 C-135.68703294 26.75597283 -132.78720793 21.9875873 -129 16.6875 C-128.319375 15.615 -127.63875 14.5425 -126.9375 13.4375 C-122.9396579 7.76314347 -118.00381551 4.16422714 -112.3046875 0.3359375 C-110.03664707 -1.17560086 -110.03664707 -1.17560086 -108.5390625 -2.85546875 C-106.42707502 -4.85488837 -104.14689551 -5.8153008 -101.5 -7 C-100.06140625 -7.65548828 -100.06140625 -7.65548828 -98.59375 -8.32421875 C-96 -9.3125 -96 -9.3125 -93 -9.3125 C-93 -9.9725 -93 -10.6325 -93 -11.3125 C-90.45906145 -11.96131448 -87.91731727 -12.60662899 -85.375 -13.25 C-84.66214844 -13.43240234 -83.94929688 -13.61480469 -83.21484375 -13.80273438 C-82.51230469 -13.97998047 -81.80976562 -14.15722656 -81.0859375 -14.33984375 C-80.4470459 -14.50218506 -79.8081543 -14.66452637 -79.14990234 -14.83178711 C-52.24437688 -20.84779661 -22.46873239 -16.13298254 0 0 Z " fill="#FFFFFF" transform="translate(1374,170.3125)"/>
<path d="M0 0 C1.34508215 0.00119569 2.69016515 0.00164414 4.0352478 0.00138855 C6.84760817 0.00294612 9.65983996 0.01117319 12.47216797 0.0246582 C16.03538319 0.04154788 19.59845636 0.04547468 23.16170692 0.04471302 C25.93994444 0.0449883 28.71815234 0.05052759 31.49637985 0.05771446 C33.43578485 0.06234663 35.37519594 0.06415771 37.31460571 0.06587219 C61.33566046 0.19206605 83.44440969 3.37829008 101.1484375 21.23046875 C111.66087552 32.19799067 116.21895335 46.34118496 117.1484375 61.23046875 C117.20644531 62.02582031 117.26445312 62.82117188 117.32421875 63.640625 C117.58068598 70.86220229 116.20009135 78.10363599 115.1484375 85.23046875 C114.4884375 85.23046875 113.8284375 85.23046875 113.1484375 85.23046875 C113.0659375 86.03484375 112.9834375 86.83921875 112.8984375 87.66796875 C111.52480649 94.19271605 109.21800209 99.77539684 104.1484375 104.23046875 C103.3234375 105.24109375 102.4984375 106.25171875 101.6484375 107.29296875 C99.56959842 109.73560467 97.85316507 111.55167233 95.1484375 113.23046875 C94.4884375 113.23046875 93.8284375 113.23046875 93.1484375 113.23046875 C93.1484375 113.89046875 93.1484375 114.55046875 93.1484375 115.23046875 C91.21473519 116.23779274 89.27633444 117.23610163 87.3359375 118.23046875 C86.25699219 118.78734375 85.17804688 119.34421875 84.06640625 119.91796875 C81.1484375 121.23046875 81.1484375 121.23046875 78.1484375 121.23046875 C78.1484375 121.89046875 78.1484375 122.55046875 78.1484375 123.23046875 C75.50414099 123.88319407 72.85826244 124.52773703 70.2109375 125.16796875 C69.10782227 125.44157227 69.10782227 125.44157227 67.98242188 125.72070312 C67.24443359 125.89794922 66.50644531 126.07519531 65.74609375 126.2578125 C64.74848022 126.50132446 64.74848022 126.50132446 63.73071289 126.74975586 C56.18901257 128.15370858 48.64229124 128.41656173 40.98828125 128.546875 C39.95780167 128.5676561 38.92732208 128.58843719 37.86561584 128.60984802 C34.6057844 128.67471575 31.34587925 128.73393366 28.0859375 128.79296875 C25.86262289 128.83621381 23.63931546 128.87982992 21.41601562 128.92382812 C15.99356526 129.03033183 10.57104319 129.13220931 5.1484375 129.23046875 C5.16938477 130.28959473 5.19033203 131.3487207 5.21191406 132.43994141 C5.28457135 136.38706832 5.33033004 140.33413667 5.36816406 144.28173828 C5.38822119 145.98691769 5.41547407 147.69202881 5.45019531 149.39697266 C5.49897611 151.85466399 5.52146469 154.31144241 5.5390625 156.76953125 C5.55970764 157.52601959 5.58035278 158.28250793 5.60162354 159.06192017 C5.60428292 165.40216265 3.29942979 168.81875012 -0.9140625 173.54296875 C-5.13607479 177.22020526 -10.36342157 176.55698931 -15.67578125 176.515625 C-20.95951306 176.04119398 -23.18740093 174.12416985 -26.6640625 170.16796875 C-28.93846118 166.45710774 -28.9806824 163.35579901 -28.99200439 159.10160828 C-29.00056961 157.17738037 -29.00056961 157.17738037 -29.00930786 155.21427917 C-29.01055321 153.7895814 -29.01167831 152.36488351 -29.01269531 150.94018555 C-29.01732385 149.44210691 -29.02234856 147.94402945 -29.02774048 146.44595337 C-29.04086318 142.37354443 -29.0473092 138.30115198 -29.05175114 134.22872519 C-29.05468212 131.68435491 -29.05878699 129.13998913 -29.06325531 126.59562111 C-29.07693002 118.63463381 -29.08659675 110.67365681 -29.0904572 102.71265858 C-29.09493778 93.52333153 -29.11248573 84.33415323 -29.1414578 75.14487141 C-29.16307558 68.04158813 -29.17316154 60.93834669 -29.17449832 53.83503085 C-29.1755463 49.59267224 -29.18145249 45.35045347 -29.19931793 41.1081295 C-29.21580028 37.11656384 -29.2179534 33.12524312 -29.20917892 29.13365555 C-29.20840863 27.67035198 -29.21275033 26.20703524 -29.22263718 24.74376488 C-29.23536288 22.74264341 -29.22768591 20.74142347 -29.21905518 18.74028015 C-29.22052174 17.62143275 -29.2219883 16.50258535 -29.2234993 15.34983349 C-28.68607132 10.842525 -26.86106837 7.57647657 -24.1640625 3.98046875 C-17.41494186 -1.1269739 -8.01581708 -0.04531814 0 0 Z M5.1484375 30.23046875 C5.1484375 53.00046875 5.1484375 75.77046875 5.1484375 99.23046875 C12.9653125 99.25109375 20.7821875 99.27171875 28.8359375 99.29296875 C31.29635498 99.30207275 33.75677246 99.31117676 36.29174805 99.32055664 C38.24788356 99.32347801 40.20401968 99.32602605 42.16015625 99.328125 C43.17098267 99.33324097 44.18180908 99.33835693 45.2232666 99.34362793 C46.6841571 99.3438092 46.6841571 99.3438092 48.17456055 99.34399414 C49.01617233 99.34621475 49.85778412 99.34843536 50.72489929 99.35072327 C53.28270132 99.22380666 55.65298361 98.79234463 58.1484375 98.23046875 C58.1484375 97.57046875 58.1484375 96.91046875 58.1484375 96.23046875 C59.1178125 96.16859375 60.0871875 96.10671875 61.0859375 96.04296875 C66.73950371 95.20582812 71.93412204 92.61946339 75.83203125 88.4140625 C78.35216575 85.14984176 78.35216575 85.14984176 79.1484375 81.23046875 C79.8084375 81.23046875 80.4684375 81.23046875 81.1484375 81.23046875 C85.11911214 71.17142634 85.20145591 59.66873177 81.07421875 49.61328125 C79.88124633 47.3778692 78.59197745 45.31136114 77.1484375 43.23046875 C76.065625 41.62171875 76.065625 41.62171875 74.9609375 39.98046875 C65.84910692 31.0711233 53.9145783 29.90967966 41.76953125 30.03515625 C40.83500122 30.03717041 39.90047119 30.03918457 38.93762207 30.04125977 C35.48700975 30.05162828 32.03646806 30.07954992 28.5859375 30.10546875 C16.984375 30.16734375 16.984375 30.16734375 5.1484375 30.23046875 Z " fill="#FFFFFF" transform="translate(374.8515625,155.76953125)"/>
<path d="M0 0 C2.7421875 2.55078125 2.7421875 2.55078125 5 5 C5.52464844 5.56203125 6.04929687 6.1240625 6.58984375 6.703125 C14.788021 16.11320671 19.91609547 25.88466077 23 38 C23.17039795 38.6408252 23.3407959 39.28165039 23.51635742 39.94189453 C24.96558202 45.79926127 25.27313806 51.29529932 25.1875 57.3125 C25.1865332 58.63217773 25.1865332 58.63217773 25.18554688 59.97851562 C25.13396266 67.52700544 25.13396266 67.52700544 24 71 C22.36328125 72.44921875 22.36328125 72.44921875 20.3125 73.6875 C19.64863281 74.10386719 18.98476562 74.52023437 18.30078125 74.94921875 C12.7742344 77.47322741 6.73251109 77.13875356 0.78173828 77.11352539 C-0.12621994 77.11367142 -1.03417816 77.11381744 -1.96965027 77.1139679 C-4.95635406 77.11327391 -7.94299467 77.10550563 -10.9296875 77.09765625 C-13.00619472 77.09579024 -15.08270239 77.0943672 -17.15921021 77.09336853 C-22.61390405 77.08955774 -28.0685711 77.07973975 -33.52325439 77.06866455 C-39.09362424 77.05841949 -44.66399844 77.05386428 -50.234375 77.04882812 C-61.15626175 77.03811617 -72.07812864 77.02105704 -83 77 C-82.08034905 78.73433967 -81.15467231 80.46548472 -80.2265625 82.1953125 C-79.71174316 83.15969238 -79.19692383 84.12407227 -78.66650391 85.11767578 C-73.28073441 94.43270576 -67.14362438 98.63569791 -57 102 C-57 102.66 -57 103.32 -57 104 C-39.19098283 104.96038671 -25.11906835 103.78413198 -11 92 C-6.28263716 89.14475407 -1.23140952 89.94521174 4 91 C7.71457395 92.4657508 9.35271098 94.36013349 11.23828125 97.9375 C13.02495677 102.77526756 12.57135504 107.31954401 10.9375 112.125 C6.35847544 118.9196816 0.59155379 123.80742796 -7 127 C-7.99 127 -8.98 127 -10 127 C-10 127.66 -10 128.32 -10 129 C-12.37407592 129.64939736 -14.7491639 130.29460053 -17.125 130.9375 C-17.79015625 131.11990234 -18.4553125 131.30230469 -19.140625 131.49023438 C-37.80739264 136.52294134 -57.75265621 135.08244793 -76 129 C-76 128.34 -76 127.68 -76 127 C-76.72703125 126.88785156 -77.4540625 126.77570313 -78.203125 126.66015625 C-89.46869461 124.00110421 -98.76532412 114.25754903 -105 105 C-105.66 104.67 -106.32 104.34 -107 104 C-113.49650709 90.82602462 -117.19947467 78.59452619 -117.1875 63.875 C-117.18737915 62.48873413 -117.18737915 62.48873413 -117.18725586 61.07446289 C-117.11610525 52.49369901 -116.17344136 44.32173494 -114 36 C-113.34 36 -112.68 36 -112 36 C-111.9175 35.195625 -111.835 34.39125 -111.75 33.5625 C-109.482976 22.79413599 -102.53901812 10.97005769 -93.625 4.375 C-92.68527344 3.76785156 -92.68527344 3.76785156 -91.7265625 3.1484375 C-89.97034601 2.07676312 -89.97034601 2.07676312 -88.69921875 0.6015625 C-66.24709082 -20.56021325 -23.79127307 -15.56140516 0 0 Z M-55 17 C-55 17.66 -55 18.32 -55 19 C-55.825 19.0825 -56.65 19.165 -57.5 19.25 C-65.92169384 21.05464868 -70.16418714 24.7978606 -75.43359375 31.5625 C-76.87311675 33.80255574 -77.5726438 35.39974821 -78 38 C-78.66 38 -79.32 38 -80 38 C-80.50559908 39.43554025 -81.0042749 40.8735202 -81.5 42.3125 C-81.7784375 43.11300781 -82.056875 43.91351563 -82.34375 44.73828125 C-83.13933107 47.08769422 -83.13933107 47.08769422 -83 50 C-57.59 50 -32.18 50 -6 50 C-7.64102568 40.45728484 -7.64102568 40.45728484 -11 32 C-11.66 32 -12.32 32 -13 32 C-13.2475 31.443125 -13.495 30.88625 -13.75 30.3125 C-17.17319107 23.97959652 -21.20919106 21.14006127 -28 19 C-29.32 19 -30.64 19 -32 19 C-32 18.34 -32 17.68 -32 17 C-39.68618813 15.66327163 -47.32557751 15.38433211 -55 17 Z " fill="#FFFFFF" transform="translate(1772,201)"/>
<path d="M0 0 C0 0.66 0 1.32 0 2 C1.09828125 2.17789063 1.09828125 2.17789063 2.21875 2.359375 C4.99442421 2.99871569 7.0203173 3.87045822 9.5 5.25 C10.2321875 5.64703125 10.964375 6.0440625 11.71875 6.453125 C14.51312579 8.34794146 16.66520744 10.56400901 19 13 C19.80179688 13.78117187 20.60359375 14.56234375 21.4296875 15.3671875 C35.16898999 29.45765427 39.16117537 46.30000546 39.375 65.625 C39.38909912 66.57383057 39.40319824 67.52266113 39.41772461 68.50024414 C39.38279932 73.4370887 39.32148697 77.05818804 36 81 C29.36336275 85.12946317 22.53501758 85.15279043 14.96533203 85.20532227 C14.07688095 85.21522186 13.18842987 85.22512146 12.27305603 85.23532104 C9.35133482 85.26677979 6.42959738 85.2916314 3.5078125 85.31640625 C1.47614125 85.33698928 -0.55552584 85.3579861 -2.58718872 85.37937927 C-7.9234683 85.43446059 -13.25978564 85.48393114 -18.59613037 85.53222656 C-24.04589175 85.5825436 -29.4955986 85.63817632 -34.9453125 85.69335938 C-45.6301617 85.80077036 -56.31505833 85.90225295 -67 86 C-66.22754825 87.75476579 -65.44901717 89.50685618 -64.66796875 91.2578125 C-64.0186438 92.72178467 -64.0186438 92.72178467 -63.35620117 94.21533203 C-59.48651154 102.16090899 -54.03116968 105.65483122 -46 109 C-45.01 109.33 -44.02 109.66 -43 110 C-43 110.66 -43 111.32 -43 112 C-34.09 112 -25.18 112 -16 112 C-16 111.34 -16 110.68 -16 110 C-15.26394531 109.74605469 -14.52789063 109.49210937 -13.76953125 109.23046875 C-12.30580078 108.71419922 -12.30580078 108.71419922 -10.8125 108.1875 C-9.84957031 107.85105469 -8.88664062 107.51460938 -7.89453125 107.16796875 C-4.38469626 105.75171954 -1.14956614 104.24952841 1.4375 101.4375 C4.29448172 98.80907681 7.39513476 97.9777102 11.25 98.03125 C15.24451433 98.39916579 18.53556309 98.85534858 22 101 C23.25 103.625 23.25 103.625 24 106 C24.66 106 25.32 106 26 106 C27.74458037 109.48916075 27.43366378 113.18501574 27 117 C23.28661273 125.97401925 15.70426306 131.24816247 7 135 C6.34 135 5.68 135 5 135 C5 135.66 5 136.32 5 137 C-20.57703837 144.45996952 -46.5457058 145.20361105 -70.48413086 132.43774414 C-74.61282908 130.09575193 -77.74939306 127.50708708 -81 124 C-81.69222656 123.34257812 -82.38445312 122.68515625 -83.09765625 122.0078125 C-87.31908116 117.96262998 -90.46341471 114.28455269 -93 109 C-93 108.34 -93 107.68 -93 107 C-93.66 107 -94.32 107 -95 107 C-100.73071169 91.89176009 -103.92249872 78.25016968 -103 62 C-102.505 61.505 -102.505 61.505 -102 61 C-101.66824601 59.14471338 -101.34237779 57.28813691 -101.04980469 55.42626953 C-98.31691859 38.06765472 -91.78699999 22.76076894 -77.88671875 11.25 C-76 10 -76 10 -74 10 C-73.67 9.01 -73.34 8.02 -73 7 C-70.8203125 5.61328125 -70.8203125 5.61328125 -68.125 4.3125 C-67.24070312 3.87550781 -66.35640625 3.43851563 -65.4453125 2.98828125 C-63 2 -63 2 -60 2 C-60 1.34 -60 0.68 -60 0 C-40.64954002 -6.03691231 -19.3053635 -6.43512117 0 0 Z M-40 25 C-40 25.66 -40 26.32 -40 27 C-40.99 27.061875 -41.98 27.12375 -43 27.1875 C-50.65808641 28.3145974 -57.39552818 34.00295622 -62 40 C-65.24925695 45.82803231 -67.16264066 51.56924231 -69 58 C-43.26 58 -17.52 58 9 58 C9 57.34 9 56.68 9 56 C8.34 56 7.68 56 7 56 C6.9175 54.700625 6.835 53.40125 6.75 52.0625 C5.6349856 42.57744415 1.44451824 35.93888533 -6 30 C-9.84368695 27.64317138 -13.45851159 26.58713742 -18 27 C-18 26.34 -18 25.68 -18 25 C-25.43848839 23.73387432 -32.56588188 23.47505269 -40 25 Z " fill="#FFFFFF" transform="translate(1600,193)"/>
<path d="M0 0 C0.36351562 -0.48210937 0.72703125 -0.96421875 1.1015625 -1.4609375 C4.37191345 -5.56983997 6.62921108 -8.05221372 12 -9 C17.89785475 -9.47820444 23.72839464 -9.62517631 28.55930614 -5.7487936 C32.99021662 -1.24929488 33.71371995 2.368695 33.82427979 8.58781433 C33.81370544 9.70021988 33.8031311 10.81262543 33.79223633 11.95874023 C33.80435654 13.14660126 33.81647675 14.33446228 33.82896423 15.55831909 C33.85498968 18.80055295 33.8541406 22.04132154 33.83888459 25.2835834 C33.82970066 27.99723036 33.83945641 30.71067562 33.84922332 33.42431027 C33.87209207 39.82969449 33.86460259 46.23453994 33.8371582 52.63989258 C33.80936046 59.23244251 33.82871053 65.82363378 33.87203389 72.41606945 C33.90788533 78.09113011 33.91633628 83.7657734 33.90264148 89.4409309 C33.894622 92.82390782 33.89627095 96.20612453 33.92350197 99.58901787 C33.94604651 103.36427997 33.92372087 107.1367431 33.88989258 110.91186523 C33.90563324 112.02224655 33.9213739 113.13262787 33.93759155 114.2766571 C33.81765995 121.06743323 32.56931767 124.68311597 27.79293346 129.57731724 C24.32407599 132.32983641 20.89286702 132.19140228 16.625 132.25 C15.50351562 132.27578125 14.38203125 132.3015625 13.2265625 132.328125 C8.93831763 131.8920323 6.42153656 130.44259637 3.41796875 127.39453125 C2.27864583 125.9296875 1.13932292 124.46484375 0 123 C-0.69867187 123.3609375 -1.39734375 123.721875 -2.1171875 124.09375 C-3.02726563 124.5578125 -3.93734375 125.021875 -4.875 125.5 C-5.77992188 125.9640625 -6.68484375 126.428125 -7.6171875 126.90625 C-10 128 -10 128 -12 128 C-12 128.66 -12 129.32 -12 130 C-14.37407592 130.64939736 -16.7491639 131.29460053 -19.125 131.9375 C-19.79015625 132.11990234 -20.4553125 132.30230469 -21.140625 132.49023438 C-36.32858487 136.58502748 -55.49028011 137.25485995 -70 130 C-70 129.34 -70 128.68 -70 128 C-70.66 127.938125 -71.32 127.87625 -72 127.8125 C-78.69420238 125.99948685 -83.43654597 122.01732573 -87.67578125 116.6484375 C-88.97563032 114.96789461 -88.97563032 114.96789461 -90.53125 113.4765625 C-93.60458665 110.38687831 -96 107.41398887 -96 103 C-96.66 103 -97.32 103 -98 103 C-101.33116666 94.57989239 -103.79464941 87.14743526 -104 78 C-104.66 78 -105.32 78 -106 78 C-106 67.44 -106 56.88 -106 46 C-105.34 46 -104.68 46 -104 46 C-103.9071875 44.2365625 -103.9071875 44.2365625 -103.8125 42.4375 C-103.302413 37.74920037 -102.03320701 33.45882701 -100.5625 29 C-100.34505127 28.3289624 -100.12760254 27.6579248 -99.90356445 26.96655273 C-98.25197532 22.12598766 -98.25197532 22.12598766 -96 21 C-95.484375 20.030625 -94.96875 19.06125 -94.4375 18.0625 C-89.67476223 9.39646587 -81.97443327 2.03731337 -73.375 -2.75 C-72.61960937 -3.17796875 -71.86421875 -3.6059375 -71.0859375 -4.046875 C-69 -5 -69 -5 -66 -5 C-66 -5.66 -66 -6.32 -66 -7 C-42.88903925 -14.41669801 -20.8541482 -12.51952236 0 0 Z M-60 27 C-60 27.66 -60 28.32 -60 29 C-60.5775 29.185625 -61.155 29.37125 -61.75 29.5625 C-65.08833892 31.69532764 -66.38451876 34.50659471 -68 38 C-68.44988281 38.94746094 -68.89976562 39.89492187 -69.36328125 40.87109375 C-72.40971948 48.15680095 -73.46793478 54.46308023 -73.5 62.3125 C-73.50612305 63.13580811 -73.51224609 63.95911621 -73.51855469 64.80737305 C-73.39836005 70.67393203 -72.08798058 75.54393992 -70 81 C-69.54367187 82.37865234 -69.54367187 82.37865234 -69.078125 83.78515625 C-66.26138053 91.53120353 -62.17760461 97.59504611 -54.75 101.5 C-52.15226874 102.7053473 -50.94687987 103 -48 103 C-48 103.66 -48 104.32 -48 105 C-40.56588188 106.52494731 -33.43848839 106.26612568 -26 105 C-26 104.34 -26 103.68 -26 103 C-25.05125 102.938125 -24.1025 102.87625 -23.125 102.8125 C-18.01781892 102.09037808 -13.2779935 99.83560489 -9 97 C-8.505 95.515 -8.505 95.515 -8 94 C-7.1028125 93.5978125 -7.1028125 93.5978125 -6.1875 93.1875 C-3.02925568 91.47302451 -1.3943792 89.23911409 0 86 C0.57000702 82.35936317 0.53728648 78.76869966 0.49609375 75.08984375 C0.4982766 73.5222506 0.4982766 73.5222506 0.50050354 71.92298889 C0.49884786 69.72003381 0.48732378 67.51706676 0.46655273 65.31420898 C0.43756712 61.94530072 0.44595775 58.57796409 0.45898438 55.20898438 C0.45274746 53.06509653 0.44435689 50.92121365 0.43359375 48.77734375 C0.43652939 47.7720311 0.43946503 46.76671844 0.44248962 45.73094177 C0.37431922 40.67223202 0.30217152 37.10159611 -3 33 C-3.53496094 32.319375 -4.06992187 31.63875 -4.62109375 30.9375 C-10.24446664 24.93923559 -17.41692511 20.24373588 -25.86328125 19.875 C-26.92095703 19.936875 -26.92095703 19.936875 -28 20 C-28 19.34 -28 18.68 -28 18 C-40.26476797 17.24601836 -50.44523828 18.37656885 -60 27 Z " fill="#FFFFFF" transform="translate(662,200)"/>
<path d="M0 0 C6.92117442 5.52817856 13.07499169 11.72251641 14.40234375 20.73046875 C14.66156491 25.41541698 14.62366194 28.92360089 11.625 32.6875 C9 35 9 35 7 35 C7 35.66 7 36.32 7 37 C1.42109283 39.17713451 -3.09999278 39.3625009 -9 38.625 C-13.07572492 36.41731567 -14.83340923 33.36999018 -17.2890625 29.5078125 C-20.39162341 24.96022322 -22.88402319 22.66209916 -28.25 21.25 C-29.14203125 21.00765625 -30.0340625 20.7653125 -30.953125 20.515625 C-31.62859375 20.34546875 -32.3040625 20.1753125 -33 20 C-33 19.34 -33 18.68 -33 18 C-42.24 18 -51.48 18 -61 18 C-61 18.66 -61 19.32 -61 20 C-61.66386719 20.15855469 -62.32773437 20.31710938 -63.01171875 20.48046875 C-68.64258503 21.96833269 -72.24957284 23.28172067 -76 28 C-77.52846661 31.05693322 -77.23242445 33.62984547 -77 37 C-75.53939657 39.54151427 -74.51544405 40.76234017 -71.83911133 41.99633789 C-64.51368395 43.88876896 -57.28435165 44.71084999 -49.74743652 45.28009033 C-34.65136756 46.43365365 -19.69980525 48.2448455 -5 52 C-5 52.66 -5 53.32 -5 54 C-3.453125 54.37125 -3.453125 54.37125 -1.875 54.75 C5.04458536 56.76879251 9.98310074 61.13461612 14 67 C16.00448784 71.01648312 17 74.45637066 17 79 C17.66 79 18.32 79 19 79 C19.51640692 95.65890474 17.5221887 106.18745234 5.75 118.75 C0.93428294 123.41063465 -5.05735375 128 -12 128 C-12 128.66 -12 129.32 -12 130 C-14.51974253 130.65035371 -17.04065935 131.29537493 -19.5625 131.9375 C-20.26697266 132.11990234 -20.97144531 132.30230469 -21.69726562 132.49023438 C-41.65553349 137.54878153 -64.44743041 136.5175232 -84 130 C-84 129.34 -84 128.68 -84 128 C-85.09828125 127.82210937 -85.09828125 127.82210937 -86.21875 127.640625 C-94.70815258 125.68520081 -101.08728793 120.18709916 -105.625 112.9375 C-106.03492188 112.25042969 -106.44484375 111.56335938 -106.8671875 110.85546875 C-108.02510888 108.88052442 -108.02510888 108.88052442 -109.75 106.75 C-112.24082164 103.26284971 -112.13625366 99.55010944 -112.125 95.375 C-112.12757813 94.41335938 -112.13015625 93.45171875 -112.1328125 92.4609375 C-112 90 -112 90 -111 88 C-110.34 88 -109.68 88 -109 88 C-108.835 87.401875 -108.67 86.80375 -108.5 86.1875 C-106.14292757 82.75010271 -102.95262719 81.9603214 -99 81 C-93.66072096 80.26286073 -89.54008646 81.00767029 -85 84 C-82.29544456 86.78410118 -80.70819348 89.57168815 -79.125 93.0625 C-76.88836336 97.68372201 -73.95317056 99.96609321 -69.05859375 101.6796875 C-67.38709764 102.17269443 -65.6945659 102.59330418 -64 103 C-64 103.66 -64 104.32 -64 105 C-52.78 105 -41.56 105 -30 105 C-30 104.34 -30 103.68 -30 103 C-29.38511719 102.74605469 -28.77023437 102.49210937 -28.13671875 102.23046875 C-27.32847656 101.88628906 -26.52023437 101.54210937 -25.6875 101.1875 C-24.88699219 100.85105469 -24.08648438 100.51460938 -23.26171875 100.16796875 C-20.24645206 98.61086212 -18.51574046 97.03148092 -17 94 C-16.34 94 -15.68 94 -15 94 C-14.40947646 88.17329049 -14.40947646 88.17329049 -17.0625 83.1875 C-23.06584146 78.71692657 -28.58605727 77.51577422 -35.87109375 76.9375 C-37.13107933 76.82136353 -37.13107933 76.82136353 -38.41651917 76.70288086 C-41.08932777 76.45757908 -43.76311706 76.22744232 -46.4375 76 C-58.78558371 74.93070487 -70.86399643 73.56056339 -83 71 C-83 70.34 -83 69.68 -83 69 C-83.78375 68.938125 -84.5675 68.87625 -85.375 68.8125 C-94.31218182 66.80933856 -100.79340145 62.51910376 -106 55 C-109.17371816 49.66854053 -111.12339408 44.85296388 -111.1328125 38.59375 C-111.13410156 37.76746094 -111.13539063 36.94117188 -111.13671875 36.08984375 C-111.13285156 35.23519531 -111.12898437 34.38054687 -111.125 33.5 C-111.12886719 32.64535156 -111.13273438 31.79070312 -111.13671875 30.91015625 C-111.13542969 30.08386719 -111.13414062 29.25757813 -111.1328125 28.40625 C-111.13168457 27.65666016 -111.13055664 26.90707031 -111.12939453 26.13476562 C-110.99857747 23.97653095 -110.59166841 22.07524609 -110 20 C-109.34 20 -108.68 20 -108 20 C-107.9175 19.319375 -107.835 18.63875 -107.75 17.9375 C-105.50625886 9.14951387 -99.62932803 3.87119525 -92.140625 -0.7734375 C-84.63996479 -5 -84.63996479 -5 -81 -5 C-81 -5.66 -81 -6.32 -81 -7 C-55.83672095 -14.73192662 -22.48149268 -14.94007534 0 0 Z " fill="#FFFFFF" transform="translate(827,200)"/>
<path d="M0 0 C9.69985298 7.23179909 15.61138183 18.02834023 19.59375 29.18823242 C19.93854401 30.05367172 20.28333801 30.91911102 20.63858032 31.81077576 C21.81880464 35.98402013 21.88909106 39.738511 21.88427734 44.05175781 C21.89099457 44.92242386 21.89771179 45.7930899 21.90463257 46.69013977 C21.92356257 49.55544811 21.92753363 52.42052178 21.9296875 55.28588867 C21.93611674 57.28315832 21.94284519 59.28042702 21.94985962 61.2776947 C21.9618183 65.45793849 21.96554167 69.6380997 21.96435547 73.81835938 C21.96415186 79.17406408 21.99150321 84.52924063 22.02589989 89.88481998 C22.04813231 94.006937 22.0521942 98.12892589 22.05113602 102.25109673 C22.05349559 104.22586329 22.06233915 106.2006332 22.07780075 108.17534065 C22.09739535 110.93530567 22.09164951 113.69411802 22.07958984 116.45410156 C22.09082886 117.26826538 22.10206787 118.0824292 22.11364746 118.92126465 C22.06995869 122.85569256 21.87313819 124.74859165 19.70962524 128.15306091 C15.5527178 132.15141555 11.65146435 132.46428208 6.03125 132.43823242 C4.35869141 132.4459668 4.35869141 132.4459668 2.65234375 132.45385742 C-2.15499821 132.03636157 -3.83906503 130.80817878 -7.09375 127.25073242 C-10.49510535 122.7462348 -10.53602987 119.7047271 -10.56396484 114.18505859 C-10.56904556 113.47559082 -10.57412628 112.76612305 -10.57936096 112.03515625 C-10.59006109 110.49320395 -10.59868268 108.95123615 -10.60548019 107.4092617 C-10.61730836 104.95613529 -10.63677753 102.50318186 -10.65859985 100.05012512 C-10.72003833 93.07449253 -10.77396231 86.09887311 -10.80761719 79.12304688 C-10.82876929 74.85298512 -10.86424497 70.58323206 -10.90837479 66.31334877 C-10.92238807 64.69775383 -10.93122344 63.08210418 -10.93442917 61.46645164 C-10.95675052 51.28176528 -11.81057082 42.09758296 -14.40625 32.18823242 C-15.06625 32.18823242 -15.72625 32.18823242 -16.40625 32.18823242 C-17.25840859 30.96492462 -18.06278332 29.7081723 -18.84375 28.43823242 C-22.58098762 23.18186828 -27.3650894 21.82214063 -33.40625 20.18823242 C-33.40625 19.52823242 -33.40625 18.86823242 -33.40625 18.18823242 C-39.01625 18.18823242 -44.62625 18.18823242 -50.40625 18.18823242 C-50.40625 18.84823242 -50.40625 19.50823242 -50.40625 20.18823242 C-51.63988281 20.57301758 -51.63988281 20.57301758 -52.8984375 20.96557617 C-64.95703985 25.10114765 -73.30387997 31.96234772 -79.40625 43.18823242 C-83.51778919 51.79617189 -83.9815177 59.82151099 -83.9453125 69.23510742 C-83.95524543 70.65994763 -83.96719641 72.08477503 -83.98104858 73.50958252 C-84.01314543 77.22879582 -84.02377931 80.9477151 -84.02789307 84.66705322 C-84.03670917 90.63170901 -84.07239077 96.59612679 -84.1200676 102.56058502 C-84.13255233 104.62949324 -84.13190457 106.69809097 -84.12979126 108.76702881 C-84.21172383 123.66452732 -84.21172383 123.66452732 -88.90625 129.06323242 C-92.84432123 132.41059296 -95.0849382 132.34885383 -100.21875 132.37573242 C-101.44207031 132.38991211 -102.66539063 132.4040918 -103.92578125 132.41870117 C-108.31581178 132.1280033 -111.22938746 131.48683936 -114.21875 128.18823242 C-115.40625 126.18823242 -115.40625 126.18823242 -115.40625 124.18823242 C-116.06625 124.18823242 -116.72625 124.18823242 -117.40625 124.18823242 C-118.15758905 120.83462596 -118.53301417 117.73374581 -118.53996277 114.29945374 C-118.54422775 113.34203781 -118.54849274 112.38462189 -118.55288696 111.39819336 C-118.55243378 110.35961182 -118.55198059 109.32103027 -118.55151367 108.25097656 C-118.55487228 107.14797714 -118.5582309 106.04497772 -118.56169128 104.90855408 C-118.57118801 101.26348748 -118.57314366 97.61846687 -118.57421875 93.97338867 C-118.57743186 91.43900025 -118.58079598 88.90461202 -118.58430481 86.370224 C-118.59029263 81.0583343 -118.59218787 75.74646173 -118.59155273 70.43457031 C-118.59095187 64.30258672 -118.60150812 58.17069107 -118.6172964 52.03872973 C-118.6319663 46.12966803 -118.63554032 40.22063312 -118.63494301 34.31155205 C-118.63612341 31.80173826 -118.64054851 29.29192383 -118.64827538 26.78212166 C-118.65806856 23.27296765 -118.65519987 19.76404045 -118.64916992 16.25488281 C-118.65478943 15.2183255 -118.66040894 14.18176819 -118.66619873 13.11380005 C-118.64035949 7.19847477 -118.54801445 1.99995767 -114.8203125 -2.89379883 C-113.93472656 -3.75038086 -113.93472656 -3.75038086 -113.03125 -4.62426758 C-112.44601562 -5.20821289 -111.86078125 -5.7921582 -111.2578125 -6.39379883 C-107.01438344 -9.64351349 -101.52367339 -9.20331421 -96.40625 -8.81176758 C-93.34375 -7.81176758 -93.34375 -7.81176758 -91.40625 -6.81176758 C-91.40625 -6.15176758 -91.40625 -5.49176758 -91.40625 -4.81176758 C-90.808125 -4.62614258 -90.21 -4.44051758 -89.59375 -4.24926758 C-86.30643201 -2.08903004 -85.75770313 0.53930897 -84.40625 4.18823242 C-81.37382772 3.44345396 -81.37382772 3.44345396 -79.71875 1.37573242 C-76.00952858 -2.13299054 -71.58250134 -4.81176758 -66.40625 -4.81176758 C-66.40625 -5.47176758 -66.40625 -6.13176758 -66.40625 -6.81176758 C-43.8904178 -14.2287476 -19.86533759 -13.44578602 0 0 Z " fill="#FFFFFF" transform="translate(1936.40625,199.811767578125)"/>
<path d="M0 0 C1.71121875 1.62089048 3.38272494 3.2853639 5 5 C5.64324219 5.62261719 6.28648438 6.24523437 6.94921875 6.88671875 C11.63661631 11.74265196 13.93300371 16.15521258 14 23 C13.26004129 27.31642579 11.41609957 29.6619191 8 32.4375 C5 34 5 34 2 34 C2 34.66 2 35.32 2 36 C0.02 36 -1.96 36 -4 36 C-4 35.34 -4 34.68 -4 34 C-5.051875 33.9071875 -5.051875 33.9071875 -6.125 33.8125 C-10.67391944 32.52693581 -13.67674589 29.47316526 -16.79296875 26.00390625 C-19.43773937 23.60254815 -21.93202634 22.54833752 -25.25 21.25 C-26.32765625 20.82203125 -27.4053125 20.3940625 -28.515625 19.953125 C-29.74539063 19.48132813 -29.74539063 19.48132813 -31 19 C-31 18.34 -31 17.68 -31 17 C-38.92 17 -46.84 17 -55 17 C-55 17.66 -55 18.32 -55 19 C-55.65226562 19.23074219 -56.30453125 19.46148437 -56.9765625 19.69921875 C-68.40467092 23.96368989 -74.03028457 30.33371983 -79.109375 41.421875 C-83.05551151 53.11137373 -83.17033558 70.71264768 -78 82 C-72.35350462 92.66560238 -66.0666965 98.25191239 -55 103 C-51.87082901 103.9568574 -49.06263162 104.11664321 -45.796875 104.09765625 C-44.8171875 104.09443359 -43.8375 104.09121094 -42.828125 104.08789062 C-41.81234375 104.07951172 -40.7965625 104.07113281 -39.75 104.0625 C-38.71875 104.05798828 -37.6875 104.05347656 -36.625 104.04882812 C-34.08327427 104.03706088 -31.54166681 104.02062011 -29 104 C-29 103.34 -29 102.68 -29 102 C-28.29875 101.79246094 -27.5975 101.58492188 -26.875 101.37109375 C-20.70275362 99.36679092 -16.58847205 97.12363212 -11.890625 92.68359375 C-6.93177442 88.2677578 -1.75675934 86.27335728 4.890625 86.6171875 C8.37221808 87.24903217 10.40188864 88.64932781 13 91 C15.92464306 95.38696459 16.7081575 98.77733845 16 104 C12.1345999 115.51030251 -0.03065944 123.31097855 -10.4140625 128.52734375 C-30.93204568 136.95357432 -54.18927488 135.93690837 -75 129 C-75 128.34 -75 127.68 -75 127 C-75.88751953 126.72736328 -75.88751953 126.72736328 -76.79296875 126.44921875 C-84.05457527 124.13924604 -88.63297156 121.50120415 -94 116 C-94.845625 115.360625 -95.69125 114.72125 -96.5625 114.0625 C-99.42553145 111.63993493 -101.03500284 109.19312038 -103 106 C-103.39058594 105.41347656 -103.78117188 104.82695312 -104.18359375 104.22265625 C-111.66679354 92.82301545 -115.14304069 81.60304807 -115.75 68.0625 C-115.79092773 67.15733643 -115.83185547 66.25217285 -115.87402344 65.31958008 C-116.08061503 59.22140085 -115.89934133 53.25422166 -115.25 47.1875 C-115.17620117 46.47795166 -115.10240234 45.76840332 -115.02636719 45.03735352 C-112.86117751 27.95708854 -102.51006214 11.87244263 -89.5 1.125 C-85.17841047 -2.08771067 -79.57322913 -6 -74 -6 C-74 -6.66 -74 -7.32 -74 -8 C-49.4473071 -15.75712723 -21.50960653 -15.09890027 0 0 Z " fill="#FFFFFF" transform="translate(1125,201)"/>
<path d="M0 0 C16.41038206 20.86306375 24.75242297 52.40963079 30 78 C30.17644043 78.85126465 30.35288086 79.7025293 30.53466797 80.57958984 C38.9481624 123.1807227 31.57685366 171.27744915 8 208 C-0.24149589 220.20743936 -10.2697563 231.76669897 -22.12817383 240.59887695 C-23.60487491 241.70423596 -25.03907893 242.86636395 -26.45581055 244.04760742 C-35.09979702 250.68180994 -42.52615059 251.17008466 -52.9375 250.8125 C-54.49746907 250.78493568 -56.05744649 250.75784005 -57.61743164 250.73120117 C-69.50029106 250.43586661 -80.72730446 248.91104705 -92 245 C-93.14597656 244.60425781 -94.29195313 244.20851563 -95.47265625 243.80078125 C-98.40158151 242.66322447 -101.18640816 241.39679026 -104 240 C-105.04027344 239.49855469 -106.08054687 238.99710938 -107.15234375 238.48046875 C-137.73025604 222.95517916 -159.33237767 194.15696455 -170 162 C-177.48973156 138.50094024 -182.02184277 110.48597067 -172 87 C-170.90942528 90.27172416 -171.24657627 92.39439889 -171.72021484 95.75195312 C-174.76065564 120.18160307 -168.67687869 145.1954252 -154 165 C-146.71557445 174.2647922 -138.502194 181.07051149 -127.72509766 185.84204102 C-118.7119882 189.8866459 -118.7119882 189.8866459 -116.40625 193.4921875 C-115.5625 196.1875 -115.5625 196.1875 -114.8984375 199 C-111.58921123 210.04993814 -101.15293859 220.79614941 -92.28515625 227.7734375 C-91.86105469 228.17820312 -91.43695313 228.58296875 -91 229 C-91 229.66 -91 230.32 -91 231 C-59.13807946 225.17085162 -30.52839429 215.07101939 -10.875 187.5 C-9.12580855 184.92224418 -7.98988248 182.96964744 -7 180 C-6.34 180 -5.68 180 -5 180 C-4.72800781 179.13246094 -4.45601562 178.26492188 -4.17578125 177.37109375 C-3.04326702 174.1240513 -1.69396021 171.15094218 -0.1875 168.0625 C11.95264874 141.97598528 14.2123218 113.56601011 14.0625 85.1875 C14.05747056 83.51237114 14.05291023 81.83724081 14.04882812 80.16210938 C14.03794708 76.10803561 14.02076371 72.05403469 14 68 C15.32 67.67 16.64 67.34 18 67 C17.57589844 65.84371094 17.15179688 64.68742187 16.71484375 63.49609375 C12.34323497 51.18639822 9.16871736 38.77988887 6.48608398 26.01538086 C4.98044612 18.95353555 3.21510142 12.18734329 0.75854492 5.39282227 C0 3 0 3 0 0 Z " fill="#36964B" transform="translate(268,214)"/>
<path d="M0 0 C2.75275517 1.00734881 3.85185485 1.91152555 6 4 C6.495 5.485 6.495 5.485 7 7 C7.66 7 8.32 7 9 7 C10.40912096 9.81824192 10.11183553 12.17251282 10.09765625 15.3203125 C10.09443359 16.57714844 10.09121094 17.83398438 10.08789062 19.12890625 C10.07532227 21.10697266 10.07532227 21.10697266 10.0625 23.125 C10.05748489 24.46484211 10.05292201 25.804686 10.04882812 27.14453125 C10.03701086 30.42973206 10.02053617 33.71484397 10 37 C10.73114014 36.98952637 11.46228027 36.97905273 12.21557617 36.96826172 C15.53951559 36.92659711 18.86339995 36.90064044 22.1875 36.875 C23.33798828 36.85824219 24.48847656 36.84148437 25.67382812 36.82421875 C26.78564453 36.81777344 27.89746094 36.81132812 29.04296875 36.8046875 C30.06414795 36.79421387 31.08532715 36.78374023 32.13745117 36.77294922 C35.12612167 37.01000368 37.29423369 37.74382898 40 39 C40 39.66 40 40.32 40 41 C40.928125 41.37125 40.928125 41.37125 41.875 41.75 C44.51939985 43.30552932 45.07669938 44.07621471 46 47 C46.30222257 51.76000549 46.55456461 55.81980336 44 60 C40.31330029 62.96538889 38.79804807 64 34 64 C34 64.66 34 65.32 34 66 C26.08 66 18.16 66 10 66 C10.08581058 74.95429932 10.17971835 83.90841624 10.28752708 92.86247826 C10.33728121 97.02107847 10.38361147 101.17965583 10.421875 105.33837891 C10.45899368 109.35854031 10.50542218 113.37850006 10.55806351 117.39848709 C10.57646732 118.92528336 10.59162583 120.45212262 10.60334396 121.97898483 C10.44382603 135.99156554 10.44382603 135.99156554 14.671875 149.10546875 C17.92803045 151.75519256 20.11239692 151.5040557 24.25 151.3125 C25.51328125 151.26738281 26.7765625 151.22226562 28.078125 151.17578125 C29.52445313 151.08876953 29.52445313 151.08876953 31 151 C31 150.34 31 149.68 31 149 C35.93912055 147.35362648 40.8579448 147.27679482 46 148 C49.54724303 149.95068356 52.18377438 152.36754875 54 156 C55.0369224 165.8952023 55.0369224 165.8952023 52.953125 170.125 C51.625 171.75 51.625 171.75 49 174 C48.34 174 47.68 174 47 174 C47 174.66 47 175.32 47 176 C33.68757285 182.91554657 17.59316067 183.25649511 3.30078125 178.91015625 C0.13898648 177.65939533 -2.33931276 176.11645576 -5 174 C-5.65742187 173.56816406 -6.31484375 173.13632812 -6.9921875 172.69140625 C-12.0685516 169.26067666 -14.99962904 165.84318886 -17 160 C-17 159.34 -17 158.68 -17 158 C-17.66 158 -18.32 158 -19 158 C-19.48706051 156.18960529 -19.96417519 154.37653433 -20.4375 152.5625 C-20.70433594 151.55316406 -20.97117187 150.54382813 -21.24609375 149.50390625 C-23.30732696 139.92397781 -23.13172236 130.33514016 -23.09765625 120.58984375 C-23.09578796 119.0108698 -23.094366 117.43189527 -23.09336853 115.85292053 C-23.0895757 111.72496908 -23.07977353 107.59705359 -23.06866455 103.46911621 C-23.0583804 99.24569179 -23.05385599 95.02226149 -23.04882812 90.79882812 C-23.03814793 82.53253385 -23.02057784 74.26627556 -23 66 C-27.29 66 -31.58 66 -36 66 C-36 65.34 -36 64.68 -36 64 C-36.886875 63.9175 -37.77375 63.835 -38.6875 63.75 C-42.46545717 62.89461347 -44.24213977 61.67906423 -47 59 C-48.4611044 54.61668679 -48.73421471 50.57152553 -48 46 C-45.4245282 41.26389749 -42.16648916 38.54114023 -37 37 C-33.44921875 36.8046875 -33.44921875 36.8046875 -29.6875 36.875 C-27.80611328 36.90207031 -27.80611328 36.90207031 -25.88671875 36.9296875 C-24.93410156 36.95289063 -23.98148438 36.97609375 -23 37 C-23.01571045 36.24380371 -23.0314209 35.48760742 -23.04760742 34.70849609 C-23.11018047 31.26407424 -23.14906205 27.81977226 -23.1875 24.375 C-23.21263672 23.18519531 -23.23777344 21.99539062 -23.26367188 20.76953125 C-23.35642836 9.70059043 -23.35642836 9.70059043 -20 5 C-13.68416084 -0.69965973 -8.33034235 -0.74811327 0 0 Z " fill="#FFFFFF" transform="translate(897,154)"/>
<path d="M0 0 C2.66262759 2.52248929 3.92975227 4.90311052 5.375 8.25 C6.13683594 7.63511719 6.13683594 7.63511719 6.9140625 7.0078125 C10.9390887 3.85713656 14.32684246 1.51203939 19.375 0.25 C19.375 -0.41 19.375 -1.07 19.375 -1.75 C28.17686744 -4.05868654 37.7774046 -5.53294197 46.375 -1.75 C50.81651623 2.20874273 52.02607692 5.22973068 52.39453125 11.125 C52.37172072 13.60678514 52.06738188 15.86512908 51.375 18.25 C50.715 18.25 50.055 18.25 49.375 18.25 C49.0965625 19.11625 49.0965625 19.11625 48.8125 20 C46.73902868 23.24543336 43.82671788 24.74431583 40.375 26.25 C37.65501551 26.72919647 35.1671406 27.05941551 32.4375 27.25 C25.2797381 27.98347801 19.46706924 28.59383704 14.640625 34.30078125 C11.75573973 38.38770204 9.62674237 42.36820477 8.375 47.25 C7.715 47.25 7.055 47.25 6.375 47.25 C5.55178254 56.12338716 5.23006941 64.9421691 5.20633507 73.849226 C5.19648769 76.77676321 5.17060765 79.70410262 5.14601612 82.63154697 C5.10080398 88.0496732 5.06258846 93.46768059 5.04907227 98.88598633 C5.03897667 102.68783387 5.00964578 106.48911826 4.96775246 110.29074287 C4.95549393 111.72873234 4.95031175 113.16680126 4.95255089 114.60484123 C4.95491135 116.61154058 4.93050296 118.61821682 4.9050293 120.62475586 C4.89916306 121.76246933 4.89329681 122.9001828 4.88725281 124.07237244 C4.2587583 127.97107529 2.84207619 130.200261 0.375 133.25 C-0.285 133.25 -0.945 133.25 -1.625 133.25 C-1.955 134.24 -2.285 135.23 -2.625 136.25 C-5.95750502 137.36083501 -8.55538958 137.41759585 -12.0625 137.4375 C-13.19558594 137.45167969 -14.32867188 137.46585938 -15.49609375 137.48046875 C-21.16106211 137.06319892 -23.92138015 134.45410902 -27.625 130.25 C-28.65914257 127.23997335 -28.75061135 124.43794068 -28.75198364 121.27146912 C-28.75480347 120.26902161 -28.75762329 119.2665741 -28.76052856 118.23374939 C-28.75850433 117.14010574 -28.7564801 116.0464621 -28.75439453 114.91967773 C-28.75614685 113.76323761 -28.75789917 112.60679749 -28.75970459 111.41531372 C-28.76411031 107.58805852 -28.76118977 103.76084943 -28.7578125 99.93359375 C-28.75848586 97.27848757 -28.75945456 94.6233828 -28.76071167 91.96827698 C-28.76253031 86.40243021 -28.76013478 80.83659671 -28.75537109 75.27075195 C-28.74992638 68.83485553 -28.75169387 62.39899078 -28.7571975 55.96309513 C-28.76173412 50.43689593 -28.76237656 44.91070627 -28.75975883 39.38450581 C-28.75819943 36.084079 -28.7583855 32.78367035 -28.76129532 29.48324394 C-28.76382606 25.80578321 -28.75997533 22.12838388 -28.75439453 18.45092773 C-28.75641876 17.35525986 -28.75844299 16.25959198 -28.76052856 15.13072205 C-28.75770874 14.13109436 -28.75488892 13.13146667 -28.75198364 12.10154724 C-28.75160662 11.23196097 -28.75122959 10.36237471 -28.75084114 9.46643734 C-28.57834516 6.42826925 -28.03077194 4.67527128 -25.91796875 2.4609375 C-25.22316406 1.85507813 -24.52835938 1.24921875 -23.8125 0.625 C-22.78189453 -0.29152344 -22.78189453 -0.29152344 -21.73046875 -1.2265625 C-15.03554948 -6.07075269 -6.40495068 -4.26996712 0 0 Z " fill="#FFFFFF" transform="translate(1447.625,194.75)"/>
<path d="M0 0 C4.51997343 3.67247841 6.67928991 6.77711862 7.3743782 12.54307365 C7.53602488 16.506584 7.56425988 20.45986047 7.54931641 24.42553711 C7.55801927 25.95052587 7.56838846 27.47550589 7.58029175 29.00047302 C7.60700114 33.12866232 7.60823728 37.25648463 7.60316515 41.38474345 C7.60102107 44.83649135 7.61080421 48.2881657 7.62037599 51.73989779 C7.64254149 59.88549273 7.64345493 68.03090319 7.63134766 76.17651367 C7.61926585 84.56837619 7.64390038 92.95956825 7.68648779 101.35131639 C7.72175815 108.56770208 7.73371665 115.78387471 7.72721231 123.00034338 C7.72359258 127.30543199 7.7287981 131.61004218 7.75664139 135.91505241 C7.78185305 139.96441005 7.77786125 144.01272481 7.75181961 148.06206703 C7.74710071 149.54388156 7.75251267 151.02577012 7.76906586 152.50749969 C7.84935393 160.25592826 7.85809214 166.06452986 2.53046227 172.02556705 C-1.54490961 175.78531465 -4.46317747 176.84180956 -10 176.75 C-11.5159375 176.74419922 -11.5159375 176.74419922 -13.0625 176.73828125 C-16.05225499 176.43214942 -18.28352213 175.6908749 -21 174.4375 C-21 173.7775 -21 173.1175 -21 172.4375 C-21.66 172.4375 -22.32 172.4375 -23 172.4375 C-25.97254739 168.56519568 -26.37767125 165.61131837 -26.38768005 160.80238342 C-26.39306559 160.14897632 -26.39845113 159.49556921 -26.40399987 158.82236189 C-26.41826736 156.64057701 -26.41117913 154.45939989 -26.40405273 152.27758789 C-26.40975697 150.7102459 -26.41672143 149.14290807 -26.42485046 147.57557678 C-26.44279133 143.32347957 -26.44161176 139.07158862 -26.43590808 134.81946492 C-26.43281753 131.2682304 -26.4389072 127.71703558 -26.44494683 124.16580671 C-26.45899352 115.78734341 -26.4574296 107.40898207 -26.44604492 99.03051758 C-26.43456353 90.39000121 -26.44863932 81.74979522 -26.4754414 73.10931975 C-26.49760039 65.68750831 -26.50423533 58.26579429 -26.49836498 50.84395212 C-26.49499467 46.41269304 -26.49741535 41.98163292 -26.51461601 37.55040169 C-26.5300863 33.38307856 -26.52612894 29.21621511 -26.50731087 25.04891014 C-26.50362518 23.52111016 -26.50673295 21.99327611 -26.51719666 20.46550751 C-26.53041094 18.37634317 -26.5188581 16.28869971 -26.50120544 14.19960022 C-26.50099616 13.03173005 -26.50078688 11.86385988 -26.50057125 10.66059971 C-25.73299909 5.71832307 -23.46636442 2.53727332 -19.5 -0.4375 C-13.27601103 -2.43806788 -6.00576982 -3.00937062 0 0 Z " fill="#FFFFFF" transform="translate(534,155.5625)"/>
<path d="M0 0 C0 0.66 0 1.32 0 2 C0.61875 2.268125 1.2375 2.53625 1.875 2.8125 C4 4 4 4 6 7 C6.25447559 9.29452419 6.25447559 9.29452419 6.26069641 12.04136658 C6.26778122 13.08306503 6.27486603 14.12476349 6.28216553 15.19802856 C6.27968811 16.34045013 6.27721069 17.4828717 6.2746582 18.65991211 C6.27976913 19.86336777 6.28488007 21.06682343 6.29014587 22.30674744 C6.30167621 25.60846866 6.30411355 28.9099391 6.30158257 32.21166301 C6.30051345 34.96767492 6.30539473 37.72366363 6.310188 40.47967058 C6.32128643 46.98150049 6.32171875 53.48327262 6.31567383 59.98510742 C6.30963311 66.69312393 6.32194661 73.40093073 6.3432439 80.10891145 C6.36085579 85.86781144 6.36686191 91.62664466 6.36360615 97.38557059 C6.36179243 100.82526541 6.3644381 104.26481067 6.37832069 107.70448112 C6.39322132 111.53996904 6.38393248 115.37518959 6.37231445 119.21069336 C6.38378006 120.92128937 6.38378006 120.92128937 6.39547729 122.66644287 C6.38846298 123.71096115 6.38144867 124.75547943 6.3742218 125.83164978 C6.37438954 126.73848479 6.37455729 127.64531981 6.37473011 128.57963467 C5.92481797 131.48559745 5.01775181 132.88729889 3 135 C2.34 135 1.68 135 1 135 C1 135.66 1 136.32 1 137 C-2.80528391 138.76274181 -5.8160526 139.27134667 -10 139.25 C-11.5159375 139.25773437 -11.5159375 139.25773437 -13.0625 139.265625 C-18.95205529 138.73305883 -22.18103404 136.45546028 -26 132 C-27.02243559 129.00116055 -27.12560352 126.21895713 -27.12698364 123.06616211 C-27.12980347 122.07357391 -27.13262329 121.08098572 -27.13552856 120.05831909 C-27.13350433 118.97559723 -27.1314801 117.89287537 -27.12939453 116.77734375 C-27.13114685 115.63226349 -27.13289917 114.48718323 -27.13470459 113.30740356 C-27.13911048 109.51742035 -27.13618952 105.7274837 -27.1328125 101.9375 C-27.1334859 99.3072102 -27.13445623 96.67692045 -27.13571167 94.04663086 C-27.13753041 88.53205866 -27.1351348 83.01749985 -27.13037109 77.50292969 C-27.12492904 71.12953715 -27.12669191 64.75617661 -27.1321975 58.38278484 C-27.13728387 52.24892948 -27.13674346 46.11508829 -27.13381577 39.98123169 C-27.13314778 37.37208044 -27.13397047 34.76292838 -27.13629532 32.15377808 C-27.13882935 28.51004867 -27.13497053 24.86638105 -27.12939453 21.22265625 C-27.13141876 20.13993439 -27.13344299 19.05721252 -27.13552856 17.94168091 C-27.13270874 16.94909271 -27.12988892 15.95650452 -27.12698364 14.93383789 C-27.12660662 14.07254776 -27.12622959 13.21125763 -27.12584114 12.3238678 C-27.00461274 10.08518204 -26.62467692 8.14753863 -26 6 C-25.34 6 -24.68 6 -24 6 C-23.34 4.68 -22.68 3.36 -22 2 C-21.34 2 -20.68 2 -20 2 C-20 1.34 -20 0.68 -20 0 C-12.93372151 -2.8265114 -7.06627849 -2.8265114 0 0 Z " fill="#FFFFFF" transform="translate(988,193)"/>
<path d="M0 0 C0 4.04966614 -2.03397294 6.08391781 -4.375 9.1875 C-27.81371238 41.1813424 -44.64450205 77.21774958 -53 116 C-53.17934082 116.8048584 -53.35868164 117.6097168 -53.54345703 118.43896484 C-58.7036975 142.48763268 -58.0943165 170.48741177 -51.8984375 194.23828125 C-51 198 -51 198 -51 202 C-50.34 202.33 -49.68 202.66 -49 203 C-48.25390625 204.96875 -48.25390625 204.96875 -47.5625 207.5 C-46.18234387 212.38687936 -44.63689986 217.19378339 -43 222 C-61.14195291 207.25966326 -72.54655451 185.88554914 -79.9375 164 C-80.23229248 163.12770752 -80.52708496 162.25541504 -80.83081055 161.35668945 C-84.16525134 151.03032764 -84.02176168 141.77945233 -83.5625 131 C-83.50916963 129.63934615 -83.45643036 128.27866899 -83.40429688 126.91796875 C-83.27532909 123.61170382 -83.14039446 120.30579614 -83 117 C-82.67 117 -82.34 117 -82 117 C-82 122.61 -82 128.22 -82 134 C-81.34 134 -80.68 134 -80 134 C-79.99742188 133.44957031 -79.99484375 132.89914062 -79.9921875 132.33203125 C-79.20632606 115.43601028 -72.41365141 98.98434659 -65 84 C-64.53754883 83.06269043 -64.07509766 82.12538086 -63.59863281 81.15966797 C-58.12515563 70.16451272 -52.66400451 59.63774814 -45 50 C-44.505 49.01 -44.505 49.01 -44 48 C-43.34 48 -42.68 48 -42 48 C-42 47.01 -42 46.02 -42 45 C-41.34 44.34 -40.68 43.68 -40 43 C-39.34 42.01 -38.68 41.02 -38 40 C-37.34 40 -36.68 40 -36 40 C-35.76796875 39.46117187 -35.5359375 38.92234375 -35.296875 38.3671875 C-33.62362751 35.31300684 -31.50544997 32.75739031 -29.25 30.125 C-28.75209961 29.54218262 -28.25419922 28.95936523 -27.74121094 28.35888672 C-19.04762891 18.4085536 -9.41898106 9.25554439 0 0 Z " fill="#86AA46" transform="translate(95,223)"/>
<path d="M0 0 C1.09057472 3.27172416 0.75342373 5.39439889 0.27978516 8.75195312 C-2.76065564 33.18160307 3.32312131 58.1954252 18 78 C25.28442555 87.2647922 33.497806 94.07051149 44.27490234 98.84204102 C53.2880118 102.8866459 53.2880118 102.8866459 55.59375 106.4921875 C56.4375 109.1875 56.4375 109.1875 57.1015625 112 C60.41078877 123.04993814 70.84706141 133.79614941 79.71484375 140.7734375 C80.13894531 141.17820312 80.56304687 141.58296875 81 142 C81 142.66 81 143.32 81 144 C77.25098512 144.36515798 73.5007091 144.71521212 69.75 145.0625 C68.68652344 145.16626953 67.62304688 145.27003906 66.52734375 145.37695312 C65.50253906 145.47041016 64.47773438 145.56386719 63.421875 145.66015625 C62.47924805 145.74918213 61.53662109 145.83820801 60.56542969 145.92993164 C51.80101301 146.16930998 45.10456987 139.02901384 39.07421875 133.40234375 C13.64214737 108.98247908 -4.24391605 74.25259281 -5.203125 38.49609375 C-5.37146737 25.18283618 -5.31010804 12.44412276 0 0 Z " fill="#0C1C0B" transform="translate(96,301)"/>
<path d="M0 0 C0.33 0 0.66 0 1 0 C1.01458252 0.6077124 1.02916504 1.2154248 1.04418945 1.84155273 C1.38908869 14.78075839 1.97453383 27.3838348 5 40 C5.18127441 40.75780762 5.36254883 41.51561523 5.54931641 42.29638672 C11.70579158 66.98794302 23.43151363 88.64999733 41 107 C42.02480469 108.11955078 42.02480469 108.11955078 43.0703125 109.26171875 C61.67876788 128.93449538 87.38071508 139.00602332 113.9375 141.640625 C117 142 117 142 119 143 C119 143.66 119 144.32 119 145 C90.53801993 146.10651326 65.00844115 136.83180164 43 119 C42.08605469 118.27039063 41.17210937 117.54078125 40.23046875 116.7890625 C16.83777048 96.96973703 1.12724998 64.03203588 -1.79052734 33.82495117 C-2.1614926 28.82210858 -2.18436002 23.82704965 -2.1875 18.8125 C-2.19974609 17.77158203 -2.21199219 16.73066406 -2.22460938 15.65820312 C-2.23532159 10.03429 -1.89915581 5.30712709 0 0 Z " fill="#9EC44C" transform="translate(90,322)"/>
<path d="M0 0 C3.43245771 1.8320924 5.292231 3.63313561 6.6015625 7.23828125 C6.87112516 9.93674539 7.01692687 12.47769361 7.0390625 15.17578125 C7.07193359 15.87896484 7.10480469 16.58214844 7.13867188 17.30664062 C7.17970306 21.28666589 6.76445145 23.03351434 4.26171875 26.1796875 C1.6015625 28.23828125 1.6015625 28.23828125 -1.3984375 29.23828125 C-1.3984375 29.89828125 -1.3984375 30.55828125 -1.3984375 31.23828125 C-6.40152182 32.90597602 -12.39535318 32.90597602 -17.3984375 31.23828125 C-17.3984375 30.57828125 -17.3984375 29.91828125 -17.3984375 29.23828125 C-18.1615625 28.97015625 -18.9246875 28.70203125 -19.7109375 28.42578125 C-22.31595851 27.27472545 -23.64206755 26.43374369 -25.3984375 24.23828125 C-26.47271221 21.01545712 -26.5317338 18.62316972 -26.5234375 15.23828125 C-26.52601563 14.18640625 -26.52859375 13.13453125 -26.53125 12.05078125 C-26.3984375 9.23828125 -26.3984375 9.23828125 -25.3984375 6.23828125 C-24.7384375 6.23828125 -24.0784375 6.23828125 -23.3984375 6.23828125 C-23.1715625 5.64015625 -22.9446875 5.04203125 -22.7109375 4.42578125 C-18.29583304 -2.93272619 -7.28156373 -2.31254874 0 0 Z " fill="#FFFFFF" transform="translate(987.3984375,154.76171875)"/>
<path d="M0 0 C0.42925781 0.31710937 0.85851562 0.63421875 1.30078125 0.9609375 C19.69520634 13.89061106 39.66067552 21.56681137 62.04296875 23.67578125 C65 24 65 24 67 25 C67 25.66 67 26.32 67 27 C42.75803827 27.94245208 15.38186374 21.7583943 -3 5 C-2.01 3.35 -1.02 1.7 0 0 Z " fill="#9DC73E" transform="translate(142,440)"/>
<path d="M0 0 C0.99 0 1.98 0 3 0 C2.00462425 22.04757296 -9.30902928 43.7501409 -25 59 C-25.99 59.66 -26.98 60.32 -28 61 C-26.44069908 57.47926265 -24.29103557 54.79676694 -21.875 51.8125 C-12.00262836 39.0678005 -6.7076523 23.58882925 -3.50390625 7.9453125 C-2.75915298 5.07021849 -1.45266886 2.57518571 0 0 Z " fill="#236E38" transform="translate(240,332)"/>
<path d="M0 0 C1.32 0.33 2.64 0.66 4 1 C-0.42308361 9.51405856 -6.99898714 21.49949357 -16 26 C-14.38937849 22.36533541 -12.13544336 19.49355642 -9.6875 16.375 C-5.72564357 11.17346591 -2.6309631 5.97585589 0 0 Z " fill="#1A4123" transform="translate(228,367)"/>
<path d="M0 0 C0.33 0 0.66 0 1 0 C0.49279908 10.82873964 -1.87575751 21.39945425 -4 32 C-4.66 31.34 -5.32 30.68 -6 30 C-6.66 30.66 -7.32 31.32 -8 32 C-6.48030274 24.92529287 -4.72008263 17.93380613 -2.875 10.9375 C-2.59785156 9.88111328 -2.32070312 8.82472656 -2.03515625 7.73632812 C-1.35826901 5.15715434 -0.67985409 2.57839302 0 0 Z " fill="#D5E381" transform="translate(155,60)"/>
<path d="M0 0 C0.33 0 0.66 0 1 0 C1.02726927 2.35424675 1.04696719 4.70816962 1.0625 7.0625 C1.07410156 8.37347656 1.08570313 9.68445313 1.09765625 11.03515625 C1.00452335 14.8163519 0.61448726 18.27920707 0 22 C-0.33 22 -0.66 22 -1 22 C-1 20.02 -1 18.04 -1 16 C-1.99 16 -2.98 16 -4 16 C-3.71767279 13.89455987 -3.4238102 11.79066411 -3.125 9.6875 C-2.96257812 8.51574219 -2.80015625 7.34398438 -2.6328125 6.13671875 C-2 3 -2 3 0 0 Z " fill="#91CD85" transform="translate(155,73)"/>
<path d="M0 0 C2.01003635 3.01505452 2.99171541 5.57496212 4.125 9 C4.47820312 10.051875 4.83140625 11.10375 5.1953125 12.1875 C6 15 6 15 6 18 C4.68 18.33 3.36 18.66 2 19 C0.48766299 12.53205867 -0.21432579 6.64409958 0 0 Z " fill="#78C16A" transform="translate(280,263)"/>
<path d="M0 0 C2.96175123 0.61277612 4.38058783 1.25372522 7 3 C6.6875 4.875 6.6875 4.875 6 7 C5.01 7.66 4.02 8.32 3 9 C1.02 7.35 -0.96 5.7 -3 4 C-2.01 2.68 -1.02 1.36 0 0 Z " fill="#A7CD4D" transform="translate(135,436)"/>
<path d="M0 0 C-0.33 2.97 -0.66 5.94 -1 9 C-2.32 9 -3.64 9 -5 9 C-5.66 10.32 -6.32 11.64 -7 13 C-6.67 9.04 -6.34 5.08 -6 1 C-2 0 -2 0 0 0 Z " fill="#519F45" transform="translate(245,324)"/>
<path d="M0 0 C0.66 0.33 1.32 0.66 2 1 C-0.31 3.97 -2.62 6.94 -5 10 C-5.66 9.01 -6.32 8.02 -7 7 C-4.69 4.69 -2.38 2.38 0 0 Z M-9 8 C-8.34 8.33 -7.68 8.66 -7 9 C-9.64 11.64 -12.28 14.28 -15 17 C-15 14 -15 14 -13.6875 12.39453125 C-13.130625 11.87246094 -12.57375 11.35039062 -12 10.8125 C-11.443125 10.28269531 -10.88625 9.75289062 -10.3125 9.20703125 C-9.6628125 8.60955078 -9.6628125 8.60955078 -9 8 Z " fill="#506E45" transform="translate(102,215)"/>
<path d="M0 0 C0.66 0.33 1.32 0.66 2 1 C0.89973587 4.3007924 0.17290663 4.92480282 -2.4375 7.0625 C-7.58636904 11.41707889 -12.27849064 16.19141362 -17 21 C-17 16.37914241 -14.12531102 14.20426624 -11 11 C-8.97947725 9.17734389 -6.92949864 7.40919118 -4.83203125 5.67578125 C-2.92830029 3.9344154 -1.48187938 2.1058286 0 0 Z " fill="#2B602D" transform="translate(176,144)"/>
<path d="M0 0 C0.40729228 2.32156597 0.74438677 4.6568787 1 7 C0.34 6.34 -0.32 5.68 -1 5 C-1.99 5.66 -2.98 6.32 -4 7 C-4.66 4.69 -5.32 2.38 -6 0 C-2.25 -1.125 -2.25 -1.125 0 0 Z " fill="#3C9C45" transform="translate(234,188)"/>
<path d="M0 0 C0.33 0 0.66 0 1 0 C0.22095672 11.52164009 0.22095672 11.52164009 -2 17 C-2.66 17 -3.32 17 -4 17 C-2.68 11.39 -1.36 5.78 0 0 Z " fill="#CEDF58" transform="translate(155,60)"/>
<path d="M0 0 C0.99 0.33 1.98 0.66 3 1 C0.03 3.97 -2.94 6.94 -6 10 C-6 6.41087588 -5.33563446 5.89142971 -3 3.3125 C-2.443125 2.68988281 -1.88625 2.06726563 -1.3125 1.42578125 C-0.879375 0.95527344 -0.44625 0.48476563 0 0 Z " fill="#23512C" transform="translate(219,383)"/>
<path d="M0 0 C1.32 0 2.64 0 4 0 C3.67 1.32 3.34 2.64 3 4 C2.01 4 1.02 4 0 4 C-0.66 5.32 -1.32 6.64 -2 8 C-1.125 1.125 -1.125 1.125 0 0 Z " fill="#399745" transform="translate(240,329)"/>
<path d="M0 0 C2.86453858 3.41016497 4.34703566 6.90694544 6 11 C5.01 11 4.02 11 3 11 C2.49384702 9.73160474 1.99530901 8.46016898 1.5 7.1875 C1.2215625 6.47980469 0.943125 5.77210938 0.65625 5.04296875 C0 3 0 3 0 0 Z " fill="#16763B" transform="translate(268,214)"/>
<path d="M0 0 C0.99 0 1.98 0 3 0 C2.34 1.32 1.68 2.64 1 4 C-0.32 4 -1.64 4 -3 4 C-1.6875 2 -1.6875 2 0 0 Z " fill="#AFD260" transform="translate(135,436)"/>
</svg>
