<svg xmlns="http://www.w3.org/2000/svg" xmlns:xlink="http://www.w3.org/1999/xlink" viewBox="0 0 44.93 44.92"><defs><style>.cls-1{fill:url(#New_Gradient_Swatch_5);}</style><linearGradient id="New_Gradient_Swatch_5" x1="-4.29" y1="-2.66" x2="47.71" y2="45.34" gradientUnits="userSpaceOnUse"><stop offset="0" stop-color="#cc3"/><stop offset="0.58" stop-color="#319d49"/><stop offset="1" stop-color="#12351c"/></linearGradient></defs><title>Asset 31</title><g id="Layer_2" data-name="Layer 2"><g id="Layer_1-2" data-name="Layer 1"><path class="cls-1" d="M43.43,39.68a3.75,3.75,0,0,1-3.74,3.74H31.46a2.27,2.27,0,0,0,.12-.51l2-19h.08a2.25,2.25,0,0,0,0-4.49H19.47V17.22a5.21,5.21,0,0,0-1.55-3.72A5.37,5.37,0,0,0,14.19,12a.68.68,0,0,1-.48-.2.77.77,0,0,1-.23-.55v-.75A1.5,1.5,0,0,0,15,9V6.74a2.25,2.25,0,0,0-2.25-2.25H12V2.25a.75.75,0,0,1,.75-.75h4.49a.75.75,0,0,1,.75.75v6a5.23,5.23,0,0,0,3.95,5.08,2.25,2.25,0,0,0,2.43-.93l.55-.82a.74.74,0,0,1,.62-.33H29.9a.83.83,0,0,1,.69.44l.47.71a2.25,2.25,0,0,0,2.43.93,5.23,5.23,0,0,0,3.95-5.08v-6a.75.75,0,0,1,.75-.75h4.49a.75.75,0,0,1,.75.75Zm-21,3.74H19.27a.75.75,0,0,1-.74-.64L15.84,24H32.11l-2,18.8a.75.75,0,0,1-.75.67Zm-21-2.25V35.94a.75.75,0,0,1,.75-.75H15.93L17,43a2.32,2.32,0,0,0,.11.43H3.74A2.25,2.25,0,0,1,1.5,41.18m0-11.23a.75.75,0,0,1,.75-.75H15.07l.64,4.49H2.25a.75.75,0,0,1-.75-.75Zm0-6a.75.75,0,0,1,.75-.75H12.56a2.23,2.23,0,0,0,1.66.75h.1l.54,3.74H2.25A.75.75,0,0,1,1.5,27Zm31.45-1.5H14.23a.75.75,0,0,1,0-1.5H33.69a.75.75,0,0,1,0,1.5ZM1.5,17.22a3.71,3.71,0,0,1,1.1-2.65,3.76,3.76,0,0,1,2.66-1.09,2.05,2.05,0,0,0,1.55-.64,2.28,2.28,0,0,0,.67-1.61v-.75H12v.75a2.28,2.28,0,0,0,.67,1.61,2.16,2.16,0,0,0,1.53.64h0A3.74,3.74,0,0,1,18,17.22v2.25H14.23A2.25,2.25,0,0,0,12,21.71H2.25A.75.75,0,0,1,1.5,21ZM6,6.74A.75.75,0,0,1,6.74,6h6a.75.75,0,0,1,.75.75V9H6ZM42.68,0H38.19a2.25,2.25,0,0,0-2.25,2.25v6a3.74,3.74,0,0,1-2.82,3.63.75.75,0,0,1-.81-.31l-.47-.72a2.31,2.31,0,0,0-1.94-1.1H25.51a2.23,2.23,0,0,0-1.86,1l-.55.82a.75.75,0,0,1-.81.31,3.74,3.74,0,0,1-2.82-3.63v-6A2.25,2.25,0,0,0,17.22,0H12.73a2.25,2.25,0,0,0-2.25,2.25V4.49H6.74A2.25,2.25,0,0,0,4.49,6.74V9A1.5,1.5,0,0,0,6,10.48v.75a.78.78,0,0,1-.23.55.68.68,0,0,1-.48.2h0A5.24,5.24,0,0,0,0,17.22V21a2.24,2.24,0,0,0,.57,1.5A2.23,2.23,0,0,0,0,24v3a2.23,2.23,0,0,0,.57,1.5A2.23,2.23,0,0,0,0,29.95v3a2.23,2.23,0,0,0,.57,1.5A2.23,2.23,0,0,0,0,35.94v5.24a3.75,3.75,0,0,0,3.74,3.74H39.68a5.25,5.25,0,0,0,5.24-5.24V2.25A2.25,2.25,0,0,0,42.68,0"/></g></g></svg>