<svg xmlns="http://www.w3.org/2000/svg" xmlns:xlink="http://www.w3.org/1999/xlink" viewBox="0 0 39.29 47.15"><defs><style>.cls-1{fill:url(#New_Gradient_Swatch_5);}.cls-2{fill:url(#New_Gradient_Swatch_5-2);}.cls-3{fill:url(#New_Gradient_Swatch_5-3);}.cls-4{fill:url(#New_Gradient_Swatch_5-4);}.cls-5{fill:url(#New_Gradient_Swatch_5-5);}.cls-6{fill:url(#New_Gradient_Swatch_5-6);}.cls-7{fill:url(#New_Gradient_Swatch_5-7);}.cls-8{fill:url(#New_Gradient_Swatch_5-8);}</style><linearGradient id="New_Gradient_Swatch_5" x1="4.81" y1="-0.93" x2="43.47" y2="37.74" gradientUnits="userSpaceOnUse"><stop offset="0" stop-color="#cc3"/><stop offset="0.58" stop-color="#319d49"/><stop offset="1" stop-color="#12351c"/></linearGradient><linearGradient id="New_Gradient_Swatch_5-2" x1="-5.34" y1="9.22" x2="33.33" y2="47.88" xlink:href="#New_Gradient_Swatch_5"/><linearGradient id="New_Gradient_Swatch_5-3" x1="0.49" y1="3.38" x2="39.16" y2="42.05" xlink:href="#New_Gradient_Swatch_5"/><linearGradient id="New_Gradient_Swatch_5-4" x1="-2.99" y1="6.86" x2="35.68" y2="45.53" xlink:href="#New_Gradient_Swatch_5"/><linearGradient id="New_Gradient_Swatch_5-5" x1="-7.1" y1="10.98" x2="31.57" y2="49.64" xlink:href="#New_Gradient_Swatch_5"/><linearGradient id="New_Gradient_Swatch_5-6" x1="-10.05" y1="13.92" x2="28.62" y2="52.59" xlink:href="#New_Gradient_Swatch_5"/><linearGradient id="New_Gradient_Swatch_5-7" x1="-1.01" y1="4.89" x2="37.66" y2="43.55" xlink:href="#New_Gradient_Swatch_5"/><linearGradient id="New_Gradient_Swatch_5-8" x1="-3.21" y1="7.09" x2="35.45" y2="45.76" xlink:href="#New_Gradient_Swatch_5"/></defs><title>Asset 39</title><g id="Layer_2" data-name="Layer 2"><g id="Layer_1-2" data-name="Layer 1"><path class="cls-1" d="M37.39,15.95l-2-2.84V9.43a.79.79,0,0,0-.79-.79H29.86a.79.79,0,0,0-.79.79v3.68l-2,2.84a10,10,0,0,0-.61,1l1.37.77a8.55,8.55,0,0,1,.52-.82l2.17-3a.78.78,0,0,0,.15-.46V10.22h3.14v3.14a.78.78,0,0,0,.15.46l2.17,3a8.53,8.53,0,0,1,1.06,2H31.43v1.57h6.15a8.76,8.76,0,0,1,.14,1.45V22H31.43v1.57h6.29v1.57H31.43v1.57h6l-.19.58a5.59,5.59,0,0,0,0,3.56l.28.87A4.08,4.08,0,0,1,37.72,33H31.43v1.57h6.29v1.57H31.43v1.57h6.29v1.57H31.43v1.57h6.29V44a1.57,1.57,0,0,1-1.57,1.57H34.45a.79.79,0,0,1-.56-.23,2.39,2.39,0,0,0-3.33,0l1.11,1.11a.79.79,0,0,1,1.11,0,2.35,2.35,0,0,0,1.67.69h1.71A3.15,3.15,0,0,0,39.29,44V33A5.62,5.62,0,0,0,39,31.23l-.28-.87a4,4,0,0,1,0-2.57l.28-.87a6.86,6.86,0,0,0,.22-.87,5.93,5.93,0,0,0,.07-.9V21.89A10.49,10.49,0,0,0,39,19.46a10,10,0,0,0-1.62-3.52"/><path class="cls-2" d="M8.64,1.57h4.72V3.93H8.64ZM0,17.29V41.06a6.09,6.09,0,0,0,9.75,4.87,2.09,2.09,0,0,1,2.51,0,6.05,6.05,0,0,0,3.43,1.22l.06-1.57a4.48,4.48,0,0,1-2.54-.9,3.67,3.67,0,0,0-4.4,0,4.47,4.47,0,0,1-2.71.9,4.52,4.52,0,0,1-4.52-4.52V36.94H15.72V35.36H1.57V19.65H18.86V18.08H1.57v-.79a9.41,9.41,0,0,1,6.53-9,.79.79,0,0,0,.54-.75V5.5h4.72V7.57a.79.79,0,0,0,.54.75,9.39,9.39,0,0,1,6.5,8.25L22,16.44a11,11,0,0,0-7-9.43V5.5H16.5V3.93H14.93V.79A.79.79,0,0,0,14.15,0H7.86a.79.79,0,0,0-.79.79V3.93H5.5V5.5H7.07V7A11,11,0,0,0,0,17.29"/><path class="cls-3" d="M6.64,10.75l.87,1.31a6.29,6.29,0,0,1,1.56-.75l-.48-1.5a7.89,7.89,0,0,0-1.95.94"/><path class="cls-4" d="M4.75,16.59a6.3,6.3,0,0,1,1.71-3.65L5.33,11.85a7.89,7.89,0,0,0-2.14,4.57Z"/><rect class="cls-5" x="3.14" y="21.22" width="1.57" height="1.57"/><rect class="cls-6" x="3.14" y="24.36" width="1.57" height="7.07"/><rect class="cls-7" x="20.43" y="25.93" width="1.57" height="2.36"/><path class="cls-8" d="M27.85,24.63a.78.78,0,0,1,.44.7v3.56l-.49,1H21.22v1.57h6.59l.49,1v1.2l-.49,1H21.22v1.57h6.59l.49,1v1.2l-.49,1H21.22v1.57h6.59l.49,1v3a.8.8,0,0,1-.6.76l-.19,0H19.65a.79.79,0,0,1-.63-.31.78.78,0,0,1-.16-.47v-3l.7-1.41a.78.78,0,0,0,0-.7l-.7-1.41v-1.2l.7-1.41a.78.78,0,0,0,0-.7l-.7-1.41v-1.2l.7-1.41a.78.78,0,0,0,0-.7l-.7-1.41V25.34a.79.79,0,0,1,.44-.7l2.27-1.14a.78.78,0,0,0,.43-.7v-1.1a4.05,4.05,0,0,0,3.14,0v1.1a.78.78,0,0,0,.43.7Zm-4.28-5.77c1,0,1.57.46,1.57.79s-.61.79-1.57.79S22,20,22,19.65s.61-.79,1.57-.79m0-1.57c-1.76,0-3.14,1-3.14,2.36v2.66l-1.84.92a2.35,2.35,0,0,0-1.31,2.11v3.74a.78.78,0,0,0,.08.35L18,30.65l-.61,1.22a.79.79,0,0,0-.08.35v1.57a.79.79,0,0,0,.08.35L18,35.36l-.61,1.22a.79.79,0,0,0-.08.35v1.57a.78.78,0,0,0,.08.35L18,40.08l-.61,1.22a.79.79,0,0,0-.08.35v3.14a2.36,2.36,0,0,0,2.36,2.36h7.86a2.47,2.47,0,0,0,.53-.06,2.35,2.35,0,0,0,1.82-2.3V41.65a.79.79,0,0,0-.08-.35l-.61-1.22.61-1.22a.78.78,0,0,0,.08-.35V36.94a.79.79,0,0,0-.08-.35l-.61-1.22.61-1.22a.79.79,0,0,0,.08-.35V32.22a.79.79,0,0,0-.08-.35l-.61-1.22.61-1.22a.78.78,0,0,0,.08-.35V25.34a2.35,2.35,0,0,0-1.31-2.11l-1.84-.92V19.65c0-1.32-1.38-2.36-3.14-2.36"/></g></g></svg>