<svg xmlns="http://www.w3.org/2000/svg" xmlns:xlink="http://www.w3.org/1999/xlink" viewBox="0 0 53.62 44.68"><defs><style>.cls-1{fill:url(#New_Gradient_Swatch_5);}.cls-2{fill:url(#New_Gradient_Swatch_5-2);}.cls-3{fill:url(#New_Gradient_Swatch_5-3);}.cls-4{fill:url(#New_Gradient_Swatch_5-4);}.cls-5{fill:url(#New_Gradient_Swatch_5-5);}.cls-6{fill:url(#New_Gradient_Swatch_5-6);}.cls-7{fill:url(#New_Gradient_Swatch_5-7);}.cls-8{fill:url(#New_Gradient_Swatch_5-8);}.cls-9{fill:url(#New_Gradient_Swatch_5-9);}.cls-10{fill:url(#New_Gradient_Swatch_5-10);}.cls-11{fill:url(#New_Gradient_Swatch_5-11);}</style><linearGradient id="New_Gradient_Swatch_5" x1="-5.82" y1="7.65" x2="50.68" y2="52.15" gradientUnits="userSpaceOnUse"><stop offset="0" stop-color="#cc3"/><stop offset="0.58" stop-color="#319d49"/><stop offset="1" stop-color="#12351c"/></linearGradient><linearGradient id="New_Gradient_Swatch_5-2" x1="7.89" y1="-9.77" x2="64.39" y2="34.73" xlink:href="#New_Gradient_Swatch_5"/><linearGradient id="New_Gradient_Swatch_5-3" x1="6.97" y1="-8.6" x2="63.47" y2="35.9" xlink:href="#New_Gradient_Swatch_5"/><linearGradient id="New_Gradient_Swatch_5-4" x1="-4.49" y1="5.96" x2="52.01" y2="50.46" xlink:href="#New_Gradient_Swatch_5"/><linearGradient id="New_Gradient_Swatch_5-5" x1="-3.12" y1="4.22" x2="53.38" y2="48.72" xlink:href="#New_Gradient_Swatch_5"/><linearGradient id="New_Gradient_Swatch_5-6" x1="-4.79" y1="6.34" x2="51.71" y2="50.84" xlink:href="#New_Gradient_Swatch_5"/><linearGradient id="New_Gradient_Swatch_5-7" x1="-1.75" y1="2.48" x2="54.75" y2="46.98" xlink:href="#New_Gradient_Swatch_5"/><linearGradient id="New_Gradient_Swatch_5-8" x1="-3.43" y1="4.6" x2="53.07" y2="49.1" xlink:href="#New_Gradient_Swatch_5"/><linearGradient id="New_Gradient_Swatch_5-9" x1="-6.16" y1="8.08" x2="50.34" y2="52.58" xlink:href="#New_Gradient_Swatch_5"/><linearGradient id="New_Gradient_Swatch_5-10" x1="-16.77" y1="21.55" x2="39.73" y2="66.05" xlink:href="#New_Gradient_Swatch_5"/><linearGradient id="New_Gradient_Swatch_5-11" x1="-15.4" y1="19.81" x2="41.1" y2="64.31" xlink:href="#New_Gradient_Swatch_5"/></defs><title>Asset 30</title><g id="Layer_2" data-name="Layer 2"><g id="Layer_1-2" data-name="Layer 1"><path class="cls-1" d="M51.83,43H50v-4.3a.88.88,0,0,0-.89-.86H45.58a.88.88,0,0,0-.89.86V43H32.17V34.37H51.83Zm-3.57,0H46.47V39.52h1.79ZM30.39,33.51V43h-11a40.12,40.12,0,0,0,3.87-12H34.82c.1.58.23,1.15.34,1.72H31.28a.88.88,0,0,0-.89.86M17.37,43H2.42A54.55,54.55,0,0,0,7.74,28.35H20q.47,2.19,1.12,4.37A35.39,35.39,0,0,1,17.37,43ZM8.75,21.48H19q.21,2.58.68,5.16H8.08c.29-1.63.52-3.36.66-5.16ZM8.93,18h9.85c0,.57,0,1.14.06,1.72h-10c0-.57.06-1.14.06-1.72M24,24.92H34.11c.1,1.46.26,2.89.46,4.3h-11c.19-1.34.33-2.78.43-4.3m.14-3.44H34c0,.58,0,1.15.06,1.72h-10c0-.56,0-1.13,0-1.72m17,7.73H42.9v3.44H41.11Zm0-3.44H42.9v1.72H41.11Zm0-3.44H42.9v1.72H41.11Zm7.15,6.87H50v3.44H48.26Zm0-3.44H50v1.72H48.26Zm0-3.44H50v1.72H48.26Zm4.47,10.31h-.89V21.48a.88.88,0,0,0-.89-.86H47.37a.88.88,0,0,0-.9.86V32.65H44.68V21.48a.88.88,0,0,0-.89-.86H40.22a.88.88,0,0,0-.89.86V32.65H37a56.87,56.87,0,0,1-1.24-12,.88.88,0,0,0-.89-.86H23.24a.88.88,0,0,0-.89.86,59.61,59.61,0,0,1-.51,7.89,51.77,51.77,0,0,1-1.28-11.32.88.88,0,0,0-.89-.86H8a.88.88,0,0,0-.89.86,53.39,53.39,0,0,1-7,26.19.84.84,0,0,0,.29,1.18.91.91,0,0,0,.47.13H52.73a.88.88,0,0,0,.89-.86V33.51a.88.88,0,0,0-.89-.86"/><path class="cls-2" d="M15.84,8.62a.86.86,0,0,0,.76-1,.88.88,0,0,0-.12-.32A2.43,2.43,0,0,1,16.09,6a2.62,2.62,0,0,1,2.66-2.58,2.69,2.69,0,0,1,2.37,1.36,1,1,0,0,0,1.28.28.92.92,0,0,0,.29-.28,2.71,2.71,0,0,1,3.59-1.06,2.64,2.64,0,0,1,.91.76.92.92,0,0,0,1.25.18.86.86,0,0,0,.33-.46,3.58,3.58,0,0,1,4.39-2.38,3.45,3.45,0,0,1,2.6,3.31,2.1,2.1,0,0,1,0,.26l0,.14a.87.87,0,0,0,.78,1,.92.92,0,0,0,.57-.12,2.7,2.7,0,0,1,2.74,0A.91.91,0,0,0,41,6.09a.81.81,0,0,0,.12-.35,2.65,2.65,0,0,1,2.95-2.28A2.59,2.59,0,0,1,46.45,6.3a2.64,2.64,0,0,1-2.66,2.29,2.71,2.71,0,0,1-1.37-.38.92.92,0,0,0-1.23.3.83.83,0,0,0-.12.35,2.65,2.65,0,0,1-2.93,2.3,2.61,2.61,0,0,1-2.4-2.53V8.57a.88.88,0,0,0-.9-.86.92.92,0,0,0-.54.17,3.71,3.71,0,0,1-1.26.59,4.23,4.23,0,0,0-1.51-3.1L30.37,6.65a2.49,2.49,0,0,1,.83,2.53s0,0,0,0A2.68,2.68,0,0,1,28,11.09,2.62,2.62,0,0,1,26,9.22a.88.88,0,0,0-.89-.65H25a2.69,2.69,0,0,1-2.34-1.36A1,1,0,0,0,21.4,7a.92.92,0,0,0-.29.28A2.68,2.68,0,0,1,18.8,8.59l-.16,0a.9.9,0,0,0-.76.35.83.83,0,0,0-.12.8,1.63,1.63,0,0,1,.11.58,1.79,1.79,0,1,1-2-1.69m-3.32,1.69a3.58,3.58,0,0,0,7.15,0v-.09A4.51,4.51,0,0,0,21.9,9.06a4.51,4.51,0,0,0,2.6,1.22,4.52,4.52,0,0,0,5.83,2.27,4.37,4.37,0,0,0,2.36-2.26,5.39,5.39,0,0,0,1.49-.36,4.5,4.5,0,0,0,5.62,2.75,4.39,4.39,0,0,0,2.78-2.54,4.46,4.46,0,0,0,1.21.17A4.39,4.39,0,0,0,48.28,6a4.38,4.38,0,0,0-4.45-4.31,4.47,4.47,0,0,0-4.19,2.75,4.48,4.48,0,0,0-2.16-.07A5.32,5.32,0,0,0,31.41.05,5.36,5.36,0,0,0,27.6,2.51,4.57,4.57,0,0,0,21.9,3a4.58,4.58,0,0,0-6.3,0,4.2,4.2,0,0,0-1.3,3,4.06,4.06,0,0,0,.2,1.23,3.43,3.43,0,0,0-2,3.06"/><rect class="cls-3" x="26.81" y="6.87" width="1.79" height="1.72"/><rect class="cls-4" x="33.96" y="36.09" width="1.79" height="1.72"/><rect class="cls-5" x="37.53" y="36.09" width="1.79" height="1.72"/><rect class="cls-6" x="37.53" y="39.53" width="1.79" height="1.72"/><rect class="cls-7" x="41.11" y="36.09" width="1.79" height="1.72"/><rect class="cls-8" x="41.11" y="39.53" width="1.79" height="1.72"/><rect class="cls-9" x="33.96" y="39.53" width="1.79" height="1.72"/><rect class="cls-10" x="6.26" y="39.53" width="1.79" height="1.72"/><rect class="cls-11" x="9.83" y="39.53" width="1.79" height="1.72"/></g></g></svg>