<svg xmlns="http://www.w3.org/2000/svg" xmlns:xlink="http://www.w3.org/1999/xlink" viewBox="0 0 42.81 44.68"><defs><style>.cls-1{fill:url(#New_Gradient_Swatch_5);}.cls-2{fill:url(#New_Gradient_Swatch_5-2);}.cls-3{fill:url(#New_Gradient_Swatch_5-3);}</style><linearGradient id="New_Gradient_Swatch_5" x1="13.5" y1="-3.53" x2="51" y2="30.47" gradientUnits="userSpaceOnUse"><stop offset="0" stop-color="#cc3"/><stop offset="0.58" stop-color="#319d49"/><stop offset="1" stop-color="#12351c"/></linearGradient><linearGradient id="New_Gradient_Swatch_5-2" x1="5.16" y1="5.67" x2="42.66" y2="39.67" xlink:href="#New_Gradient_Swatch_5"/><linearGradient id="New_Gradient_Swatch_5-3" x1="-2.65" y1="14.29" x2="34.85" y2="48.29" xlink:href="#New_Gradient_Swatch_5"/></defs><title>Asset 28</title><g id="Layer_2" data-name="Layer 2"><g id="Layer_1-2" data-name="Layer 1"><path class="cls-1" d="M33,16.65l-8-1,1.76-1.14a.8.8,0,0,0,.26-1l-5.86-12h7.37a3.3,3.3,0,0,1,3,1.93l2.75,5.09a.69.69,0,0,0,.94.3l1.79-1ZM18.29,11.24,11.68,6.69l1.85-3.24a3.62,3.62,0,0,1,3.12-1.91h2.9l1.77,3.83ZM38.84,5.47a.67.67,0,0,0-.63,0L35.13,7.16,32.72,2.7A4.68,4.68,0,0,0,28.54,0H16.65a5,5,0,0,0-4.34,2.65L10.1,6.53a.81.81,0,0,0,.22,1.05L18.17,13a.67.67,0,0,0,.38.12l.18,0a.72.72,0,0,0,.45-.37l3-5.82,3.28,6.7-3,1.94a.8.8,0,0,0-.33.83.73.73,0,0,0,.62.6l10.62,1.3h.08a.71.71,0,0,0,.64-.44L39.17,6.5a.8.8,0,0,0-.33-1"/><path class="cls-2" d="M40.84,26.27,39.55,28.5H34.67l-3-5.88,7.3-4.6,2,4.27a4.2,4.2,0,0,1-.09,4m-6.5,11.88a3.15,3.15,0,0,1-2.94,1.91H25.69a.74.74,0,0,0-.71.77v.82l-5.49-7.71L25,27.41v1.86a.75.75,0,0,0,.71.77h13Zm7.85-16.57-2.31-5a.69.69,0,0,0-1-.35l0,0-8.56,5.39a.8.8,0,0,0-.26,1l3,5.79H26.4V25.42a.74.74,0,0,0-.71-.77.69.69,0,0,0-.53.25L18,33.38a.82.82,0,0,0,0,1l7.13,10a.68.68,0,0,0,1,.14.79.79,0,0,0,.28-.61V41.6h5a4.53,4.53,0,0,0,4.18-2.7l5-9.24,1.48-2.59a5.84,5.84,0,0,0,.13-5.5"/><path class="cls-3" d="M13.16,20.93a.69.69,0,0,0-.88.33L6.11,32.83,2.76,26.58a4.28,4.28,0,0,1,0-3.89l2.65-5.74a.8.8,0,0,0-.26-1L3,14.48l8.69-.59L15,21.71Zm1.12,9.88v9.24H12.13A3.75,3.75,0,0,1,8.9,38l-2-3.66,2-3.56Zm2.79-8-4.28-10a.71.71,0,0,0-.69-.45L.67,13.1a.75.75,0,0,0-.67.82.78.78,0,0,0,.34.61h0l3.53,2.36L1.51,22a5.93,5.93,0,0,0,0,5.37l4,7.4,2.17,4.06a5.18,5.18,0,0,0,4.46,2.79H15a.74.74,0,0,0,.71-.77V30a.74.74,0,0,0-.71-.77H9.65l3.56-6.67,2.94,1.22a.7.7,0,0,0,.92-.44.83.83,0,0,0,0-.6"/></g></g></svg>