<svg xmlns="http://www.w3.org/2000/svg" xmlns:xlink="http://www.w3.org/1999/xlink" viewBox="0 0 42.81 44.68"><defs><style>.cls-1{fill:url(#New_Gradient_Swatch_5);}.cls-2{fill:url(#New_Gradient_Swatch_5-2);}.cls-3{fill:url(#New_Gradient_Swatch_5-3);}.cls-4{fill:url(#New_Gradient_Swatch_5-4);}.cls-5{fill:url(#New_Gradient_Swatch_5-5);}.cls-6{fill:url(#New_Gradient_Swatch_5-6);}.cls-7{fill:url(#New_Gradient_Swatch_5-7);}.cls-8{fill:url(#New_Gradient_Swatch_5-8);}.cls-9{fill:url(#New_Gradient_Swatch_5-9);}.cls-10{fill:url(#New_Gradient_Swatch_5-10);}.cls-11{fill:url(#New_Gradient_Swatch_5-11);}.cls-12{fill:url(#New_Gradient_Swatch_5-12);}.cls-13{fill:url(#New_Gradient_Swatch_5-13);}.cls-14{fill:url(#New_Gradient_Swatch_5-14);}.cls-15{fill:url(#New_Gradient_Swatch_5-15);}.cls-16{fill:url(#New_Gradient_Swatch_5-16);}.cls-17{fill:url(#New_Gradient_Swatch_5-17);}.cls-18{fill:url(#New_Gradient_Swatch_5-18);}.cls-19{fill:url(#New_Gradient_Swatch_5-19);}.cls-20{fill:url(#New_Gradient_Swatch_5-20);}.cls-21{fill:url(#New_Gradient_Swatch_5-21);}</style><linearGradient id="New_Gradient_Swatch_5" x1="-15.94" y1="17.99" x2="28.56" y2="58.99" gradientUnits="userSpaceOnUse"><stop offset="0" stop-color="#cc3"/><stop offset="0.58" stop-color="#319d49"/><stop offset="1" stop-color="#12351c"/></linearGradient><linearGradient id="New_Gradient_Swatch_5-2" x1="-2.18" y1="3.06" x2="42.32" y2="44.06" xlink:href="#New_Gradient_Swatch_5"/><linearGradient id="New_Gradient_Swatch_5-3" x1="13.02" y1="-13.43" x2="57.52" y2="27.57" xlink:href="#New_Gradient_Swatch_5"/><linearGradient id="New_Gradient_Swatch_5-4" x1="16.35" y1="-17.06" x2="60.85" y2="23.94" xlink:href="#New_Gradient_Swatch_5"/><linearGradient id="New_Gradient_Swatch_5-5" x1="13.29" y1="-13.73" x2="57.79" y2="27.27" xlink:href="#New_Gradient_Swatch_5"/><linearGradient id="New_Gradient_Swatch_5-6" x1="10.07" y1="-10.23" x2="54.57" y2="30.77" xlink:href="#New_Gradient_Swatch_5"/><linearGradient id="New_Gradient_Swatch_5-7" x1="8.57" y1="-8.61" x2="53.07" y2="32.39" xlink:href="#New_Gradient_Swatch_5"/><linearGradient id="New_Gradient_Swatch_5-8" x1="9.67" y1="-9.81" x2="54.17" y2="31.19" xlink:href="#New_Gradient_Swatch_5"/><linearGradient id="New_Gradient_Swatch_5-9" x1="12.74" y1="-13.13" x2="57.24" y2="27.87" xlink:href="#New_Gradient_Swatch_5"/><linearGradient id="New_Gradient_Swatch_5-10" x1="15.96" y1="-16.63" x2="60.46" y2="24.37" xlink:href="#New_Gradient_Swatch_5"/><linearGradient id="New_Gradient_Swatch_5-11" x1="17.46" y1="-18.26" x2="61.96" y2="22.74" xlink:href="#New_Gradient_Swatch_5"/><linearGradient id="New_Gradient_Swatch_5-12" x1="-5" y1="6.12" x2="39.5" y2="47.12" xlink:href="#New_Gradient_Swatch_5"/><linearGradient id="New_Gradient_Swatch_5-13" x1="0.56" y1="0.09" x2="45.06" y2="41.09" xlink:href="#New_Gradient_Swatch_5"/><linearGradient id="New_Gradient_Swatch_5-14" x1="-3.54" y1="4.54" x2="40.96" y2="45.54" xlink:href="#New_Gradient_Swatch_5"/><linearGradient id="New_Gradient_Swatch_5-15" x1="1.84" y1="-1.3" x2="46.34" y2="39.7" xlink:href="#New_Gradient_Swatch_5"/><linearGradient id="New_Gradient_Swatch_5-16" x1="-3.75" y1="4.76" x2="40.75" y2="45.76" xlink:href="#New_Gradient_Swatch_5"/><linearGradient id="New_Gradient_Swatch_5-17" x1="3.06" y1="-2.63" x2="47.56" y2="38.37" xlink:href="#New_Gradient_Swatch_5"/><linearGradient id="New_Gradient_Swatch_5-18" x1="1.27" y1="-0.69" x2="45.77" y2="40.31" xlink:href="#New_Gradient_Swatch_5"/><linearGradient id="New_Gradient_Swatch_5-19" x1="-1.25" y1="2.04" x2="43.25" y2="43.04" xlink:href="#New_Gradient_Swatch_5"/><linearGradient id="New_Gradient_Swatch_5-20" x1="-2.56" y1="3.47" x2="41.94" y2="44.47" xlink:href="#New_Gradient_Swatch_5"/><linearGradient id="New_Gradient_Swatch_5-21" x1="-3.04" y1="3.99" x2="41.46" y2="44.99" xlink:href="#New_Gradient_Swatch_5"/></defs><title>Asset 29</title><g id="Layer_2" data-name="Layer 2"><g id="Layer_1-2" data-name="Layer 1"><path class="cls-1" d="M9.19,38.72,9,37.23h1.55l.53,1.49ZM7.14,43.19H5.71v-3H7.14Zm-4.86-6H3.83l-.18,1.49H1.74Zm1.07-3h.84L4,35.74H2.81Zm2.1,1.49.18-1.49H7.22l.18,1.49Zm-.36,3,.18-1.49H7.58l.18,1.49Zm4.94-3H8.84l-.18-1.49h.84Zm.63-2.5a.72.72,0,0,0-.67-.48H2.85a.72.72,0,0,0-.67.48L0,39.2a.77.77,0,0,0,.08.69.7.7,0,0,0,.59.32H4.28V41H2.85v1.49H4.28v.74H2.85v1.49H10V43.19H8.56v-.74H10V41H8.56v-.75h3.57a.7.7,0,0,0,.59-.32.77.77,0,0,0,.08-.69Z"/><path class="cls-2" d="M39.16,38.72,39,37.23h1.55l.53,1.49ZM37.1,43.19H35.68v-3H37.1Zm-4.86-6H33.8l-.18,1.49H31.71Zm1.07-3h.84L34,35.74H32.78Zm2.1,1.49.18-1.49h1.59l.18,1.49Zm-.36,3,.18-1.49h2.31l.18,1.49Zm4.94-3H38.8l-.18-1.49h.84Zm.63-2.5a.72.72,0,0,0-.67-.48H32.82a.72.72,0,0,0-.67.48L30,39.2a.77.77,0,0,0,.08.69.7.7,0,0,0,.59.32h3.57V41H32.82v1.49h1.43v.74H32.82v1.49H40V43.19H38.53v-.74H40V41H38.53v-.75H42.1a.7.7,0,0,0,.59-.32.77.77,0,0,0,.08-.69Z"/><path class="cls-3" d="M35.68,5.21a2.19,2.19,0,0,1,2.14,2.23,2.14,2.14,0,1,1-4.28,0,2.19,2.19,0,0,1,2.14-2.23m0,6a3.65,3.65,0,0,0,3.57-3.72,3.57,3.57,0,1,0-7.14,0,3.65,3.65,0,0,0,3.57,3.72"/><rect class="cls-4" x="34.96" width="1.43" height="1.49"/><polygon class="cls-5" points="30.13 2.71 31.13 1.66 32.14 2.71 31.13 3.76 30.13 2.71"/><rect class="cls-6" x="28.54" y="6.7" width="1.43" height="1.49"/><polygon class="cls-7" points="30.13 12.19 31.13 11.13 32.14 12.19 31.13 13.24 30.13 12.19"/><rect class="cls-8" x="34.96" y="13.4" width="1.43" height="1.49"/><polygon class="cls-9" points="39.21 12.19 40.22 11.13 41.23 12.19 40.22 13.24 39.21 12.19"/><rect class="cls-10" x="41.38" y="6.7" width="1.43" height="1.49"/><polygon class="cls-11" points="39.21 2.71 40.22 1.66 41.23 2.71 40.22 3.76 39.21 2.71"/><path class="cls-12" d="M29.41,30.94l-6.5-3.3a2.24,2.24,0,0,0,.56-1l6,4.23Zm-7.16.24a4.78,4.78,0,0,1-1.69,0l.1-2.27.74-.38.74.37Zm.14,3a7.58,7.58,0,0,1-2,0l.07-1.49a5.84,5.84,0,0,0,1.83,0Zm.41,9H20l.34-7.52a9,9,0,0,0,1,.07,9,9,0,0,0,1-.07ZM13.4,30.95l0-.09,6-4.23a2.25,2.25,0,0,0,.56,1Zm8.06-14.57L22,23.92a1.82,1.82,0,0,0-1.13,0l.51-7.54ZM22.12,26v0a.74.74,0,0,1-.42.67h0a.65.65,0,0,1-.53,0h0a.75.75,0,0,1-.42-.67v0a.71.71,0,0,1,1.42,0Zm8.2,6.24L31,31a.77.77,0,0,0-.21-1l-7.35-5.19-.63-9.24a.72.72,0,0,0-.71-.69H20.69a.73.73,0,0,0-.71.69l-.63,9.24L12,30a.76.76,0,0,0-.21,1l.71,1.29a.7.7,0,0,0,.93.3l5.78-2.93,0,1a2.69,2.69,0,0,1-.25-.13l-.71,1.29a6.23,6.23,0,0,0,.89.44L19,33.86a7.65,7.65,0,0,1-1.53-.7,7.83,7.83,0,0,1-1.08-.78l-.91,1.15a9.42,9.42,0,0,0,1.27.92,9.07,9.07,0,0,0,2.17.94l-.39,8.51a.77.77,0,0,0,.2.55.7.7,0,0,0,.52.23h4.28a.7.7,0,0,0,.52-.23.76.76,0,0,0,.2-.55l-.39-8.51a9.11,9.11,0,0,0,3.57-2l-.93-1.13a7.72,7.72,0,0,1-2.71,1.57l-.07-1.56a6.21,6.21,0,0,0,1-.49L24,30.53c-.1.07-.21.12-.33.17l0-1,5.78,2.93a.7.7,0,0,0,.93-.3Z"/><path class="cls-13" d="M26.4,26.06h1.43a6.77,6.77,0,0,0-3.31-5.86l-.69,1.3a5.26,5.26,0,0,1,2.58,4.56"/><path class="cls-14" d="M19,21.5l-.69-1.3A6.76,6.76,0,0,0,15,26.06h1.43A5.26,5.26,0,0,1,19,21.5"/><path class="cls-15" d="M29.25,26.06a8.74,8.74,0,0,1-.11,1.37l1.41.25A9.75,9.75,0,0,0,24.5,16.93L24,18.34a8.19,8.19,0,0,1,5.23,7.73"/><path class="cls-16" d="M18.79,18.34l-.48-1.4a9.75,9.75,0,0,0-6.06,10.74l1.41-.25a8.25,8.25,0,0,1,5.12-9.09"/><path class="cls-17" d="M18.55,6.7a1.49,1.49,0,0,1,0,3H10v1.49h8.56a2.92,2.92,0,0,0,2.85-3,2.86,2.86,0,1,0-5.71,0h1.43A1.46,1.46,0,0,1,18.55,6.7"/><path class="cls-18" d="M14.27,5.21a2.92,2.92,0,0,0-2.85-3,2.92,2.92,0,0,0-2.85,3H10a1.43,1.43,0,1,1,2.85,0A1.46,1.46,0,0,1,11.42,6.7H2.85V8.19h8.56a2.92,2.92,0,0,0,2.85-3"/><rect class="cls-19" x="7.14" y="9.68" width="1.43" height="1.49"/><rect class="cls-20" x="4.28" y="9.68" width="1.43" height="1.49"/><rect class="cls-21" y="6.7" width="1.43" height="1.49"/></g></g></svg>