<svg xmlns="http://www.w3.org/2000/svg" xmlns:xlink="http://www.w3.org/1999/xlink" viewBox="0 0 44.92 44.92"><defs><style>.cls-1{fill:url(#New_Gradient_Swatch_5);}</style><linearGradient id="New_Gradient_Swatch_5" x1="-3.34" y1="0.07" x2="42.16" y2="44.07" gradientUnits="userSpaceOnUse"><stop offset="0" stop-color="#cc3"/><stop offset="0.58" stop-color="#319d49"/><stop offset="1" stop-color="#12351c"/></linearGradient></defs><title>Asset 34</title><g id="Layer_2" data-name="Layer 2"><g id="Layer_1-2" data-name="Layer 1"><path class="cls-1" d="M43.48,9.75l-14,9.09H28.26V17.06L42.24,8h1.24Zm0,9.09H32.15l11.32-7.36Zm0,5.8H42v1.45h1.45v7.36L32.15,26.08h8.42V24.64H26.81V37H22.46V24.64H5.8V20.29H22.46V8h4.35V20.29H43.48Zm0,12.32H42.24l-14-9.09V26.08h1.23l14,9.09ZM28.26,37V29.59L39.58,37ZM21,27.87,7,37H5.8V35.17L7.64,34l-.79-1.22-1.05.69V26.08H17.12L8.09,32l.79,1.22,10.9-7.09H21ZM21,37H9.69L21,29.59ZM3.62,5.8A2.17,2.17,0,1,1,5.8,3.62,2.18,2.18,0,0,1,3.62,5.8m13.5,13H5.8V11.48ZM7,8l14,9.09v1.78H19.78L5.8,9.75V8ZM21,8v7.36L9.69,8Zm7.25,0H39.58L28.26,15.33ZM5.8,6.52v0A3.62,3.62,0,1,0,0,3.62,3.61,3.61,0,0,0,1.45,6.5V44.92H2.9V7.17a3.58,3.58,0,0,0,1.45,0V44.92H5.8V38.4H44.92V6.52Z"/></g></g></svg>